<mxfile host="app.diagrams.net" agent="Mozilla/5.0 (Macintosh; Intel Mac OS X 10_15_7) AppleWebKit/605.1.15 (KHTML, like Gecko) Version/18.4 Safari/605.1.15" version="27.0.9" pages="2">
  <diagram name="Pagina-1" id="b8p7mURrbozgKs0b5reL">
    <mxGraphModel grid="1" page="0" gridSize="10" guides="1" tooltips="1" connect="1" arrows="1" fold="1" pageScale="1" pageWidth="827" pageHeight="1169" math="0" shadow="0">
      <root>
        <mxCell id="0" />
        <mxCell id="1" parent="0" />
        <mxCell id="f58gsHsqQCCzqT3UhdzD-1" value="Prodotto" style="rounded=0;whiteSpace=wrap;html=1;" vertex="1" parent="1">
          <mxGeometry x="-340" y="467.5" width="115" height="50" as="geometry" />
        </mxCell>
        <mxCell id="f58gsHsqQCCzqT3UhdzD-2" value="" style="shape=flexArrow;endArrow=classic;html=1;rounded=0;entryX=0.5;entryY=1;entryDx=0;entryDy=0;strokeColor=#000000;fillColor=#000000;" edge="1" parent="1">
          <mxGeometry width="50" height="50" relative="1" as="geometry">
            <mxPoint x="-283.32" y="567.5" as="sourcePoint" />
            <mxPoint x="-283.32" y="517.5" as="targetPoint" />
          </mxGeometry>
        </mxCell>
        <mxCell id="f58gsHsqQCCzqT3UhdzD-3" value="" style="endArrow=none;html=1;rounded=0;" edge="1" parent="1">
          <mxGeometry width="50" height="50" relative="1" as="geometry">
            <mxPoint x="-395" y="567.5" as="sourcePoint" />
            <mxPoint x="-115" y="566.5" as="targetPoint" />
          </mxGeometry>
        </mxCell>
        <mxCell id="f58gsHsqQCCzqT3UhdzD-4" value="" style="endArrow=none;html=1;rounded=0;" edge="1" parent="1">
          <mxGeometry width="50" height="50" relative="1" as="geometry">
            <mxPoint x="-315" y="567.5" as="sourcePoint" />
            <mxPoint x="-315" y="586.25" as="targetPoint" />
          </mxGeometry>
        </mxCell>
        <mxCell id="f58gsHsqQCCzqT3UhdzD-5" value="" style="endArrow=none;html=1;rounded=0;" edge="1" parent="1">
          <mxGeometry width="50" height="50" relative="1" as="geometry">
            <mxPoint x="-115" y="586.25" as="sourcePoint" />
            <mxPoint x="-115" y="566.25" as="targetPoint" />
          </mxGeometry>
        </mxCell>
        <mxCell id="f58gsHsqQCCzqT3UhdzD-6" value="bustina" style="rounded=0;whiteSpace=wrap;html=1;" vertex="1" parent="1">
          <mxGeometry x="-345" y="586.25" width="78" height="51.25" as="geometry" />
        </mxCell>
        <mxCell id="f58gsHsqQCCzqT3UhdzD-7" value="bundle ufficiale" style="rounded=0;whiteSpace=wrap;html=1;" vertex="1" parent="1">
          <mxGeometry x="-257.99" y="585.6300000000001" width="80.99" height="51.87" as="geometry" />
        </mxCell>
        <mxCell id="f58gsHsqQCCzqT3UhdzD-12" value="" style="endArrow=none;html=1;rounded=0;startArrow=none;startFill=0;edgeStyle=orthogonalEdgeStyle;" edge="1" parent="1">
          <mxGeometry width="50" height="50" relative="1" as="geometry">
            <mxPoint x="-395" y="567.5" as="sourcePoint" />
            <mxPoint x="-395" y="586.5" as="targetPoint" />
          </mxGeometry>
        </mxCell>
        <mxCell id="f58gsHsqQCCzqT3UhdzD-13" value="carta singola" style="rounded=0;whiteSpace=wrap;html=1;" vertex="1" parent="1">
          <mxGeometry x="-455" y="586.25" width="100" height="51.25" as="geometry" />
        </mxCell>
        <mxCell id="f58gsHsqQCCzqT3UhdzD-14" value="blister" style="rounded=0;whiteSpace=wrap;html=1;" vertex="1" parent="1">
          <mxGeometry x="-167" y="585.6300000000001" width="80" height="51.87" as="geometry" />
        </mxCell>
        <mxCell id="f58gsHsqQCCzqT3UhdzD-17" value="ID" style="text;html=1;align=center;verticalAlign=middle;whiteSpace=wrap;rounded=0;" vertex="1" parent="1">
          <mxGeometry x="-260" y="547.5" width="30" height="12.5" as="geometry" />
        </mxCell>
        <mxCell id="f58gsHsqQCCzqT3UhdzD-24" value="" style="endArrow=none;html=1;rounded=0;exitX=-0.001;exitY=0.293;exitDx=0;exitDy=0;exitPerimeter=0;" edge="1" parent="1" target="f58gsHsqQCCzqT3UhdzD-25">
          <mxGeometry width="50" height="50" relative="1" as="geometry">
            <mxPoint x="-455.0999999999999" y="591.8962499999998" as="sourcePoint" />
            <mxPoint x="-435.72" y="615.3800000000001" as="targetPoint" />
          </mxGeometry>
        </mxCell>
        <mxCell id="f58gsHsqQCCzqT3UhdzD-25" value="" style="ellipse;whiteSpace=wrap;html=1;aspect=fixed;fillColor=#FFFFFF;strokeColor=#000000;" vertex="1" parent="1">
          <mxGeometry x="-495.72" y="586.8800000000001" width="10" height="10" as="geometry" />
        </mxCell>
        <mxCell id="f58gsHsqQCCzqT3UhdzD-26" value="nome" style="text;html=1;align=center;verticalAlign=middle;whiteSpace=wrap;rounded=0;" vertex="1" parent="1">
          <mxGeometry x="-530" y="585.6300000000001" width="30" height="12.5" as="geometry" />
        </mxCell>
        <mxCell id="f58gsHsqQCCzqT3UhdzD-29" value="" style="shape=flexArrow;endArrow=classic;html=1;rounded=0;entryX=0.5;entryY=1;entryDx=0;entryDy=0;strokeColor=#000000;fillColor=none;" edge="1" parent="1">
          <mxGeometry width="50" height="50" relative="1" as="geometry">
            <mxPoint x="-405.43" y="677.5" as="sourcePoint" />
            <mxPoint x="-405.62" y="636.25" as="targetPoint" />
          </mxGeometry>
        </mxCell>
        <mxCell id="f58gsHsqQCCzqT3UhdzD-32" value="condizione" style="text;html=1;align=center;verticalAlign=middle;whiteSpace=wrap;rounded=0;" vertex="1" parent="1">
          <mxGeometry x="-540" y="625.0000000000002" width="30" height="12.5" as="geometry" />
        </mxCell>
        <mxCell id="f58gsHsqQCCzqT3UhdzD-33" value="carta gradata" style="rounded=0;whiteSpace=wrap;html=1;" vertex="1" parent="1">
          <mxGeometry x="-455" y="677.5" width="100" height="50" as="geometry" />
        </mxCell>
        <mxCell id="f58gsHsqQCCzqT3UhdzD-34" value="" style="endArrow=none;html=1;rounded=0;entryX=0;entryY=0.5;entryDx=0;entryDy=0;" edge="1" parent="1" target="f58gsHsqQCCzqT3UhdzD-1">
          <mxGeometry width="50" height="50" relative="1" as="geometry">
            <mxPoint x="-405" y="492.5" as="sourcePoint" />
            <mxPoint x="-365" y="477.5" as="targetPoint" />
          </mxGeometry>
        </mxCell>
        <mxCell id="f58gsHsqQCCzqT3UhdzD-36" value="appartiene" style="rhombus;whiteSpace=wrap;html=1;" vertex="1" parent="1">
          <mxGeometry x="-495" y="470" width="90" height="45" as="geometry" />
        </mxCell>
        <mxCell id="f58gsHsqQCCzqT3UhdzD-37" value="(0,1)" style="text;html=1;align=center;verticalAlign=middle;whiteSpace=wrap;rounded=0;" vertex="1" parent="1">
          <mxGeometry x="-395" y="477.5" width="40" height="10" as="geometry" />
        </mxCell>
        <mxCell id="f58gsHsqQCCzqT3UhdzD-40" value="" style="endArrow=none;html=1;rounded=0;" edge="1" parent="1">
          <mxGeometry width="50" height="50" relative="1" as="geometry">
            <mxPoint x="-451" y="437.5" as="sourcePoint" />
            <mxPoint x="-450.72" y="470.0000000000002" as="targetPoint" />
          </mxGeometry>
        </mxCell>
        <mxCell id="f58gsHsqQCCzqT3UhdzD-41" value="espansione" style="rounded=0;whiteSpace=wrap;html=1;" vertex="1" parent="1">
          <mxGeometry x="-486" y="397.5" width="71" height="40" as="geometry" />
        </mxCell>
        <mxCell id="f58gsHsqQCCzqT3UhdzD-42" value="(0, N)" style="text;html=1;align=center;verticalAlign=middle;whiteSpace=wrap;rounded=0;" vertex="1" parent="1">
          <mxGeometry x="-452" y="447.5" width="40" height="10" as="geometry" />
        </mxCell>
        <mxCell id="f58gsHsqQCCzqT3UhdzD-48" value="promozione bustine" style="rounded=0;whiteSpace=wrap;html=1;" vertex="1" parent="1">
          <mxGeometry x="-205" y="677.5" width="86" height="50" as="geometry" />
        </mxCell>
        <mxCell id="f58gsHsqQCCzqT3UhdzD-56" value="" style="endArrow=none;html=1;rounded=0;" edge="1" parent="1">
          <mxGeometry width="50" height="50" relative="1" as="geometry">
            <mxPoint x="-485" y="616.3800000000003" as="sourcePoint" />
            <mxPoint x="-455" y="616.1300000000003" as="targetPoint" />
          </mxGeometry>
        </mxCell>
        <mxCell id="f58gsHsqQCCzqT3UhdzD-57" value="" style="ellipse;whiteSpace=wrap;html=1;" vertex="1" parent="1">
          <mxGeometry x="-495" y="611.2600000000002" width="10" height="10" as="geometry" />
        </mxCell>
        <mxCell id="f58gsHsqQCCzqT3UhdzD-63" value="" style="endArrow=none;html=1;rounded=0;" edge="1" parent="1">
          <mxGeometry width="50" height="50" relative="1" as="geometry">
            <mxPoint x="-485" y="603.2500000000002" as="sourcePoint" />
            <mxPoint x="-455" y="603.0000000000002" as="targetPoint" />
          </mxGeometry>
        </mxCell>
        <mxCell id="f58gsHsqQCCzqT3UhdzD-64" value="" style="ellipse;whiteSpace=wrap;html=1;" vertex="1" parent="1">
          <mxGeometry x="-495" y="598.1300000000001" width="10" height="10" as="geometry" />
        </mxCell>
        <mxCell id="f58gsHsqQCCzqT3UhdzD-65" value="" style="endArrow=none;html=1;rounded=0;" edge="1" parent="1">
          <mxGeometry width="50" height="50" relative="1" as="geometry">
            <mxPoint x="-485" y="633.3700000000001" as="sourcePoint" />
            <mxPoint x="-455" y="633.1200000000001" as="targetPoint" />
          </mxGeometry>
        </mxCell>
        <mxCell id="f58gsHsqQCCzqT3UhdzD-66" value="" style="ellipse;whiteSpace=wrap;html=1;" vertex="1" parent="1">
          <mxGeometry x="-495" y="627.5000000000002" width="10" height="10" as="geometry" />
        </mxCell>
        <mxCell id="f58gsHsqQCCzqT3UhdzD-67" value="numero" style="text;html=1;align=center;verticalAlign=middle;whiteSpace=wrap;rounded=0;" vertex="1" parent="1">
          <mxGeometry x="-550" y="586.8800000000001" width="60" height="30" as="geometry" />
        </mxCell>
        <mxCell id="f58gsHsqQCCzqT3UhdzD-68" value="prezzo" style="text;html=1;align=center;verticalAlign=middle;whiteSpace=wrap;rounded=0;" vertex="1" parent="1">
          <mxGeometry x="-545" y="598.1300000000001" width="60" height="30" as="geometry" />
        </mxCell>
        <mxCell id="f58gsHsqQCCzqT3UhdzD-69" value="ID" style="text;html=1;align=center;verticalAlign=middle;whiteSpace=wrap;rounded=0;" vertex="1" parent="1">
          <mxGeometry x="-427" y="350" width="10" height="10" as="geometry" />
        </mxCell>
        <mxCell id="f58gsHsqQCCzqT3UhdzD-71" value="" style="ellipse;whiteSpace=wrap;html=1;" vertex="1" parent="1">
          <mxGeometry x="-457" y="367.5" width="10" height="10" as="geometry" />
        </mxCell>
        <mxCell id="f58gsHsqQCCzqT3UhdzD-72" value="data uscita" style="text;html=1;align=center;verticalAlign=middle;whiteSpace=wrap;rounded=0;" vertex="1" parent="1">
          <mxGeometry x="-475" y="337.5" width="40" height="30" as="geometry" />
        </mxCell>
        <mxCell id="f58gsHsqQCCzqT3UhdzD-73" value="(0, 1)" style="text;html=1;align=center;verticalAlign=middle;whiteSpace=wrap;rounded=0;" vertex="1" parent="1">
          <mxGeometry x="-485.72" y="621.26" width="35" height="10" as="geometry" />
        </mxCell>
        <mxCell id="f58gsHsqQCCzqT3UhdzD-79" value="" style="ellipse;whiteSpace=wrap;html=1;" vertex="1" parent="1">
          <mxGeometry x="-482" y="367.5" width="10" height="10" as="geometry" />
        </mxCell>
        <mxCell id="f58gsHsqQCCzqT3UhdzD-82" value="regione" style="text;html=1;align=center;verticalAlign=middle;whiteSpace=wrap;rounded=0;" vertex="1" parent="1">
          <mxGeometry x="-515" y="350" width="30" height="10" as="geometry" />
        </mxCell>
        <mxCell id="f58gsHsqQCCzqT3UhdzD-85" value="" style="ellipse;whiteSpace=wrap;html=1;" vertex="1" parent="1">
          <mxGeometry x="-455" y="747.5" width="10" height="10" as="geometry" />
        </mxCell>
        <mxCell id="f58gsHsqQCCzqT3UhdzD-86" value="" style="ellipse;whiteSpace=wrap;html=1;" vertex="1" parent="1">
          <mxGeometry x="-415" y="747.5" width="10" height="10" as="geometry" />
        </mxCell>
        <mxCell id="f58gsHsqQCCzqT3UhdzD-87" value="" style="ellipse;whiteSpace=wrap;html=1;" vertex="1" parent="1">
          <mxGeometry x="-375" y="747.5" width="10" height="10" as="geometry" />
        </mxCell>
        <mxCell id="f58gsHsqQCCzqT3UhdzD-89" value="ente gradatore" style="text;html=1;align=center;verticalAlign=middle;whiteSpace=wrap;rounded=0;" vertex="1" parent="1">
          <mxGeometry x="-480" y="757.5" width="45" height="30" as="geometry" />
        </mxCell>
        <mxCell id="f58gsHsqQCCzqT3UhdzD-91" value="voto" style="text;html=1;align=center;verticalAlign=middle;whiteSpace=wrap;rounded=0;" vertex="1" parent="1">
          <mxGeometry x="-440" y="747.5" width="60" height="30" as="geometry" />
        </mxCell>
        <mxCell id="f58gsHsqQCCzqT3UhdzD-92" value="id certificazione" style="text;html=1;align=center;verticalAlign=middle;whiteSpace=wrap;rounded=0;" vertex="1" parent="1">
          <mxGeometry x="-395" y="757.5" width="60" height="30" as="geometry" />
        </mxCell>
        <mxCell id="f58gsHsqQCCzqT3UhdzD-93" value="" style="endArrow=none;html=1;rounded=0;exitX=0.5;exitY=0;exitDx=0;exitDy=0;" edge="1" parent="1" source="f58gsHsqQCCzqT3UhdzD-85">
          <mxGeometry width="50" height="50" relative="1" as="geometry">
            <mxPoint x="-450.18" y="757.5" as="sourcePoint" />
            <mxPoint x="-450.18" y="727.5" as="targetPoint" />
          </mxGeometry>
        </mxCell>
        <mxCell id="f58gsHsqQCCzqT3UhdzD-94" value="" style="endArrow=none;html=1;rounded=0;exitX=0.5;exitY=0;exitDx=0;exitDy=0;" edge="1" parent="1">
          <mxGeometry width="50" height="50" relative="1" as="geometry">
            <mxPoint x="-410" y="747.5" as="sourcePoint" />
            <mxPoint x="-410.18" y="727.5" as="targetPoint" />
          </mxGeometry>
        </mxCell>
        <mxCell id="f58gsHsqQCCzqT3UhdzD-95" value="" style="endArrow=none;html=1;rounded=0;exitX=0.5;exitY=0;exitDx=0;exitDy=0;" edge="1" parent="1">
          <mxGeometry width="50" height="50" relative="1" as="geometry">
            <mxPoint x="-369.82" y="747.5" as="sourcePoint" />
            <mxPoint x="-370" y="727.5" as="targetPoint" />
          </mxGeometry>
        </mxCell>
        <mxCell id="f58gsHsqQCCzqT3UhdzD-105" value="" style="ellipse;whiteSpace=wrap;html=1;" vertex="1" parent="1">
          <mxGeometry x="28" y="537.5" width="10" height="10" as="geometry" />
        </mxCell>
        <mxCell id="f58gsHsqQCCzqT3UhdzD-110" value="quantità" style="text;html=1;align=center;verticalAlign=middle;whiteSpace=wrap;rounded=0;" vertex="1" parent="1">
          <mxGeometry x="-23.120000000000005" y="535" width="60" height="30" as="geometry" />
        </mxCell>
        <mxCell id="f58gsHsqQCCzqT3UhdzD-112" value="" style="ellipse;whiteSpace=wrap;html=1;aspect=fixed;" vertex="1" parent="1">
          <mxGeometry x="-99" y="687.5" width="10" height="10" as="geometry" />
        </mxCell>
        <mxCell id="f58gsHsqQCCzqT3UhdzD-113" value="" style="endArrow=none;html=1;rounded=0;" edge="1" parent="1">
          <mxGeometry width="50" height="50" relative="1" as="geometry">
            <mxPoint x="-119" y="692.3900000000001" as="sourcePoint" />
            <mxPoint x="-99" y="692.3900000000001" as="targetPoint" />
          </mxGeometry>
        </mxCell>
        <mxCell id="f58gsHsqQCCzqT3UhdzD-114" value="" style="ellipse;whiteSpace=wrap;html=1;aspect=fixed;" vertex="1" parent="1">
          <mxGeometry x="-99" y="707.5" width="10" height="10" as="geometry" />
        </mxCell>
        <mxCell id="f58gsHsqQCCzqT3UhdzD-115" value="" style="endArrow=none;html=1;rounded=0;" edge="1" parent="1">
          <mxGeometry width="50" height="50" relative="1" as="geometry">
            <mxPoint x="-119" y="712.3900000000001" as="sourcePoint" />
            <mxPoint x="-99" y="712.3900000000001" as="targetPoint" />
          </mxGeometry>
        </mxCell>
        <mxCell id="f58gsHsqQCCzqT3UhdzD-116" value="quantità" style="text;html=1;align=center;verticalAlign=middle;whiteSpace=wrap;rounded=0;" vertex="1" parent="1">
          <mxGeometry x="-89" y="677.5" width="60" height="30" as="geometry" />
        </mxCell>
        <mxCell id="f58gsHsqQCCzqT3UhdzD-118" value="sconto percentuale" style="text;html=1;align=center;verticalAlign=middle;whiteSpace=wrap;rounded=0;" vertex="1" parent="1">
          <mxGeometry x="-89" y="707.5" width="60" height="30" as="geometry" />
        </mxCell>
        <mxCell id="f58gsHsqQCCzqT3UhdzD-119" value="" style="endArrow=none;html=1;rounded=0;" edge="1" parent="1">
          <mxGeometry width="50" height="50" relative="1" as="geometry">
            <mxPoint x="-132.42000000000007" y="747.5" as="sourcePoint" />
            <mxPoint x="-132.42000000000007" y="727.5" as="targetPoint" />
          </mxGeometry>
        </mxCell>
        <mxCell id="f58gsHsqQCCzqT3UhdzD-121" value="" style="ellipse;whiteSpace=wrap;html=1;aspect=fixed;" vertex="1" parent="1">
          <mxGeometry x="-137.12" y="747.5" width="10" height="10" as="geometry" />
        </mxCell>
        <mxCell id="f58gsHsqQCCzqT3UhdzD-123" value="id promozione" style="text;html=1;align=center;verticalAlign=middle;whiteSpace=wrap;rounded=0;" vertex="1" parent="1">
          <mxGeometry x="-162.11" y="757.5" width="59.99" height="30" as="geometry" />
        </mxCell>
        <mxCell id="f58gsHsqQCCzqT3UhdzD-124" value="" style="endArrow=none;html=1;rounded=0;entryX=0.5;entryY=1;entryDx=0;entryDy=0;exitX=0.5;exitY=0;exitDx=0;exitDy=0;" edge="1" parent="1" source="f58gsHsqQCCzqT3UhdzD-125" target="f58gsHsqQCCzqT3UhdzD-6">
          <mxGeometry width="50" height="50" relative="1" as="geometry">
            <mxPoint x="-305" y="677.5" as="sourcePoint" />
            <mxPoint x="-296" y="637.5" as="targetPoint" />
          </mxGeometry>
        </mxCell>
        <mxCell id="f58gsHsqQCCzqT3UhdzD-125" value="applicazione" style="rhombus;whiteSpace=wrap;html=1;" vertex="1" parent="1">
          <mxGeometry x="-347" y="677.5" width="82" height="50" as="geometry" />
        </mxCell>
        <mxCell id="f58gsHsqQCCzqT3UhdzD-126" value="" style="endArrow=none;html=1;rounded=0;" edge="1" parent="1">
          <mxGeometry width="50" height="50" relative="1" as="geometry">
            <mxPoint x="-265" y="702.2" as="sourcePoint" />
            <mxPoint x="-205.01" y="702.2" as="targetPoint" />
          </mxGeometry>
        </mxCell>
        <mxCell id="f58gsHsqQCCzqT3UhdzD-127" value="(0, N)" style="text;html=1;align=center;verticalAlign=middle;whiteSpace=wrap;rounded=0;" vertex="1" parent="1">
          <mxGeometry x="-316" y="642.5" width="60" height="30" as="geometry" />
        </mxCell>
        <mxCell id="f58gsHsqQCCzqT3UhdzD-128" value="(1, N)" style="text;html=1;align=center;verticalAlign=middle;whiteSpace=wrap;rounded=0;" vertex="1" parent="1">
          <mxGeometry x="-270" y="677.5" width="60" height="30" as="geometry" />
        </mxCell>
        <mxCell id="f58gsHsqQCCzqT3UhdzD-129" value="Ordine" style="rounded=0;whiteSpace=wrap;html=1;" vertex="1" parent="1">
          <mxGeometry x="-39.110000000000014" y="310" width="96" height="40" as="geometry" />
        </mxCell>
        <mxCell id="f58gsHsqQCCzqT3UhdzD-133" value="(0, N)" style="text;html=1;align=center;verticalAlign=middle;whiteSpace=wrap;rounded=0;" vertex="1" parent="1">
          <mxGeometry x="-328" y="385" width="35.99" height="20" as="geometry" />
        </mxCell>
        <mxCell id="f58gsHsqQCCzqT3UhdzD-134" value="(1, N)" style="text;html=1;align=center;verticalAlign=middle;whiteSpace=wrap;rounded=0;" vertex="1" parent="1">
          <mxGeometry x="-157" y="300" width="40" height="20" as="geometry" />
        </mxCell>
        <mxCell id="f58gsHsqQCCzqT3UhdzD-136" value="" style="endArrow=none;html=1;rounded=0;" edge="1" parent="1" target="f58gsHsqQCCzqT3UhdzD-137">
          <mxGeometry width="50" height="50" relative="1" as="geometry">
            <mxPoint x="37.870000000000005" y="310" as="sourcePoint" />
            <mxPoint x="37.870000000000005" y="290" as="targetPoint" />
          </mxGeometry>
        </mxCell>
        <mxCell id="f58gsHsqQCCzqT3UhdzD-137" value="" style="ellipse;whiteSpace=wrap;html=1;aspect=fixed;fillColor=#000000;" vertex="1" parent="1">
          <mxGeometry x="32.879999999999995" y="280" width="10" height="10" as="geometry" />
        </mxCell>
        <mxCell id="f58gsHsqQCCzqT3UhdzD-138" value="ID" style="text;html=1;align=center;verticalAlign=middle;whiteSpace=wrap;rounded=0;" vertex="1" parent="1">
          <mxGeometry x="27.889999999999986" y="259.3800000000001" width="20" height="11.25" as="geometry" />
        </mxCell>
        <mxCell id="f58gsHsqQCCzqT3UhdzD-141" value="" style="ellipse;whiteSpace=wrap;html=1;aspect=fixed;" vertex="1" parent="1">
          <mxGeometry x="1.8799999999999955" y="280" width="10" height="10" as="geometry" />
        </mxCell>
        <mxCell id="f58gsHsqQCCzqT3UhdzD-154" value="" style="ellipse;whiteSpace=wrap;html=1;fillColor=#000000;" vertex="1" parent="1">
          <mxGeometry x="-250" y="537.5" width="10" height="10" as="geometry" />
        </mxCell>
        <mxCell id="f58gsHsqQCCzqT3UhdzD-159" value="" style="ellipse;whiteSpace=wrap;html=1;aspect=fixed;fillColor=light-dark(#FFFFFF,#EDEDED);strokeColor=#000000;" vertex="1" parent="1">
          <mxGeometry x="-232.99" y="537.5" width="10" height="10" as="geometry" />
        </mxCell>
        <mxCell id="f58gsHsqQCCzqT3UhdzD-163" value="prezzo unitario" style="text;html=1;align=center;verticalAlign=middle;whiteSpace=wrap;rounded=0;" vertex="1" parent="1">
          <mxGeometry x="-230" y="527.5" width="60" height="30" as="geometry" />
        </mxCell>
        <mxCell id="f58gsHsqQCCzqT3UhdzD-164" value="" style="endArrow=none;html=1;rounded=0;" edge="1" parent="1">
          <mxGeometry width="50" height="50" relative="1" as="geometry">
            <mxPoint x="-228.26999999999998" y="517.5" as="sourcePoint" />
            <mxPoint x="-228.27999999999997" y="537.5" as="targetPoint" />
          </mxGeometry>
        </mxCell>
        <mxCell id="f58gsHsqQCCzqT3UhdzD-165" value="" style="endArrow=none;html=1;rounded=0;" edge="1" parent="1">
          <mxGeometry width="50" height="50" relative="1" as="geometry">
            <mxPoint x="-244.99" y="517.5" as="sourcePoint" />
            <mxPoint x="-245" y="537.5" as="targetPoint" />
          </mxGeometry>
        </mxCell>
        <mxCell id="f58gsHsqQCCzqT3UhdzD-170" value="data ordine" style="text;html=1;align=center;verticalAlign=middle;whiteSpace=wrap;rounded=0;" vertex="1" parent="1">
          <mxGeometry x="-25.120000000000005" y="250.00000000000023" width="60" height="30" as="geometry" />
        </mxCell>
        <mxCell id="f58gsHsqQCCzqT3UhdzD-171" value="" style="endArrow=none;html=1;rounded=0;" edge="1" parent="1">
          <mxGeometry width="50" height="50" relative="1" as="geometry">
            <mxPoint x="6.559999999999945" y="290" as="sourcePoint" />
            <mxPoint x="6.5499999999999545" y="310" as="targetPoint" />
          </mxGeometry>
        </mxCell>
        <mxCell id="f58gsHsqQCCzqT3UhdzD-172" value="" style="endArrow=none;html=1;rounded=0;" edge="1" parent="1" target="f58gsHsqQCCzqT3UhdzD-173">
          <mxGeometry width="50" height="50" relative="1" as="geometry">
            <mxPoint x="-28.129999999999995" y="310" as="sourcePoint" />
            <mxPoint x="-28.129999999999995" y="290" as="targetPoint" />
          </mxGeometry>
        </mxCell>
        <mxCell id="f58gsHsqQCCzqT3UhdzD-173" value="" style="ellipse;whiteSpace=wrap;html=1;aspect=fixed;" vertex="1" parent="1">
          <mxGeometry x="-33.120000000000005" y="280" width="10" height="10" as="geometry" />
        </mxCell>
        <mxCell id="f58gsHsqQCCzqT3UhdzD-174" value="stato" style="text;html=1;align=center;verticalAlign=middle;whiteSpace=wrap;rounded=0;" vertex="1" parent="1">
          <mxGeometry x="-60.120000000000005" y="250.01" width="60" height="30" as="geometry" />
        </mxCell>
        <mxCell id="f58gsHsqQCCzqT3UhdzD-175" value="" style="endArrow=none;html=1;rounded=0;" edge="1" parent="1">
          <mxGeometry width="50" height="50" relative="1" as="geometry">
            <mxPoint x="-365.5" y="325" as="sourcePoint" />
            <mxPoint x="-343.49" y="325" as="targetPoint" />
          </mxGeometry>
        </mxCell>
        <mxCell id="f58gsHsqQCCzqT3UhdzD-176" value="" style="ellipse;whiteSpace=wrap;html=1;" vertex="1" parent="1">
          <mxGeometry x="-373.5" y="320" width="10" height="10" as="geometry" />
        </mxCell>
        <mxCell id="f58gsHsqQCCzqT3UhdzD-177" value="quantità" style="text;html=1;align=center;verticalAlign=middle;whiteSpace=wrap;rounded=0;" vertex="1" parent="1">
          <mxGeometry x="-430.5" y="310" width="60" height="30" as="geometry" />
        </mxCell>
        <mxCell id="f58gsHsqQCCzqT3UhdzD-179" value="" style="endArrow=none;html=1;rounded=0;entryX=0;entryY=0.5;entryDx=0;entryDy=0;" edge="1" parent="1" target="f58gsHsqQCCzqT3UhdzD-180">
          <mxGeometry width="50" height="50" relative="1" as="geometry">
            <mxPoint x="56.889999999999986" y="329.5999999999999" as="sourcePoint" />
            <mxPoint x="125.88999999999999" y="329.5899999999999" as="targetPoint" />
          </mxGeometry>
        </mxCell>
        <mxCell id="f58gsHsqQCCzqT3UhdzD-180" value="acquistato da" style="rhombus;whiteSpace=wrap;html=1;" vertex="1" parent="1">
          <mxGeometry x="150.39" y="310" width="99" height="40" as="geometry" />
        </mxCell>
        <mxCell id="f58gsHsqQCCzqT3UhdzD-181" value="" style="endArrow=none;html=1;rounded=0;entryX=0;entryY=0.5;entryDx=0;entryDy=0;exitX=1;exitY=0.5;exitDx=0;exitDy=0;" edge="1" parent="1" source="f58gsHsqQCCzqT3UhdzD-180" target="f58gsHsqQCCzqT3UhdzD-182">
          <mxGeometry width="50" height="50" relative="1" as="geometry">
            <mxPoint x="256.89" y="330.01" as="sourcePoint" />
            <mxPoint x="335.89" y="329.5799999999999" as="targetPoint" />
          </mxGeometry>
        </mxCell>
        <mxCell id="f58gsHsqQCCzqT3UhdzD-182" value="Cliente" style="rounded=0;whiteSpace=wrap;html=1;" vertex="1" parent="1">
          <mxGeometry x="329.01" y="310" width="103.99" height="40" as="geometry" />
        </mxCell>
        <mxCell id="f58gsHsqQCCzqT3UhdzD-183" value="" style="endArrow=none;html=1;rounded=0;entryX=0.427;entryY=0.089;entryDx=0;entryDy=0;exitX=0.612;exitY=0;exitDx=0;exitDy=0;exitPerimeter=0;entryPerimeter=0;" edge="1" parent="1" source="f58gsHsqQCCzqT3UhdzD-185" target="f58gsHsqQCCzqT3UhdzD-186">
          <mxGeometry width="50" height="50" relative="1" as="geometry">
            <mxPoint x="271.01" y="397.5" as="sourcePoint" />
            <mxPoint x="410.71000000000026" y="397.5" as="targetPoint" />
            <Array as="points">
              <mxPoint x="278.89" y="377.51" />
              <mxPoint x="374" y="377.5" />
            </Array>
          </mxGeometry>
        </mxCell>
        <mxCell id="f58gsHsqQCCzqT3UhdzD-184" value="" style="shape=flexArrow;endArrow=classic;html=1;rounded=0;strokeColor=#000000;fillColor=#000000;endWidth=17.142857142857142;endSize=3.571428571428571;entryX=0.5;entryY=1;entryDx=0;entryDy=0;" edge="1" parent="1" target="f58gsHsqQCCzqT3UhdzD-129">
          <mxGeometry width="50" height="50" relative="1" as="geometry">
            <mxPoint x="9" y="377.5" as="sourcePoint" />
            <mxPoint x="9" y="357.5" as="targetPoint" />
          </mxGeometry>
        </mxCell>
        <mxCell id="f58gsHsqQCCzqT3UhdzD-185" value="Privato" style="rounded=0;whiteSpace=wrap;html=1;" vertex="1" parent="1">
          <mxGeometry x="233.01" y="397.5" width="75" height="30" as="geometry" />
        </mxCell>
        <mxCell id="f58gsHsqQCCzqT3UhdzD-186" value="Azienda" style="rounded=0;whiteSpace=wrap;html=1;" vertex="1" parent="1">
          <mxGeometry x="342.01" y="397.5" width="75" height="30" as="geometry" />
        </mxCell>
        <mxCell id="f58gsHsqQCCzqT3UhdzD-192" value="" style="ellipse;whiteSpace=wrap;html=1;aspect=fixed;fillColor=#000000;" vertex="1" parent="1">
          <mxGeometry x="332.01" y="280.01" width="10" height="10" as="geometry" />
        </mxCell>
        <mxCell id="f58gsHsqQCCzqT3UhdzD-194" value="" style="endArrow=none;html=1;rounded=0;exitX=0.036;exitY=-0.03;exitDx=0;exitDy=0;exitPerimeter=0;entryX=0.5;entryY=1;entryDx=0;entryDy=0;" edge="1" parent="1" target="f58gsHsqQCCzqT3UhdzD-192">
          <mxGeometry width="50" height="50" relative="1" as="geometry">
            <mxPoint x="336.89" y="310" as="sourcePoint" />
            <mxPoint x="336.92999999999995" y="291.20000000000005" as="targetPoint" />
          </mxGeometry>
        </mxCell>
        <mxCell id="f58gsHsqQCCzqT3UhdzD-198" value="ID" style="text;html=1;align=center;verticalAlign=middle;whiteSpace=wrap;rounded=0;" vertex="1" parent="1">
          <mxGeometry x="307.0099999999999" y="250.01000000000022" width="60" height="30" as="geometry" />
        </mxCell>
        <mxCell id="f58gsHsqQCCzqT3UhdzD-199" value="" style="endArrow=none;html=1;rounded=0;" edge="1" parent="1">
          <mxGeometry width="50" height="50" relative="1" as="geometry">
            <mxPoint x="211.01" y="402.29999999999995" as="sourcePoint" />
            <mxPoint x="233.01" y="402.29999999999995" as="targetPoint" />
          </mxGeometry>
        </mxCell>
        <mxCell id="f58gsHsqQCCzqT3UhdzD-201" value="" style="ellipse;whiteSpace=wrap;html=1;" vertex="1" parent="1">
          <mxGeometry x="200.89" y="397.5" width="10" height="10" as="geometry" />
        </mxCell>
        <mxCell id="f58gsHsqQCCzqT3UhdzD-202" value="(0, 1)" style="text;html=1;align=center;verticalAlign=middle;whiteSpace=wrap;rounded=0;" vertex="1" parent="1">
          <mxGeometry x="81.88999999999999" y="310" width="55" height="20.01" as="geometry" />
        </mxCell>
        <mxCell id="f58gsHsqQCCzqT3UhdzD-203" value="(1, N)" style="text;html=1;align=center;verticalAlign=middle;whiteSpace=wrap;rounded=0;" vertex="1" parent="1">
          <mxGeometry x="261.89" y="310.01" width="55" height="20.01" as="geometry" />
        </mxCell>
        <mxCell id="f58gsHsqQCCzqT3UhdzD-204" value="nome" style="text;html=1;align=center;verticalAlign=middle;whiteSpace=wrap;rounded=0;" vertex="1" parent="1">
          <mxGeometry x="150.39" y="387.5" width="60" height="30" as="geometry" />
        </mxCell>
        <mxCell id="f58gsHsqQCCzqT3UhdzD-207" value="" style="endArrow=none;html=1;rounded=0;exitX=1;exitY=1;exitDx=0;exitDy=0;" edge="1" parent="1">
          <mxGeometry width="50" height="50" relative="1" as="geometry">
            <mxPoint x="210.89" y="417.4999999999998" as="sourcePoint" />
            <mxPoint x="232.89" y="417.51" as="targetPoint" />
          </mxGeometry>
        </mxCell>
        <mxCell id="f58gsHsqQCCzqT3UhdzD-208" value="" style="ellipse;whiteSpace=wrap;html=1;" vertex="1" parent="1">
          <mxGeometry x="201.39" y="412.51" width="10" height="10" as="geometry" />
        </mxCell>
        <mxCell id="f58gsHsqQCCzqT3UhdzD-209" value="e-mail" style="text;html=1;align=center;verticalAlign=middle;whiteSpace=wrap;rounded=0;" vertex="1" parent="1">
          <mxGeometry x="150.89" y="402.51" width="60" height="30" as="geometry" />
        </mxCell>
        <mxCell id="f58gsHsqQCCzqT3UhdzD-210" value="" style="ellipse;whiteSpace=wrap;html=1;fontStyle=1" vertex="1" parent="1">
          <mxGeometry x="233.01" y="377.5" width="10" height="10" as="geometry" />
        </mxCell>
        <mxCell id="f58gsHsqQCCzqT3UhdzD-211" value="" style="ellipse;whiteSpace=wrap;html=1;" vertex="1" parent="1">
          <mxGeometry x="-112.49999999999994" y="417.49" width="10" height="10" as="geometry" />
        </mxCell>
        <mxCell id="f58gsHsqQCCzqT3UhdzD-212" value="" style="endArrow=none;html=1;rounded=0;fontStyle=1" edge="1" parent="1">
          <mxGeometry width="50" height="50" relative="1" as="geometry">
            <mxPoint x="237.80999999999995" y="397.5" as="sourcePoint" />
            <mxPoint x="237.80999999999995" y="387.5" as="targetPoint" />
          </mxGeometry>
        </mxCell>
        <mxCell id="f58gsHsqQCCzqT3UhdzD-214" value="telefono" style="text;html=1;align=center;verticalAlign=middle;whiteSpace=wrap;rounded=0;" vertex="1" parent="1">
          <mxGeometry x="188.89" y="357.49" width="60" height="20.01" as="geometry" />
        </mxCell>
        <mxCell id="f58gsHsqQCCzqT3UhdzD-215" value="&lt;div style=&quot;line-height: 100%;&quot;&gt;indirizzo spedizione&lt;/div&gt;" style="text;html=1;align=center;verticalAlign=middle;whiteSpace=wrap;rounded=0;" vertex="1" parent="1">
          <mxGeometry x="-177.38" y="417.48" width="78.38" height="30.02" as="geometry" />
        </mxCell>
        <mxCell id="f58gsHsqQCCzqT3UhdzD-218" value="" style="endArrow=none;html=1;rounded=0;exitX=1;exitY=0.5;exitDx=0;exitDy=0;entryX=0.033;entryY=0.643;entryDx=0;entryDy=0;entryPerimeter=0;" edge="1" parent="1" source="f58gsHsqQCCzqT3UhdzD-211">
          <mxGeometry width="50" height="50" relative="1" as="geometry">
            <mxPoint x="-107.49999999999994" y="412.5" as="sourcePoint" />
            <mxPoint x="-67.00000000000006" y="421.77999999999986" as="targetPoint" />
          </mxGeometry>
        </mxCell>
        <mxCell id="f58gsHsqQCCzqT3UhdzD-220" value="(0, 1)" style="text;html=1;align=center;verticalAlign=middle;whiteSpace=wrap;rounded=0;" vertex="1" parent="1">
          <mxGeometry x="238.89" y="382.5" width="40" height="15" as="geometry" />
        </mxCell>
        <mxCell id="2PSIv375vWKUNVYXCOfY-5" value="" style="endArrow=none;html=1;rounded=0;exitX=0.53;exitY=-0.005;exitDx=0;exitDy=0;exitPerimeter=0;" edge="1" parent="1" source="f58gsHsqQCCzqT3UhdzD-7">
          <mxGeometry width="50" height="50" relative="1" as="geometry">
            <mxPoint x="-265" y="616.8800000000001" as="sourcePoint" />
            <mxPoint x="-215" y="566.8800000000001" as="targetPoint" />
          </mxGeometry>
        </mxCell>
        <mxCell id="2PSIv375vWKUNVYXCOfY-6" value="" style="endArrow=none;html=1;rounded=0;exitX=0.443;exitY=-0.018;exitDx=0;exitDy=0;exitPerimeter=0;" edge="1" parent="1" source="f58gsHsqQCCzqT3UhdzD-1">
          <mxGeometry width="50" height="50" relative="1" as="geometry">
            <mxPoint x="-89.11000000000001" y="374.98" as="sourcePoint" />
            <mxPoint x="-39.110000000000014" y="324.98" as="targetPoint" />
            <Array as="points">
              <mxPoint x="-287" y="324.5" />
            </Array>
          </mxGeometry>
        </mxCell>
        <mxCell id="2PSIv375vWKUNVYXCOfY-7" value="contiene" style="rhombus;whiteSpace=wrap;html=1;" vertex="1" parent="1">
          <mxGeometry x="-345" y="300" width="118" height="50" as="geometry" />
        </mxCell>
        <mxCell id="2PSIv375vWKUNVYXCOfY-8" value="" style="endArrow=none;html=1;rounded=0;" edge="1" parent="1">
          <mxGeometry width="50" height="50" relative="1" as="geometry">
            <mxPoint x="-31" y="397.49" as="sourcePoint" />
            <mxPoint x="52.879999999999995" y="397.49" as="targetPoint" />
            <Array as="points">
              <mxPoint x="-31" y="377.49" />
              <mxPoint x="53" y="377.49" />
            </Array>
          </mxGeometry>
        </mxCell>
        <mxCell id="2PSIv375vWKUNVYXCOfY-9" value="online" style="rounded=0;whiteSpace=wrap;html=1;" vertex="1" parent="1">
          <mxGeometry x="-67" y="397.5" width="70" height="30" as="geometry" />
        </mxCell>
        <mxCell id="2PSIv375vWKUNVYXCOfY-10" value="in negozio" style="rounded=0;whiteSpace=wrap;html=1;" vertex="1" parent="1">
          <mxGeometry x="23" y="397.5" width="70" height="30" as="geometry" />
        </mxCell>
        <mxCell id="2PSIv375vWKUNVYXCOfY-13" value="" style="endArrow=none;html=1;rounded=0;" edge="1" parent="1">
          <mxGeometry width="50" height="50" relative="1" as="geometry">
            <mxPoint x="-57" y="345.25" as="sourcePoint" />
            <mxPoint x="-39.110000000000014" y="344.75" as="targetPoint" />
          </mxGeometry>
        </mxCell>
        <mxCell id="2PSIv375vWKUNVYXCOfY-14" value="" style="ellipse;whiteSpace=wrap;html=1;" vertex="1" parent="1">
          <mxGeometry x="-67" y="340" width="10" height="10" as="geometry" />
        </mxCell>
        <mxCell id="2PSIv375vWKUNVYXCOfY-15" value="totale" style="text;html=1;align=center;verticalAlign=middle;whiteSpace=wrap;rounded=0;" vertex="1" parent="1">
          <mxGeometry x="-117" y="330" width="60" height="30" as="geometry" />
        </mxCell>
        <mxCell id="2PSIv375vWKUNVYXCOfY-19" value="" style="shape=flexArrow;endArrow=classic;html=1;rounded=0;strokeColor=#000000;fillColor=#000000;endWidth=17.142857142857142;endSize=3.571428571428571;entryX=0.5;entryY=1;entryDx=0;entryDy=0;" edge="1" parent="1">
          <mxGeometry width="50" height="50" relative="1" as="geometry">
            <mxPoint x="339.65999999999997" y="377" as="sourcePoint" />
            <mxPoint x="339.65999999999997" y="350" as="targetPoint" />
          </mxGeometry>
        </mxCell>
        <mxCell id="2PSIv375vWKUNVYXCOfY-20" value="METTI TU GLI ATTRIBUTI" style="text;html=1;align=center;verticalAlign=middle;whiteSpace=wrap;rounded=0;fontColor=#FF0000;" vertex="1" parent="1">
          <mxGeometry x="-60.120000000000005" y="427.5" width="170.12" height="30" as="geometry" />
        </mxCell>
        <mxCell id="2PSIv375vWKUNVYXCOfY-21" value="" style="endArrow=none;html=1;rounded=0;exitX=1;exitY=0.5;exitDx=0;exitDy=0;" edge="1" parent="1">
          <mxGeometry width="50" height="50" relative="1" as="geometry">
            <mxPoint x="-225" y="477.5" as="sourcePoint" />
            <mxPoint x="-67" y="477.5" as="targetPoint" />
          </mxGeometry>
        </mxCell>
        <mxCell id="2PSIv375vWKUNVYXCOfY-22" value="fornito" style="rhombus;whiteSpace=wrap;html=1;" vertex="1" parent="1">
          <mxGeometry x="-107" y="457.5" width="100" height="40" as="geometry" />
        </mxCell>
        <mxCell id="2PSIv375vWKUNVYXCOfY-23" value="" style="endArrow=none;html=1;rounded=0;entryX=0;entryY=1;entryDx=0;entryDy=0;exitX=1;exitY=0;exitDx=0;exitDy=0;" edge="1" parent="1" source="f58gsHsqQCCzqT3UhdzD-105" target="2PSIv375vWKUNVYXCOfY-30">
          <mxGeometry width="50" height="50" relative="1" as="geometry">
            <mxPoint x="53" y="540.5" as="sourcePoint" />
            <mxPoint x="29.590000000000032" y="514.9999999999998" as="targetPoint" />
          </mxGeometry>
        </mxCell>
        <mxCell id="2PSIv375vWKUNVYXCOfY-24" value="" style="endArrow=none;html=1;rounded=0;exitX=1;exitY=0.5;exitDx=0;exitDy=0;" edge="1" parent="1" source="2PSIv375vWKUNVYXCOfY-22">
          <mxGeometry width="50" height="50" relative="1" as="geometry">
            <mxPoint x="-7" y="477.5" as="sourcePoint" />
            <mxPoint x="153" y="477.5" as="targetPoint" />
          </mxGeometry>
        </mxCell>
        <mxCell id="2PSIv375vWKUNVYXCOfY-25" value="Fornitore" style="rounded=0;whiteSpace=wrap;html=1;" vertex="1" parent="1">
          <mxGeometry x="153.02999999999997" y="457.5" width="93.72" height="40" as="geometry" />
        </mxCell>
        <mxCell id="2PSIv375vWKUNVYXCOfY-27" value="(0, 1)" style="text;html=1;align=center;verticalAlign=middle;whiteSpace=wrap;rounded=0;" vertex="1" parent="1">
          <mxGeometry x="-202" y="452.51" width="60" height="30" as="geometry" />
        </mxCell>
        <mxCell id="2PSIv375vWKUNVYXCOfY-28" value="(0, N)" style="text;html=1;align=center;verticalAlign=middle;whiteSpace=wrap;rounded=0;" vertex="1" parent="1">
          <mxGeometry x="42.879999999999995" y="452.51" width="60" height="30" as="geometry" />
        </mxCell>
        <mxCell id="2PSIv375vWKUNVYXCOfY-29" value="" style="endArrow=none;html=1;rounded=0;" edge="1" parent="1">
          <mxGeometry width="50" height="50" relative="1" as="geometry">
            <mxPoint x="75.07999999999993" y="518.25" as="sourcePoint" />
            <mxPoint x="73.69000000000005" y="574.5" as="targetPoint" />
            <Array as="points">
              <mxPoint x="73.69000000000005" y="517.5" />
            </Array>
          </mxGeometry>
        </mxCell>
        <mxCell id="2PSIv375vWKUNVYXCOfY-31" value="" style="endArrow=none;html=1;rounded=0;" edge="1" parent="1" target="2PSIv375vWKUNVYXCOfY-30">
          <mxGeometry width="50" height="50" relative="1" as="geometry">
            <mxPoint x="-225" y="510" as="sourcePoint" />
            <mxPoint x="73" y="567.5" as="targetPoint" />
            <Array as="points" />
          </mxGeometry>
        </mxCell>
        <mxCell id="2PSIv375vWKUNVYXCOfY-30" value="situato" style="rhombus;whiteSpace=wrap;html=1;" vertex="1" parent="1">
          <mxGeometry x="27.889999999999986" y="487.5" width="93" height="47.5" as="geometry" />
        </mxCell>
        <mxCell id="2PSIv375vWKUNVYXCOfY-32" value="Magazzino" style="rounded=0;whiteSpace=wrap;html=1;" vertex="1" parent="1">
          <mxGeometry x="14.389999999999986" y="567.5" width="120" height="60" as="geometry" />
        </mxCell>
        <mxCell id="2PSIv375vWKUNVYXCOfY-34" value="(0, N)" style="text;html=1;align=center;verticalAlign=middle;whiteSpace=wrap;rounded=0;" vertex="1" parent="1">
          <mxGeometry x="-186" y="492.5" width="69" height="15" as="geometry" />
        </mxCell>
        <mxCell id="2PSIv375vWKUNVYXCOfY-35" value="(0, N)" style="text;html=1;align=center;verticalAlign=middle;whiteSpace=wrap;rounded=0;" vertex="1" parent="1">
          <mxGeometry x="60.889999999999986" y="537.5" width="60" height="30" as="geometry" />
        </mxCell>
        <mxCell id="nDVGE6IldIYNL9bVj9hP-1" value="(1,1)" style="text;html=1;align=center;verticalAlign=middle;whiteSpace=wrap;rounded=0;fillColor=#dae8fc;strokeColor=#6c8ebf;" vertex="1" parent="1">
          <mxGeometry x="81.88999999999999" y="290.01" width="55" height="20.01" as="geometry" />
        </mxCell>
        <mxCell id="nDVGE6IldIYNL9bVj9hP-2" value="(1,1)" style="text;html=1;align=center;verticalAlign=middle;whiteSpace=wrap;rounded=0;fillColor=#dae8fc;strokeColor=#6c8ebf;" vertex="1" parent="1">
          <mxGeometry x="261.89" y="289.99" width="55" height="20.01" as="geometry" />
        </mxCell>
        <mxCell id="2PSIv375vWKUNVYXCOfY-36" value="" style="endArrow=none;html=1;rounded=0;exitX=1;exitY=0.5;exitDx=0;exitDy=0;" edge="1" parent="1" source="2PSIv375vWKUNVYXCOfY-37">
          <mxGeometry width="50" height="50" relative="1" as="geometry">
            <mxPoint x="316.89" y="547.5" as="sourcePoint" />
            <mxPoint x="426.8900000000001" y="350" as="targetPoint" />
            <Array as="points">
              <mxPoint x="427" y="550.5" />
            </Array>
          </mxGeometry>
        </mxCell>
        <mxCell id="2PSIv375vWKUNVYXCOfY-37" value="registrato" style="rhombus;whiteSpace=wrap;html=1;" vertex="1" parent="1">
          <mxGeometry x="226.11" y="530" width="115.9" height="40" as="geometry" />
        </mxCell>
        <mxCell id="2PSIv375vWKUNVYXCOfY-38" value="Registrazione" style="rounded=0;whiteSpace=wrap;html=1;" vertex="1" parent="1">
          <mxGeometry x="244.05999999999995" y="600.01" width="80" height="26.24" as="geometry" />
        </mxCell>
        <mxCell id="2PSIv375vWKUNVYXCOfY-40" value="" style="ellipse;whiteSpace=wrap;html=1;fillColor=#000000;" vertex="1" parent="1">
          <mxGeometry x="-432" y="367.5" width="10.5" height="10" as="geometry" />
        </mxCell>
        <mxCell id="2PSIv375vWKUNVYXCOfY-41" value="" style="endArrow=none;html=1;rounded=0;entryX=0.5;entryY=1;entryDx=0;entryDy=0;" edge="1" parent="1" target="f58gsHsqQCCzqT3UhdzD-79">
          <mxGeometry width="50" height="50" relative="1" as="geometry">
            <mxPoint x="-477" y="397.5" as="sourcePoint" />
            <mxPoint x="-407" y="347.5" as="targetPoint" />
          </mxGeometry>
        </mxCell>
        <mxCell id="2PSIv375vWKUNVYXCOfY-42" value="" style="endArrow=none;html=1;rounded=0;entryX=0.5;entryY=1;entryDx=0;entryDy=0;exitX=0.482;exitY=-0.008;exitDx=0;exitDy=0;exitPerimeter=0;" edge="1" parent="1" source="f58gsHsqQCCzqT3UhdzD-41" target="f58gsHsqQCCzqT3UhdzD-71">
          <mxGeometry width="50" height="50" relative="1" as="geometry">
            <mxPoint x="-457" y="397.5" as="sourcePoint" />
            <mxPoint x="-407" y="347.5" as="targetPoint" />
          </mxGeometry>
        </mxCell>
        <mxCell id="2PSIv375vWKUNVYXCOfY-43" value="" style="endArrow=none;html=1;rounded=0;exitX=0.829;exitY=0.003;exitDx=0;exitDy=0;exitPerimeter=0;" edge="1" parent="1" source="f58gsHsqQCCzqT3UhdzD-41">
          <mxGeometry width="50" height="50" relative="1" as="geometry">
            <mxPoint x="-477" y="427.5" as="sourcePoint" />
            <mxPoint x="-427" y="377.5" as="targetPoint" />
          </mxGeometry>
        </mxCell>
        <mxCell id="2PSIv375vWKUNVYXCOfY-44" value="" style="endArrow=none;html=1;rounded=0;exitX=0.5;exitY=0;exitDx=0;exitDy=0;" edge="1" parent="1" source="2PSIv375vWKUNVYXCOfY-38">
          <mxGeometry width="50" height="50" relative="1" as="geometry">
            <mxPoint x="233.89" y="620" as="sourcePoint" />
            <mxPoint x="283.89" y="570" as="targetPoint" />
          </mxGeometry>
        </mxCell>
        <mxCell id="2PSIv375vWKUNVYXCOfY-47" value="" style="ellipse;whiteSpace=wrap;html=1;aspect=fixed;" vertex="1" parent="1">
          <mxGeometry x="200.38999999999996" y="727.5" width="10" height="10" as="geometry" />
        </mxCell>
        <mxCell id="2PSIv375vWKUNVYXCOfY-48" value="" style="endArrow=none;html=1;rounded=0;" edge="1" parent="1">
          <mxGeometry width="50" height="50" relative="1" as="geometry">
            <mxPoint x="205.36999999999998" y="727.5" as="sourcePoint" />
            <mxPoint x="205.25999999999996" y="701.26" as="targetPoint" />
          </mxGeometry>
        </mxCell>
        <mxCell id="2PSIv375vWKUNVYXCOfY-50" value="password" style="text;html=1;align=center;verticalAlign=middle;whiteSpace=wrap;rounded=0;" vertex="1" parent="1">
          <mxGeometry x="195.88999999999996" y="732.5" width="60" height="30" as="geometry" />
        </mxCell>
        <mxCell id="2PSIv375vWKUNVYXCOfY-51" value="" style="shape=flexArrow;endArrow=classic;html=1;rounded=0;strokeColor=#000000;fillColor=#000000;endWidth=17.142857142857142;endSize=3.571428571428571;entryX=0.5;entryY=1;entryDx=0;entryDy=0;" edge="1" parent="1">
          <mxGeometry width="50" height="50" relative="1" as="geometry">
            <mxPoint x="284.05999999999995" y="653.25" as="sourcePoint" />
            <mxPoint x="284.05999999999995" y="626.25" as="targetPoint" />
          </mxGeometry>
        </mxCell>
        <mxCell id="2PSIv375vWKUNVYXCOfY-52" value="" style="endArrow=none;html=1;rounded=0;" edge="1" parent="1">
          <mxGeometry width="50" height="50" relative="1" as="geometry">
            <mxPoint x="244.05999999999995" y="673.24" as="sourcePoint" />
            <mxPoint x="327.94000000000005" y="673.24" as="targetPoint" />
            <Array as="points">
              <mxPoint x="244.05999999999995" y="653.24" />
              <mxPoint x="328.05999999999995" y="653.24" />
            </Array>
          </mxGeometry>
        </mxCell>
        <mxCell id="2PSIv375vWKUNVYXCOfY-53" value="online" style="rounded=0;whiteSpace=wrap;html=1;" vertex="1" parent="1">
          <mxGeometry x="198.01" y="672.5" width="80" height="30" as="geometry" />
        </mxCell>
        <mxCell id="2PSIv375vWKUNVYXCOfY-54" value="carta fedeltà" style="rounded=0;whiteSpace=wrap;html=1;" vertex="1" parent="1">
          <mxGeometry x="297.01" y="672.5" width="80" height="30" as="geometry" />
        </mxCell>
        <mxCell id="2PSIv375vWKUNVYXCOfY-55" value="(0, 1)" style="text;html=1;align=center;verticalAlign=middle;whiteSpace=wrap;rounded=0;" vertex="1" parent="1">
          <mxGeometry x="417.01" y="457.5" width="60" height="30" as="geometry" />
        </mxCell>
        <mxCell id="2PSIv375vWKUNVYXCOfY-56" value="(1, 1)" style="text;html=1;align=center;verticalAlign=middle;whiteSpace=wrap;rounded=0;" vertex="1" parent="1">
          <mxGeometry x="272.01" y="570" width="60" height="30" as="geometry" />
        </mxCell>
        <mxCell id="2PSIv375vWKUNVYXCOfY-57" value="ATTRIBUTI POSSIBILI&lt;div&gt;&lt;br&gt;&lt;/div&gt;&lt;div&gt;CARTA: id, codice fedeltà, punti accumulati&lt;/div&gt;" style="text;html=1;align=center;verticalAlign=middle;whiteSpace=wrap;rounded=0;fontColor=#FF0000;" vertex="1" parent="1">
          <mxGeometry x="23" y="652.5" width="170" height="80" as="geometry" />
        </mxCell>
        <mxCell id="2PSIv375vWKUNVYXCOfY-58" value="" style="endArrow=none;html=1;rounded=0;" edge="1" parent="1">
          <mxGeometry width="50" height="50" relative="1" as="geometry">
            <mxPoint x="324.06" y="612.96" as="sourcePoint" />
            <mxPoint x="340" y="612.96" as="targetPoint" />
          </mxGeometry>
        </mxCell>
        <mxCell id="EGNzemmNI1gHmbtGjuHe-1" value="Prodotto" style="rounded=0;whiteSpace=wrap;html=1;" vertex="1" parent="1">
          <mxGeometry x="-320" y="1177.4999999999998" width="115" height="50" as="geometry" />
        </mxCell>
        <mxCell id="EGNzemmNI1gHmbtGjuHe-2" value="" style="shape=flexArrow;endArrow=classic;html=1;rounded=0;entryX=0.5;entryY=1;entryDx=0;entryDy=0;strokeColor=#000000;fillColor=#000000;" edge="1" parent="1">
          <mxGeometry width="50" height="50" relative="1" as="geometry">
            <mxPoint x="-263.32" y="1277.4999999999998" as="sourcePoint" />
            <mxPoint x="-263.32" y="1227.4999999999998" as="targetPoint" />
          </mxGeometry>
        </mxCell>
        <mxCell id="EGNzemmNI1gHmbtGjuHe-3" value="" style="endArrow=none;html=1;rounded=0;" edge="1" parent="1">
          <mxGeometry width="50" height="50" relative="1" as="geometry">
            <mxPoint x="-375" y="1277.4999999999998" as="sourcePoint" />
            <mxPoint x="-190" y="1277" as="targetPoint" />
          </mxGeometry>
        </mxCell>
        <mxCell id="EGNzemmNI1gHmbtGjuHe-4" value="" style="endArrow=none;html=1;rounded=0;" edge="1" parent="1">
          <mxGeometry width="50" height="50" relative="1" as="geometry">
            <mxPoint x="-295" y="1277.4999999999998" as="sourcePoint" />
            <mxPoint x="-295" y="1296.2499999999998" as="targetPoint" />
          </mxGeometry>
        </mxCell>
        <mxCell id="EGNzemmNI1gHmbtGjuHe-6" value="bustina" style="rounded=0;whiteSpace=wrap;html=1;" vertex="1" parent="1">
          <mxGeometry x="-325" y="1296.2499999999998" width="78" height="51.25" as="geometry" />
        </mxCell>
        <mxCell id="EGNzemmNI1gHmbtGjuHe-7" value="bundle ufficiale" style="rounded=0;whiteSpace=wrap;html=1;" vertex="1" parent="1">
          <mxGeometry x="-237.99" y="1295.6299999999999" width="80.99" height="51.87" as="geometry" />
        </mxCell>
        <mxCell id="EGNzemmNI1gHmbtGjuHe-8" value="" style="endArrow=none;html=1;rounded=0;startArrow=none;startFill=0;edgeStyle=orthogonalEdgeStyle;" edge="1" parent="1">
          <mxGeometry width="50" height="50" relative="1" as="geometry">
            <mxPoint x="-375" y="1277.4999999999998" as="sourcePoint" />
            <mxPoint x="-375" y="1296.4999999999998" as="targetPoint" />
          </mxGeometry>
        </mxCell>
        <mxCell id="EGNzemmNI1gHmbtGjuHe-9" value="carta singola" style="rounded=0;whiteSpace=wrap;html=1;" vertex="1" parent="1">
          <mxGeometry x="-435" y="1296.2499999999998" width="100" height="51.25" as="geometry" />
        </mxCell>
        <mxCell id="EGNzemmNI1gHmbtGjuHe-10" value="blister" style="rounded=0;whiteSpace=wrap;html=1;" vertex="1" parent="1">
          <mxGeometry x="-312" y="1502" width="80" height="51.87" as="geometry" />
        </mxCell>
        <mxCell id="EGNzemmNI1gHmbtGjuHe-12" value="" style="endArrow=none;html=1;rounded=0;exitX=0;exitY=1;exitDx=0;exitDy=0;" edge="1" parent="1" source="EGNzemmNI1gHmbtGjuHe-9" target="EGNzemmNI1gHmbtGjuHe-13">
          <mxGeometry width="50" height="50" relative="1" as="geometry">
            <mxPoint x="-374.28" y="1387.76" as="sourcePoint" />
            <mxPoint x="-140.00000000000003" y="1411.1399999999999" as="targetPoint" />
          </mxGeometry>
        </mxCell>
        <mxCell id="EGNzemmNI1gHmbtGjuHe-13" value="" style="ellipse;whiteSpace=wrap;html=1;aspect=fixed;fillColor=#FFFFFF;strokeColor=#000000;" vertex="1" parent="1">
          <mxGeometry x="-457" y="1366.8799999999999" width="10" height="10" as="geometry" />
        </mxCell>
        <mxCell id="EGNzemmNI1gHmbtGjuHe-14" value="nome" style="text;html=1;align=center;verticalAlign=middle;whiteSpace=wrap;rounded=0;" vertex="1" parent="1">
          <mxGeometry x="-470" y="1378.69" width="30" height="8.13" as="geometry" />
        </mxCell>
        <mxCell id="EGNzemmNI1gHmbtGjuHe-15" value="" style="shape=flexArrow;endArrow=classic;html=1;rounded=0;entryX=0;entryY=0.5;entryDx=0;entryDy=0;strokeColor=#000000;fillColor=none;exitX=1;exitY=0.5;exitDx=0;exitDy=0;" edge="1" parent="1" source="EGNzemmNI1gHmbtGjuHe-17" target="EGNzemmNI1gHmbtGjuHe-9">
          <mxGeometry width="50" height="50" relative="1" as="geometry">
            <mxPoint x="-619.81" y="1363.1299999999999" as="sourcePoint" />
            <mxPoint x="-620" y="1321.8799999999999" as="targetPoint" />
          </mxGeometry>
        </mxCell>
        <mxCell id="EGNzemmNI1gHmbtGjuHe-16" value="condizione" style="text;html=1;align=center;verticalAlign=middle;whiteSpace=wrap;rounded=0;" vertex="1" parent="1">
          <mxGeometry x="-328" y="1378.8799999999999" width="30" height="12.5" as="geometry" />
        </mxCell>
        <mxCell id="EGNzemmNI1gHmbtGjuHe-17" value="carta gradata" style="rounded=0;whiteSpace=wrap;html=1;" vertex="1" parent="1">
          <mxGeometry x="-590" y="1296.8799999999997" width="100" height="50" as="geometry" />
        </mxCell>
        <mxCell id="EGNzemmNI1gHmbtGjuHe-18" value="" style="endArrow=none;html=1;rounded=0;entryX=0;entryY=0.5;entryDx=0;entryDy=0;exitX=1;exitY=0.5;exitDx=0;exitDy=0;" edge="1" parent="1" source="EGNzemmNI1gHmbtGjuHe-19" target="EGNzemmNI1gHmbtGjuHe-1">
          <mxGeometry width="50" height="50" relative="1" as="geometry">
            <mxPoint x="-385" y="1202.4999999999998" as="sourcePoint" />
            <mxPoint x="-345" y="1187.4999999999998" as="targetPoint" />
          </mxGeometry>
        </mxCell>
        <mxCell id="EGNzemmNI1gHmbtGjuHe-19" value="appartiene" style="rhombus;whiteSpace=wrap;html=1;" vertex="1" parent="1">
          <mxGeometry x="-520" y="1142.4999999999998" width="90" height="45" as="geometry" />
        </mxCell>
        <mxCell id="EGNzemmNI1gHmbtGjuHe-20" value="(1,1)" style="text;html=1;align=center;verticalAlign=middle;whiteSpace=wrap;rounded=0;fillColor=#dae8fc;strokeColor=#6c8ebf;" vertex="1" parent="1">
          <mxGeometry x="-368.5" y="1186.2499999999998" width="40" height="10" as="geometry" />
        </mxCell>
        <mxCell id="EGNzemmNI1gHmbtGjuHe-21" value="" style="endArrow=none;html=1;rounded=0;exitX=0.611;exitY=1.017;exitDx=0;exitDy=0;exitPerimeter=0;entryX=0.5;entryY=0;entryDx=0;entryDy=0;" edge="1" parent="1" source="EGNzemmNI1gHmbtGjuHe-22" target="EGNzemmNI1gHmbtGjuHe-19">
          <mxGeometry width="50" height="50" relative="1" as="geometry">
            <mxPoint x="-431" y="1147.4999999999998" as="sourcePoint" />
            <mxPoint x="-430.72" y="1180" as="targetPoint" />
          </mxGeometry>
        </mxCell>
        <mxCell id="EGNzemmNI1gHmbtGjuHe-22" value="espansione" style="rounded=0;whiteSpace=wrap;html=1;" vertex="1" parent="1">
          <mxGeometry x="-533" y="1072.5099999999998" width="71" height="40" as="geometry" />
        </mxCell>
        <mxCell id="EGNzemmNI1gHmbtGjuHe-23" value="(0, N)" style="text;html=1;align=center;verticalAlign=middle;whiteSpace=wrap;rounded=0;" vertex="1" parent="1">
          <mxGeometry x="-540" y="1117.4999999999998" width="40" height="10" as="geometry" />
        </mxCell>
        <mxCell id="EGNzemmNI1gHmbtGjuHe-25" value="" style="endArrow=none;html=1;rounded=0;entryX=0.5;entryY=0;entryDx=0;entryDy=0;exitX=0.593;exitY=0.997;exitDx=0;exitDy=0;exitPerimeter=0;" edge="1" parent="1" source="EGNzemmNI1gHmbtGjuHe-9" target="EGNzemmNI1gHmbtGjuHe-26">
          <mxGeometry width="50" height="50" relative="1" as="geometry">
            <mxPoint x="-360" y="1350" as="sourcePoint" />
            <mxPoint x="-369.28" y="1411.89" as="targetPoint" />
          </mxGeometry>
        </mxCell>
        <mxCell id="EGNzemmNI1gHmbtGjuHe-26" value="" style="ellipse;whiteSpace=wrap;html=1;" vertex="1" parent="1">
          <mxGeometry x="-378.5" y="1369.4999999999998" width="10" height="10" as="geometry" />
        </mxCell>
        <mxCell id="EGNzemmNI1gHmbtGjuHe-27" value="" style="endArrow=none;html=1;rounded=0;exitX=0.13;exitY=1.003;exitDx=0;exitDy=0;exitPerimeter=0;entryX=0.5;entryY=0;entryDx=0;entryDy=0;" edge="1" parent="1" source="EGNzemmNI1gHmbtGjuHe-9" target="EGNzemmNI1gHmbtGjuHe-28">
          <mxGeometry width="50" height="50" relative="1" as="geometry">
            <mxPoint x="-399.28" y="1399.01" as="sourcePoint" />
            <mxPoint x="-369.28" y="1398.76" as="targetPoint" />
          </mxGeometry>
        </mxCell>
        <mxCell id="EGNzemmNI1gHmbtGjuHe-28" value="" style="ellipse;whiteSpace=wrap;html=1;" vertex="1" parent="1">
          <mxGeometry x="-427" y="1367.6299999999999" width="10" height="10" as="geometry" />
        </mxCell>
        <mxCell id="EGNzemmNI1gHmbtGjuHe-29" value="" style="endArrow=none;html=1;rounded=0;exitX=0.897;exitY=1.009;exitDx=0;exitDy=0;exitPerimeter=0;entryX=0;entryY=0;entryDx=0;entryDy=0;" edge="1" parent="1" source="EGNzemmNI1gHmbtGjuHe-9" target="EGNzemmNI1gHmbtGjuHe-30">
          <mxGeometry width="50" height="50" relative="1" as="geometry">
            <mxPoint x="-399" y="1429" as="sourcePoint" />
            <mxPoint x="-369.28" y="1428.8799999999999" as="targetPoint" />
          </mxGeometry>
        </mxCell>
        <mxCell id="EGNzemmNI1gHmbtGjuHe-30" value="" style="ellipse;whiteSpace=wrap;html=1;" vertex="1" parent="1">
          <mxGeometry x="-338.5" y="1368.25" width="10" height="12.5" as="geometry" />
        </mxCell>
        <mxCell id="EGNzemmNI1gHmbtGjuHe-31" value="numero" style="text;html=1;align=center;verticalAlign=middle;whiteSpace=wrap;rounded=0;" vertex="1" parent="1">
          <mxGeometry x="-430" y="1378.56" width="42" height="8.13" as="geometry" />
        </mxCell>
        <mxCell id="EGNzemmNI1gHmbtGjuHe-32" value="prezzo" style="text;html=1;align=center;verticalAlign=middle;whiteSpace=wrap;rounded=0;" vertex="1" parent="1">
          <mxGeometry x="-385" y="1379.5" width="45" height="11.26" as="geometry" />
        </mxCell>
        <mxCell id="EGNzemmNI1gHmbtGjuHe-33" value="ID" style="text;html=1;align=center;verticalAlign=middle;whiteSpace=wrap;rounded=0;" vertex="1" parent="1">
          <mxGeometry x="-462.5" y="1127.4999999999998" width="10" height="10" as="geometry" />
        </mxCell>
        <mxCell id="EGNzemmNI1gHmbtGjuHe-34" value="" style="ellipse;whiteSpace=wrap;html=1;" vertex="1" parent="1">
          <mxGeometry x="-515" y="1024.9999999999998" width="10" height="10" as="geometry" />
        </mxCell>
        <mxCell id="EGNzemmNI1gHmbtGjuHe-35" value="data uscita" style="text;html=1;align=center;verticalAlign=middle;whiteSpace=wrap;rounded=0;" vertex="1" parent="1">
          <mxGeometry x="-525" y="995.0199999999998" width="40" height="30" as="geometry" />
        </mxCell>
        <mxCell id="EGNzemmNI1gHmbtGjuHe-36" value="(0, 1)" style="text;html=1;align=center;verticalAlign=middle;whiteSpace=wrap;rounded=0;" vertex="1" parent="1">
          <mxGeometry x="-370.5" y="1352.4999999999998" width="35" height="10" as="geometry" />
        </mxCell>
        <mxCell id="EGNzemmNI1gHmbtGjuHe-37" value="" style="ellipse;whiteSpace=wrap;html=1;" vertex="1" parent="1">
          <mxGeometry x="-545" y="1025.0199999999998" width="10" height="10" as="geometry" />
        </mxCell>
        <mxCell id="EGNzemmNI1gHmbtGjuHe-38" value="lingua" style="text;html=1;align=center;verticalAlign=middle;whiteSpace=wrap;rounded=0;" vertex="1" parent="1">
          <mxGeometry x="-560" y="1010.0199999999998" width="30" height="10" as="geometry" />
        </mxCell>
        <mxCell id="EGNzemmNI1gHmbtGjuHe-39" value="" style="ellipse;whiteSpace=wrap;html=1;" vertex="1" parent="1">
          <mxGeometry x="-585.72" y="1367.4999999999998" width="10" height="10" as="geometry" />
        </mxCell>
        <mxCell id="EGNzemmNI1gHmbtGjuHe-41" value="" style="ellipse;whiteSpace=wrap;html=1;" vertex="1" parent="1">
          <mxGeometry x="-505.72" y="1367.4999999999998" width="10" height="10" as="geometry" />
        </mxCell>
        <mxCell id="EGNzemmNI1gHmbtGjuHe-42" value="ente gradatore" style="text;html=1;align=center;verticalAlign=middle;whiteSpace=wrap;rounded=0;" vertex="1" parent="1">
          <mxGeometry x="-675.72" y="1471.9999999999998" width="45" height="30" as="geometry" />
        </mxCell>
        <mxCell id="EGNzemmNI1gHmbtGjuHe-43" value="voto" style="text;html=1;align=center;verticalAlign=middle;whiteSpace=wrap;rounded=0;" vertex="1" parent="1">
          <mxGeometry x="-515" y="1377.5" width="30" height="10.5" as="geometry" />
        </mxCell>
        <mxCell id="EGNzemmNI1gHmbtGjuHe-45" value="" style="endArrow=none;html=1;rounded=0;exitX=0.5;exitY=0;exitDx=0;exitDy=0;" edge="1" parent="1" source="EGNzemmNI1gHmbtGjuHe-39">
          <mxGeometry width="50" height="50" relative="1" as="geometry">
            <mxPoint x="-580.9" y="1377.4999999999998" as="sourcePoint" />
            <mxPoint x="-580.9" y="1347.4999999999998" as="targetPoint" />
            <Array as="points" />
          </mxGeometry>
        </mxCell>
        <mxCell id="EGNzemmNI1gHmbtGjuHe-47" value="" style="endArrow=none;html=1;rounded=0;exitX=0.5;exitY=0;exitDx=0;exitDy=0;" edge="1" parent="1">
          <mxGeometry width="50" height="50" relative="1" as="geometry">
            <mxPoint x="-500.53999999999996" y="1367.4999999999998" as="sourcePoint" />
            <mxPoint x="-500.72" y="1347.4999999999998" as="targetPoint" />
          </mxGeometry>
        </mxCell>
        <mxCell id="EGNzemmNI1gHmbtGjuHe-48" value="" style="ellipse;whiteSpace=wrap;html=1;" vertex="1" parent="1">
          <mxGeometry x="-112.49999999999999" y="1306.8799999999999" width="10" height="10" as="geometry" />
        </mxCell>
        <mxCell id="EGNzemmNI1gHmbtGjuHe-49" value="quantità" style="text;html=1;align=center;verticalAlign=middle;whiteSpace=wrap;rounded=0;" vertex="1" parent="1">
          <mxGeometry x="-141" y="1313.44" width="42" height="16.88" as="geometry" />
        </mxCell>
        <mxCell id="EGNzemmNI1gHmbtGjuHe-59" value="" style="endArrow=none;html=1;rounded=0;entryX=0;entryY=0.69;entryDx=0;entryDy=0;exitX=1;exitY=0.5;exitDx=0;exitDy=0;entryPerimeter=0;" edge="1" parent="1" source="EGNzemmNI1gHmbtGjuHe-60" target="EGNzemmNI1gHmbtGjuHe-1">
          <mxGeometry width="50" height="50" relative="1" as="geometry">
            <mxPoint x="-285" y="1387.4999999999998" as="sourcePoint" />
            <mxPoint x="-276" y="1347.4999999999998" as="targetPoint" />
          </mxGeometry>
        </mxCell>
        <mxCell id="EGNzemmNI1gHmbtGjuHe-60" value="applicazione" style="rhombus;whiteSpace=wrap;html=1;" vertex="1" parent="1">
          <mxGeometry x="-512.72" y="1219.9999999999998" width="82" height="50" as="geometry" />
        </mxCell>
        <mxCell id="EGNzemmNI1gHmbtGjuHe-62" value="(0, N)" style="text;html=1;align=center;verticalAlign=middle;whiteSpace=wrap;rounded=0;" vertex="1" parent="1">
          <mxGeometry x="-280" y="1349.4999999999998" width="60" height="30" as="geometry" />
        </mxCell>
        <mxCell id="EGNzemmNI1gHmbtGjuHe-64" value="Ordine" style="rounded=0;whiteSpace=wrap;html=1;" vertex="1" parent="1">
          <mxGeometry x="-19.110000000000014" y="1019.9999999999998" width="96" height="40" as="geometry" />
        </mxCell>
        <mxCell id="EGNzemmNI1gHmbtGjuHe-65" value="(0, N)" style="text;html=1;align=center;verticalAlign=middle;whiteSpace=wrap;rounded=0;" vertex="1" parent="1">
          <mxGeometry x="-302.99" y="1155.9999999999998" width="35.99" height="20" as="geometry" />
        </mxCell>
        <mxCell id="EGNzemmNI1gHmbtGjuHe-66" value="(1, N)" style="text;html=1;align=center;verticalAlign=middle;whiteSpace=wrap;rounded=0;" vertex="1" parent="1">
          <mxGeometry x="-137" y="1009.9999999999998" width="40" height="20" as="geometry" />
        </mxCell>
        <mxCell id="EGNzemmNI1gHmbtGjuHe-67" value="" style="endArrow=none;html=1;rounded=0;" edge="1" parent="1" target="EGNzemmNI1gHmbtGjuHe-68">
          <mxGeometry width="50" height="50" relative="1" as="geometry">
            <mxPoint x="57.870000000000005" y="1019.9999999999998" as="sourcePoint" />
            <mxPoint x="57.870000000000005" y="999.9999999999998" as="targetPoint" />
          </mxGeometry>
        </mxCell>
        <mxCell id="EGNzemmNI1gHmbtGjuHe-68" value="" style="ellipse;whiteSpace=wrap;html=1;aspect=fixed;fillColor=#000000;" vertex="1" parent="1">
          <mxGeometry x="52.879999999999995" y="989.9999999999998" width="10" height="10" as="geometry" />
        </mxCell>
        <mxCell id="EGNzemmNI1gHmbtGjuHe-69" value="ID" style="text;html=1;align=center;verticalAlign=middle;whiteSpace=wrap;rounded=0;" vertex="1" parent="1">
          <mxGeometry x="47.889999999999986" y="969.3799999999999" width="20" height="11.25" as="geometry" />
        </mxCell>
        <mxCell id="EGNzemmNI1gHmbtGjuHe-70" value="" style="ellipse;whiteSpace=wrap;html=1;aspect=fixed;" vertex="1" parent="1">
          <mxGeometry x="21.879999999999995" y="989.9999999999998" width="10" height="10" as="geometry" />
        </mxCell>
        <mxCell id="EGNzemmNI1gHmbtGjuHe-72" value="" style="ellipse;whiteSpace=wrap;html=1;aspect=fixed;fillColor=light-dark(#FFFFFF,#EDEDED);strokeColor=#000000;" vertex="1" parent="1">
          <mxGeometry x="-212.99" y="1247.4999999999998" width="10" height="10" as="geometry" />
        </mxCell>
        <mxCell id="EGNzemmNI1gHmbtGjuHe-73" value="prezzo unitario" style="text;html=1;align=center;verticalAlign=middle;whiteSpace=wrap;rounded=0;" vertex="1" parent="1">
          <mxGeometry x="-210" y="1237.4999999999998" width="60" height="30" as="geometry" />
        </mxCell>
        <mxCell id="EGNzemmNI1gHmbtGjuHe-74" value="" style="endArrow=none;html=1;rounded=0;" edge="1" parent="1">
          <mxGeometry width="50" height="50" relative="1" as="geometry">
            <mxPoint x="-208.26999999999998" y="1227.4999999999998" as="sourcePoint" />
            <mxPoint x="-208.27999999999997" y="1247.4999999999998" as="targetPoint" />
          </mxGeometry>
        </mxCell>
        <mxCell id="EGNzemmNI1gHmbtGjuHe-76" value="data ordine" style="text;html=1;align=center;verticalAlign=middle;whiteSpace=wrap;rounded=0;" vertex="1" parent="1">
          <mxGeometry x="-5.1200000000000045" y="960" width="60" height="30" as="geometry" />
        </mxCell>
        <mxCell id="EGNzemmNI1gHmbtGjuHe-77" value="" style="endArrow=none;html=1;rounded=0;" edge="1" parent="1">
          <mxGeometry width="50" height="50" relative="1" as="geometry">
            <mxPoint x="26.559999999999945" y="999.9999999999998" as="sourcePoint" />
            <mxPoint x="26.549999999999955" y="1019.9999999999998" as="targetPoint" />
          </mxGeometry>
        </mxCell>
        <mxCell id="EGNzemmNI1gHmbtGjuHe-78" value="" style="endArrow=none;html=1;rounded=0;" edge="1" parent="1" target="EGNzemmNI1gHmbtGjuHe-79">
          <mxGeometry width="50" height="50" relative="1" as="geometry">
            <mxPoint x="-8.129999999999995" y="1019.9999999999998" as="sourcePoint" />
            <mxPoint x="-8.129999999999995" y="999.9999999999998" as="targetPoint" />
          </mxGeometry>
        </mxCell>
        <mxCell id="EGNzemmNI1gHmbtGjuHe-79" value="" style="ellipse;whiteSpace=wrap;html=1;aspect=fixed;" vertex="1" parent="1">
          <mxGeometry x="-13.120000000000005" y="989.9999999999998" width="10" height="10" as="geometry" />
        </mxCell>
        <mxCell id="EGNzemmNI1gHmbtGjuHe-80" value="stato" style="text;html=1;align=center;verticalAlign=middle;whiteSpace=wrap;rounded=0;" vertex="1" parent="1">
          <mxGeometry x="-40.120000000000005" y="960.0099999999998" width="60" height="30" as="geometry" />
        </mxCell>
        <mxCell id="EGNzemmNI1gHmbtGjuHe-81" value="" style="endArrow=none;html=1;rounded=0;" edge="1" parent="1">
          <mxGeometry width="50" height="50" relative="1" as="geometry">
            <mxPoint x="-345.5" y="1034.9999999999998" as="sourcePoint" />
            <mxPoint x="-323.49" y="1034.9999999999998" as="targetPoint" />
          </mxGeometry>
        </mxCell>
        <mxCell id="EGNzemmNI1gHmbtGjuHe-82" value="" style="ellipse;whiteSpace=wrap;html=1;" vertex="1" parent="1">
          <mxGeometry x="-353.5" y="1029.9999999999998" width="10" height="10" as="geometry" />
        </mxCell>
        <mxCell id="EGNzemmNI1gHmbtGjuHe-83" value="quantità" style="text;html=1;align=center;verticalAlign=middle;whiteSpace=wrap;rounded=0;" vertex="1" parent="1">
          <mxGeometry x="-410.5" y="1019.9999999999998" width="60" height="30" as="geometry" />
        </mxCell>
        <mxCell id="EGNzemmNI1gHmbtGjuHe-84" value="" style="endArrow=none;html=1;rounded=0;entryX=0;entryY=0.5;entryDx=0;entryDy=0;" edge="1" parent="1" target="EGNzemmNI1gHmbtGjuHe-85">
          <mxGeometry width="50" height="50" relative="1" as="geometry">
            <mxPoint x="76.88999999999999" y="1039.5999999999997" as="sourcePoint" />
            <mxPoint x="145.89" y="1039.5899999999997" as="targetPoint" />
          </mxGeometry>
        </mxCell>
        <mxCell id="EGNzemmNI1gHmbtGjuHe-85" value="effettuato da" style="rhombus;whiteSpace=wrap;html=1;" vertex="1" parent="1">
          <mxGeometry x="170.39" y="1019.9999999999998" width="99" height="40" as="geometry" />
        </mxCell>
        <mxCell id="EGNzemmNI1gHmbtGjuHe-86" value="" style="endArrow=none;html=1;rounded=0;entryX=0;entryY=0.5;entryDx=0;entryDy=0;exitX=1;exitY=0.5;exitDx=0;exitDy=0;" edge="1" parent="1" source="EGNzemmNI1gHmbtGjuHe-85" target="EGNzemmNI1gHmbtGjuHe-87">
          <mxGeometry width="50" height="50" relative="1" as="geometry">
            <mxPoint x="276.89" y="1040.0099999999998" as="sourcePoint" />
            <mxPoint x="355.89" y="1039.5799999999997" as="targetPoint" />
          </mxGeometry>
        </mxCell>
        <mxCell id="EGNzemmNI1gHmbtGjuHe-87" value="Cliente" style="rounded=0;whiteSpace=wrap;html=1;" vertex="1" parent="1">
          <mxGeometry x="349.01" y="1019.9999999999998" width="103.99" height="40" as="geometry" />
        </mxCell>
        <mxCell id="EGNzemmNI1gHmbtGjuHe-88" value="" style="endArrow=none;html=1;rounded=0;entryX=0.427;entryY=0.089;entryDx=0;entryDy=0;exitX=0.612;exitY=0;exitDx=0;exitDy=0;exitPerimeter=0;entryPerimeter=0;" edge="1" parent="1" source="EGNzemmNI1gHmbtGjuHe-90" target="EGNzemmNI1gHmbtGjuHe-91">
          <mxGeometry width="50" height="50" relative="1" as="geometry">
            <mxPoint x="291.01" y="1107.4999999999998" as="sourcePoint" />
            <mxPoint x="430.71000000000026" y="1107.4999999999998" as="targetPoint" />
            <Array as="points">
              <mxPoint x="298.89" y="1087.5099999999998" />
              <mxPoint x="394" y="1087.4999999999998" />
            </Array>
          </mxGeometry>
        </mxCell>
        <mxCell id="EGNzemmNI1gHmbtGjuHe-89" value="" style="shape=flexArrow;endArrow=classic;html=1;rounded=0;strokeColor=#000000;fillColor=#000000;endWidth=17.142857142857142;endSize=3.571428571428571;entryX=0.5;entryY=1;entryDx=0;entryDy=0;" edge="1" parent="1" target="EGNzemmNI1gHmbtGjuHe-64">
          <mxGeometry width="50" height="50" relative="1" as="geometry">
            <mxPoint x="29" y="1087.4999999999998" as="sourcePoint" />
            <mxPoint x="29" y="1067.4999999999998" as="targetPoint" />
          </mxGeometry>
        </mxCell>
        <mxCell id="EGNzemmNI1gHmbtGjuHe-90" value="Privato" style="rounded=0;whiteSpace=wrap;html=1;" vertex="1" parent="1">
          <mxGeometry x="253.01" y="1107.4999999999998" width="75" height="30" as="geometry" />
        </mxCell>
        <mxCell id="EGNzemmNI1gHmbtGjuHe-91" value="Azienda" style="rounded=0;whiteSpace=wrap;html=1;" vertex="1" parent="1">
          <mxGeometry x="362.01" y="1107.4999999999998" width="75" height="30" as="geometry" />
        </mxCell>
        <mxCell id="EGNzemmNI1gHmbtGjuHe-92" value="" style="ellipse;whiteSpace=wrap;html=1;aspect=fixed;fillColor=#000000;" vertex="1" parent="1">
          <mxGeometry x="352.01" y="990.0099999999998" width="10" height="10" as="geometry" />
        </mxCell>
        <mxCell id="EGNzemmNI1gHmbtGjuHe-93" value="" style="endArrow=none;html=1;rounded=0;exitX=0.036;exitY=-0.03;exitDx=0;exitDy=0;exitPerimeter=0;entryX=0.5;entryY=1;entryDx=0;entryDy=0;" edge="1" parent="1" target="EGNzemmNI1gHmbtGjuHe-92">
          <mxGeometry width="50" height="50" relative="1" as="geometry">
            <mxPoint x="356.89" y="1019.9999999999998" as="sourcePoint" />
            <mxPoint x="356.92999999999995" y="1001.1999999999998" as="targetPoint" />
          </mxGeometry>
        </mxCell>
        <mxCell id="EGNzemmNI1gHmbtGjuHe-94" value="ID" style="text;html=1;align=center;verticalAlign=middle;whiteSpace=wrap;rounded=0;" vertex="1" parent="1">
          <mxGeometry x="327.0099999999999" y="960.01" width="60" height="30" as="geometry" />
        </mxCell>
        <mxCell id="EGNzemmNI1gHmbtGjuHe-95" value="" style="endArrow=none;html=1;rounded=0;" edge="1" parent="1">
          <mxGeometry width="50" height="50" relative="1" as="geometry">
            <mxPoint x="231.01" y="1112.2999999999997" as="sourcePoint" />
            <mxPoint x="253.01" y="1112.2999999999997" as="targetPoint" />
          </mxGeometry>
        </mxCell>
        <mxCell id="EGNzemmNI1gHmbtGjuHe-96" value="" style="ellipse;whiteSpace=wrap;html=1;" vertex="1" parent="1">
          <mxGeometry x="220.89" y="1107.4999999999998" width="10" height="10" as="geometry" />
        </mxCell>
        <mxCell id="EGNzemmNI1gHmbtGjuHe-97" value="(0, 1)" style="text;html=1;align=center;verticalAlign=middle;whiteSpace=wrap;rounded=0;" vertex="1" parent="1">
          <mxGeometry x="101.88999999999999" y="1019.9999999999998" width="55" height="20.01" as="geometry" />
        </mxCell>
        <mxCell id="EGNzemmNI1gHmbtGjuHe-98" value="(1, N)" style="text;html=1;align=center;verticalAlign=middle;whiteSpace=wrap;rounded=0;" vertex="1" parent="1">
          <mxGeometry x="281.89" y="1020.0099999999998" width="55" height="20.01" as="geometry" />
        </mxCell>
        <mxCell id="EGNzemmNI1gHmbtGjuHe-99" value="nome" style="text;html=1;align=center;verticalAlign=middle;whiteSpace=wrap;rounded=0;" vertex="1" parent="1">
          <mxGeometry x="170.39" y="1097.4999999999998" width="60" height="30" as="geometry" />
        </mxCell>
        <mxCell id="EGNzemmNI1gHmbtGjuHe-100" value="" style="endArrow=none;html=1;rounded=0;exitX=1;exitY=1;exitDx=0;exitDy=0;" edge="1" parent="1">
          <mxGeometry width="50" height="50" relative="1" as="geometry">
            <mxPoint x="230.89" y="1127.4999999999995" as="sourcePoint" />
            <mxPoint x="252.89" y="1127.5099999999998" as="targetPoint" />
          </mxGeometry>
        </mxCell>
        <mxCell id="EGNzemmNI1gHmbtGjuHe-101" value="" style="ellipse;whiteSpace=wrap;html=1;" vertex="1" parent="1">
          <mxGeometry x="221.39" y="1122.5099999999998" width="10" height="10" as="geometry" />
        </mxCell>
        <mxCell id="EGNzemmNI1gHmbtGjuHe-102" value="e-mail" style="text;html=1;align=center;verticalAlign=middle;whiteSpace=wrap;rounded=0;" vertex="1" parent="1">
          <mxGeometry x="170.89" y="1112.5099999999998" width="60" height="30" as="geometry" />
        </mxCell>
        <mxCell id="EGNzemmNI1gHmbtGjuHe-103" value="" style="ellipse;whiteSpace=wrap;html=1;fontStyle=1" vertex="1" parent="1">
          <mxGeometry x="253.01" y="1087.4999999999998" width="10" height="10" as="geometry" />
        </mxCell>
        <mxCell id="EGNzemmNI1gHmbtGjuHe-104" value="" style="ellipse;whiteSpace=wrap;html=1;" vertex="1" parent="1">
          <mxGeometry x="-90.18999999999994" y="1122.4999999999998" width="10" height="10" as="geometry" />
        </mxCell>
        <mxCell id="EGNzemmNI1gHmbtGjuHe-105" value="" style="endArrow=none;html=1;rounded=0;fontStyle=1" edge="1" parent="1">
          <mxGeometry width="50" height="50" relative="1" as="geometry">
            <mxPoint x="257.80999999999995" y="1107.4999999999998" as="sourcePoint" />
            <mxPoint x="257.80999999999995" y="1097.4999999999998" as="targetPoint" />
          </mxGeometry>
        </mxCell>
        <mxCell id="EGNzemmNI1gHmbtGjuHe-106" value="telefono" style="text;html=1;align=center;verticalAlign=middle;whiteSpace=wrap;rounded=0;" vertex="1" parent="1">
          <mxGeometry x="208.89" y="1067.4899999999998" width="60" height="20.01" as="geometry" />
        </mxCell>
        <mxCell id="EGNzemmNI1gHmbtGjuHe-107" value="&lt;div style=&quot;line-height: 100%;&quot;&gt;indirizzo spedizione&lt;/div&gt;" style="text;html=1;align=center;verticalAlign=middle;whiteSpace=wrap;rounded=0;" vertex="1" parent="1">
          <mxGeometry x="-125.38" y="1132.4899999999998" width="78.38" height="30.02" as="geometry" />
        </mxCell>
        <mxCell id="EGNzemmNI1gHmbtGjuHe-108" value="" style="endArrow=none;html=1;rounded=0;exitX=1;exitY=0.5;exitDx=0;exitDy=0;entryX=0.033;entryY=0.643;entryDx=0;entryDy=0;entryPerimeter=0;" edge="1" parent="1" source="EGNzemmNI1gHmbtGjuHe-104" target="EGNzemmNI1gHmbtGjuHe-114">
          <mxGeometry width="50" height="50" relative="1" as="geometry">
            <mxPoint x="-85.18999999999994" y="1117.5099999999998" as="sourcePoint" />
            <mxPoint x="-85.18999999999994" y="1107.4999999999998" as="targetPoint" />
          </mxGeometry>
        </mxCell>
        <mxCell id="EGNzemmNI1gHmbtGjuHe-109" value="(0, 1)" style="text;html=1;align=center;verticalAlign=middle;whiteSpace=wrap;rounded=0;" vertex="1" parent="1">
          <mxGeometry x="258.89" y="1092.4999999999998" width="40" height="15" as="geometry" />
        </mxCell>
        <mxCell id="EGNzemmNI1gHmbtGjuHe-110" value="" style="endArrow=none;html=1;rounded=0;exitX=0.593;exitY=-0.014;exitDx=0;exitDy=0;exitPerimeter=0;" edge="1" parent="1" source="EGNzemmNI1gHmbtGjuHe-7">
          <mxGeometry width="50" height="50" relative="1" as="geometry">
            <mxPoint x="-189.96293000000003" y="1294.47862" as="sourcePoint" />
            <mxPoint x="-190" y="1277.5" as="targetPoint" />
          </mxGeometry>
        </mxCell>
        <mxCell id="EGNzemmNI1gHmbtGjuHe-111" value="" style="endArrow=none;html=1;rounded=0;exitX=0.443;exitY=-0.018;exitDx=0;exitDy=0;exitPerimeter=0;" edge="1" parent="1" source="EGNzemmNI1gHmbtGjuHe-1">
          <mxGeometry width="50" height="50" relative="1" as="geometry">
            <mxPoint x="-69.11000000000001" y="1084.9799999999998" as="sourcePoint" />
            <mxPoint x="-19.110000000000014" y="1034.9799999999998" as="targetPoint" />
            <Array as="points">
              <mxPoint x="-267" y="1034.4999999999998" />
            </Array>
          </mxGeometry>
        </mxCell>
        <mxCell id="EGNzemmNI1gHmbtGjuHe-112" value="composto" style="rhombus;whiteSpace=wrap;html=1;" vertex="1" parent="1">
          <mxGeometry x="-325" y="1009.9999999999998" width="118" height="50" as="geometry" />
        </mxCell>
        <mxCell id="EGNzemmNI1gHmbtGjuHe-113" value="" style="endArrow=none;html=1;rounded=0;" edge="1" parent="1">
          <mxGeometry width="50" height="50" relative="1" as="geometry">
            <mxPoint x="-11" y="1107.4899999999998" as="sourcePoint" />
            <mxPoint x="72.88" y="1107.4899999999998" as="targetPoint" />
            <Array as="points">
              <mxPoint x="-11" y="1087.4899999999998" />
              <mxPoint x="73" y="1087.4899999999998" />
            </Array>
          </mxGeometry>
        </mxCell>
        <mxCell id="EGNzemmNI1gHmbtGjuHe-114" value="online" style="rounded=0;whiteSpace=wrap;html=1;" vertex="1" parent="1">
          <mxGeometry x="-47" y="1107.4999999999998" width="70" height="30" as="geometry" />
        </mxCell>
        <mxCell id="EGNzemmNI1gHmbtGjuHe-115" value="in negozio" style="rounded=0;whiteSpace=wrap;html=1;" vertex="1" parent="1">
          <mxGeometry x="43" y="1107.4999999999998" width="70" height="30" as="geometry" />
        </mxCell>
        <mxCell id="EGNzemmNI1gHmbtGjuHe-116" value="" style="endArrow=none;html=1;rounded=0;" edge="1" parent="1">
          <mxGeometry width="50" height="50" relative="1" as="geometry">
            <mxPoint x="-37" y="1055.2499999999998" as="sourcePoint" />
            <mxPoint x="-19.110000000000014" y="1054.7499999999998" as="targetPoint" />
          </mxGeometry>
        </mxCell>
        <mxCell id="EGNzemmNI1gHmbtGjuHe-117" value="" style="ellipse;whiteSpace=wrap;html=1;" vertex="1" parent="1">
          <mxGeometry x="-47" y="1049.9999999999998" width="10" height="10" as="geometry" />
        </mxCell>
        <mxCell id="EGNzemmNI1gHmbtGjuHe-118" value="totale" style="text;html=1;align=center;verticalAlign=middle;whiteSpace=wrap;rounded=0;" vertex="1" parent="1">
          <mxGeometry x="-97" y="1039.9999999999998" width="60" height="30" as="geometry" />
        </mxCell>
        <mxCell id="EGNzemmNI1gHmbtGjuHe-119" value="" style="shape=flexArrow;endArrow=classic;html=1;rounded=0;strokeColor=#000000;fillColor=#000000;endWidth=17.142857142857142;endSize=3.571428571428571;entryX=0.5;entryY=1;entryDx=0;entryDy=0;" edge="1" parent="1">
          <mxGeometry width="50" height="50" relative="1" as="geometry">
            <mxPoint x="359.65999999999997" y="1086.9999999999998" as="sourcePoint" />
            <mxPoint x="359.65999999999997" y="1059.9999999999998" as="targetPoint" />
          </mxGeometry>
        </mxCell>
        <mxCell id="EGNzemmNI1gHmbtGjuHe-121" value="" style="endArrow=none;html=1;rounded=0;exitX=1;exitY=0.5;exitDx=0;exitDy=0;" edge="1" parent="1">
          <mxGeometry width="50" height="50" relative="1" as="geometry">
            <mxPoint x="-205" y="1187.4999999999998" as="sourcePoint" />
            <mxPoint x="-47" y="1187.4999999999998" as="targetPoint" />
          </mxGeometry>
        </mxCell>
        <mxCell id="EGNzemmNI1gHmbtGjuHe-122" value="fornito" style="rhombus;whiteSpace=wrap;html=1;" vertex="1" parent="1">
          <mxGeometry x="-87" y="1167.4999999999998" width="100" height="40" as="geometry" />
        </mxCell>
        <mxCell id="EGNzemmNI1gHmbtGjuHe-123" value="" style="endArrow=none;html=1;rounded=0;entryX=0;entryY=1;entryDx=0;entryDy=0;exitX=1;exitY=0;exitDx=0;exitDy=0;" edge="1" parent="1" source="EGNzemmNI1gHmbtGjuHe-48" target="EGNzemmNI1gHmbtGjuHe-130">
          <mxGeometry width="50" height="50" relative="1" as="geometry">
            <mxPoint x="-51.389999999999986" y="1322.9999999999998" as="sourcePoint" />
            <mxPoint x="-74.79999999999995" y="1297.4999999999995" as="targetPoint" />
          </mxGeometry>
        </mxCell>
        <mxCell id="EGNzemmNI1gHmbtGjuHe-124" value="" style="endArrow=none;html=1;rounded=0;exitX=1;exitY=0.5;exitDx=0;exitDy=0;entryX=0;entryY=0.5;entryDx=0;entryDy=0;" edge="1" parent="1" source="EGNzemmNI1gHmbtGjuHe-122" target="EGNzemmNI1gHmbtGjuHe-125">
          <mxGeometry width="50" height="50" relative="1" as="geometry">
            <mxPoint x="13" y="1187.4999999999998" as="sourcePoint" />
            <mxPoint x="173" y="1187.4999999999998" as="targetPoint" />
          </mxGeometry>
        </mxCell>
        <mxCell id="EGNzemmNI1gHmbtGjuHe-125" value="Fornitore" style="rounded=0;whiteSpace=wrap;html=1;" vertex="1" parent="1">
          <mxGeometry x="110.49999999999997" y="1190.6399999999999" width="93.72" height="40" as="geometry" />
        </mxCell>
        <mxCell id="EGNzemmNI1gHmbtGjuHe-126" value="(0, N)" style="text;html=1;align=center;verticalAlign=middle;whiteSpace=wrap;rounded=0;fillColor=#dae8fc;strokeColor=#6c8ebf;" vertex="1" parent="1">
          <mxGeometry x="-182" y="1162.51" width="52" height="17.49" as="geometry" />
        </mxCell>
        <mxCell id="EGNzemmNI1gHmbtGjuHe-127" value="(0, N)" style="text;html=1;align=center;verticalAlign=middle;whiteSpace=wrap;rounded=0;fillColor=#dae8fc;strokeColor=#6c8ebf;" vertex="1" parent="1">
          <mxGeometry x="30" y="1160.6299999999999" width="55.61" height="23.74" as="geometry" />
        </mxCell>
        <mxCell id="EGNzemmNI1gHmbtGjuHe-129" value="" style="endArrow=none;html=1;rounded=0;entryX=0;entryY=0.5;entryDx=0;entryDy=0;" edge="1" parent="1" target="EGNzemmNI1gHmbtGjuHe-130">
          <mxGeometry width="50" height="50" relative="1" as="geometry">
            <mxPoint x="-205" y="1219.9999999999998" as="sourcePoint" />
            <mxPoint x="93" y="1277.4999999999998" as="targetPoint" />
            <Array as="points" />
          </mxGeometry>
        </mxCell>
        <mxCell id="EGNzemmNI1gHmbtGjuHe-130" value="situato" style="rhombus;whiteSpace=wrap;html=1;" vertex="1" parent="1">
          <mxGeometry x="-112.11000000000001" y="1257.4999999999998" width="93" height="47.5" as="geometry" />
        </mxCell>
        <mxCell id="EGNzemmNI1gHmbtGjuHe-131" value="Magazzino" style="rounded=0;whiteSpace=wrap;html=1;" vertex="1" parent="1">
          <mxGeometry x="-104" y="1342.25" width="90" height="30.5" as="geometry" />
        </mxCell>
        <mxCell id="EGNzemmNI1gHmbtGjuHe-132" value="(0, N)" style="text;html=1;align=center;verticalAlign=middle;whiteSpace=wrap;rounded=0;fillColor=#d5e8d4;strokeColor=#82b366;" vertex="1" parent="1">
          <mxGeometry x="-186" y="1212.4999999999998" width="69" height="15" as="geometry" />
        </mxCell>
        <mxCell id="EGNzemmNI1gHmbtGjuHe-133" value="(0, N)" style="text;html=1;align=center;verticalAlign=middle;whiteSpace=wrap;rounded=0;fillColor=#d5e8d4;strokeColor=#82b366;" vertex="1" parent="1">
          <mxGeometry x="8.440000000000012" y="1324.38" width="40.89" height="22.5" as="geometry" />
        </mxCell>
        <mxCell id="EGNzemmNI1gHmbtGjuHe-134" value="(1,1)" style="text;html=1;align=center;verticalAlign=middle;whiteSpace=wrap;rounded=0;fillColor=#dae8fc;strokeColor=#6c8ebf;" vertex="1" parent="1">
          <mxGeometry x="101.88999999999999" y="1000.0099999999998" width="55" height="20.01" as="geometry" />
        </mxCell>
        <mxCell id="EGNzemmNI1gHmbtGjuHe-135" value="(1,1)" style="text;html=1;align=center;verticalAlign=middle;whiteSpace=wrap;rounded=0;fillColor=#dae8fc;strokeColor=#6c8ebf;" vertex="1" parent="1">
          <mxGeometry x="281.89" y="999.9899999999998" width="55" height="20.01" as="geometry" />
        </mxCell>
        <mxCell id="EGNzemmNI1gHmbtGjuHe-137" value="sottoscrive" style="rhombus;whiteSpace=wrap;html=1;" vertex="1" parent="1">
          <mxGeometry x="556.75" y="1019.9999999999998" width="115.9" height="40" as="geometry" />
        </mxCell>
        <mxCell id="EGNzemmNI1gHmbtGjuHe-138" value="Registrazione" style="rounded=0;whiteSpace=wrap;html=1;" vertex="1" parent="1">
          <mxGeometry x="574.6999999999999" y="1090.0099999999998" width="80" height="26.24" as="geometry" />
        </mxCell>
        <mxCell id="EGNzemmNI1gHmbtGjuHe-139" value="" style="ellipse;whiteSpace=wrap;html=1;fillColor=#000000;" vertex="1" parent="1">
          <mxGeometry x="-476.97" y="1127.4999999999998" width="10.5" height="10" as="geometry" />
        </mxCell>
        <mxCell id="EGNzemmNI1gHmbtGjuHe-140" value="" style="endArrow=none;html=1;rounded=0;entryX=0.5;entryY=1;entryDx=0;entryDy=0;exitX=0.127;exitY=0.009;exitDx=0;exitDy=0;exitPerimeter=0;" edge="1" parent="1" source="EGNzemmNI1gHmbtGjuHe-22" target="EGNzemmNI1gHmbtGjuHe-37">
          <mxGeometry width="50" height="50" relative="1" as="geometry">
            <mxPoint x="-457" y="1107.4999999999998" as="sourcePoint" />
            <mxPoint x="-387" y="1057.4999999999998" as="targetPoint" />
          </mxGeometry>
        </mxCell>
        <mxCell id="EGNzemmNI1gHmbtGjuHe-141" value="" style="endArrow=none;html=1;rounded=0;entryX=0.5;entryY=1;entryDx=0;entryDy=0;exitX=0.482;exitY=-0.008;exitDx=0;exitDy=0;exitPerimeter=0;" edge="1" parent="1" source="EGNzemmNI1gHmbtGjuHe-22" target="EGNzemmNI1gHmbtGjuHe-34">
          <mxGeometry width="50" height="50" relative="1" as="geometry">
            <mxPoint x="-437" y="1107.4999999999998" as="sourcePoint" />
            <mxPoint x="-387" y="1057.4999999999998" as="targetPoint" />
          </mxGeometry>
        </mxCell>
        <mxCell id="EGNzemmNI1gHmbtGjuHe-142" value="" style="endArrow=none;html=1;rounded=0;exitX=0.845;exitY=0.996;exitDx=0;exitDy=0;exitPerimeter=0;entryX=0.5;entryY=1;entryDx=0;entryDy=0;" edge="1" parent="1" source="EGNzemmNI1gHmbtGjuHe-22" target="EGNzemmNI1gHmbtGjuHe-139">
          <mxGeometry width="50" height="50" relative="1" as="geometry">
            <mxPoint x="-457" y="1137.4999999999998" as="sourcePoint" />
            <mxPoint x="-407" y="1087.4999999999998" as="targetPoint" />
          </mxGeometry>
        </mxCell>
        <mxCell id="EGNzemmNI1gHmbtGjuHe-143" value="" style="endArrow=none;html=1;rounded=0;exitX=0.5;exitY=0;exitDx=0;exitDy=0;" edge="1" parent="1" source="EGNzemmNI1gHmbtGjuHe-138">
          <mxGeometry width="50" height="50" relative="1" as="geometry">
            <mxPoint x="564.53" y="1109.9999999999998" as="sourcePoint" />
            <mxPoint x="614.53" y="1059.9999999999998" as="targetPoint" />
          </mxGeometry>
        </mxCell>
        <mxCell id="EGNzemmNI1gHmbtGjuHe-144" value="" style="ellipse;whiteSpace=wrap;html=1;aspect=fixed;fillColor=#000000;" vertex="1" parent="1">
          <mxGeometry x="534.9399999999999" y="1218.7399999999998" width="10" height="10" as="geometry" />
        </mxCell>
        <mxCell id="EGNzemmNI1gHmbtGjuHe-145" value="" style="endArrow=none;html=1;rounded=0;" edge="1" parent="1">
          <mxGeometry width="50" height="50" relative="1" as="geometry">
            <mxPoint x="539.92" y="1218.7399999999998" as="sourcePoint" />
            <mxPoint x="539.81" y="1192.4999999999998" as="targetPoint" />
          </mxGeometry>
        </mxCell>
        <mxCell id="EGNzemmNI1gHmbtGjuHe-146" value="" style="ellipse;whiteSpace=wrap;html=1;aspect=fixed;" vertex="1" parent="1">
          <mxGeometry x="555.8199999999999" y="1218.7399999999998" width="10" height="10" as="geometry" />
        </mxCell>
        <mxCell id="EGNzemmNI1gHmbtGjuHe-147" value="" style="endArrow=none;html=1;rounded=0;" edge="1" parent="1">
          <mxGeometry width="50" height="50" relative="1" as="geometry">
            <mxPoint x="560.8" y="1218.7399999999998" as="sourcePoint" />
            <mxPoint x="560.6899999999999" y="1192.4999999999998" as="targetPoint" />
          </mxGeometry>
        </mxCell>
        <mxCell id="EGNzemmNI1gHmbtGjuHe-148" value="ID" style="text;html=1;align=center;verticalAlign=middle;whiteSpace=wrap;rounded=0;" vertex="1" parent="1">
          <mxGeometry x="525.9899999999999" y="1228.7399999999998" width="25.36" height="20" as="geometry" />
        </mxCell>
        <mxCell id="EGNzemmNI1gHmbtGjuHe-149" value="password" style="text;html=1;align=center;verticalAlign=middle;whiteSpace=wrap;rounded=0;" vertex="1" parent="1">
          <mxGeometry x="551.3199999999999" y="1223.7399999999998" width="60" height="30" as="geometry" />
        </mxCell>
        <mxCell id="EGNzemmNI1gHmbtGjuHe-150" value="" style="shape=flexArrow;endArrow=classic;html=1;rounded=0;strokeColor=#000000;fillColor=#000000;endWidth=17.142857142857142;endSize=3.571428571428571;entryX=0.5;entryY=1;entryDx=0;entryDy=0;" edge="1" parent="1">
          <mxGeometry width="50" height="50" relative="1" as="geometry">
            <mxPoint x="614.6999999999999" y="1143.2499999999998" as="sourcePoint" />
            <mxPoint x="614.6999999999999" y="1116.2499999999998" as="targetPoint" />
          </mxGeometry>
        </mxCell>
        <mxCell id="EGNzemmNI1gHmbtGjuHe-151" value="" style="endArrow=none;html=1;rounded=0;" edge="1" parent="1">
          <mxGeometry width="50" height="50" relative="1" as="geometry">
            <mxPoint x="574.6999999999999" y="1163.2399999999998" as="sourcePoint" />
            <mxPoint x="658.58" y="1163.2399999999998" as="targetPoint" />
            <Array as="points">
              <mxPoint x="574.6999999999999" y="1143.2399999999998" />
              <mxPoint x="658.6999999999999" y="1143.2399999999998" />
            </Array>
          </mxGeometry>
        </mxCell>
        <mxCell id="EGNzemmNI1gHmbtGjuHe-152" value="online" style="rounded=0;whiteSpace=wrap;html=1;" vertex="1" parent="1">
          <mxGeometry x="528.65" y="1162.4999999999998" width="80" height="30" as="geometry" />
        </mxCell>
        <mxCell id="EGNzemmNI1gHmbtGjuHe-153" value="carta fedeltà" style="rounded=0;whiteSpace=wrap;html=1;" vertex="1" parent="1">
          <mxGeometry x="627.65" y="1162.4999999999998" width="80" height="30" as="geometry" />
        </mxCell>
        <mxCell id="EGNzemmNI1gHmbtGjuHe-155" value="(1, 1)" style="text;html=1;align=center;verticalAlign=middle;whiteSpace=wrap;rounded=0;fillColor=#d5e8d4;strokeColor=#82b366;" vertex="1" parent="1">
          <mxGeometry x="622.05" y="1067.49" width="32.65" height="20" as="geometry" />
        </mxCell>
        <mxCell id="2PSIv375vWKUNVYXCOfY-60" value="" style="ellipse;whiteSpace=wrap;html=1;" vertex="1" parent="1">
          <mxGeometry x="338.02" y="608.13" width="10.99" height="10" as="geometry" />
        </mxCell>
        <mxCell id="2PSIv375vWKUNVYXCOfY-61" value="data registrazione" style="text;html=1;align=center;verticalAlign=middle;whiteSpace=wrap;rounded=0;" vertex="1" parent="1">
          <mxGeometry x="347.06" y="608.14" width="105.94" height="7.48" as="geometry" />
        </mxCell>
        <mxCell id="EGNzemmNI1gHmbtGjuHe-158" value="una promozione può esistere senza che vi siano bustine in promozione" style="text;html=1;align=center;verticalAlign=middle;whiteSpace=wrap;rounded=0;fillColor=#dae8fc;strokeColor=#6c8ebf;" vertex="1" parent="1">
          <mxGeometry x="-300.1" y="1620" width="137.99" height="112.5" as="geometry" />
        </mxCell>
        <mxCell id="EGNzemmNI1gHmbtGjuHe-160" value="manca un po&#39; di spazio per certi attributi" style="text;html=1;align=center;verticalAlign=middle;whiteSpace=wrap;rounded=0;fillColor=#dae8fc;strokeColor=#6c8ebf;" vertex="1" parent="1">
          <mxGeometry x="-305" y="939" width="175" height="31" as="geometry" />
        </mxCell>
        <mxCell id="EGNzemmNI1gHmbtGjuHe-161" value="" style="endArrow=none;html=1;rounded=0;entryX=0;entryY=0.5;entryDx=0;entryDy=0;exitX=1;exitY=0.5;exitDx=0;exitDy=0;" edge="1" parent="1" source="EGNzemmNI1gHmbtGjuHe-87" target="EGNzemmNI1gHmbtGjuHe-137">
          <mxGeometry width="50" height="50" relative="1" as="geometry">
            <mxPoint x="470" y="1260" as="sourcePoint" />
            <mxPoint x="520" y="1210" as="targetPoint" />
          </mxGeometry>
        </mxCell>
        <mxCell id="EGNzemmNI1gHmbtGjuHe-319" value="" style="shape=flexArrow;endArrow=classic;html=1;rounded=0;strokeColor=#000000;fillColor=#000000;endWidth=17.142857142857142;endSize=3.571428571428571;entryX=0.5;entryY=1;entryDx=0;entryDy=0;" edge="1" parent="1">
          <mxGeometry width="50" height="50" relative="1" as="geometry">
            <mxPoint x="158.36999999999998" y="1257.64" as="sourcePoint" />
            <mxPoint x="158.36999999999998" y="1230.64" as="targetPoint" />
          </mxGeometry>
        </mxCell>
        <mxCell id="EGNzemmNI1gHmbtGjuHe-320" value="" style="endArrow=none;html=1;rounded=0;entryX=0.427;entryY=0.089;entryDx=0;entryDy=0;exitX=0.612;exitY=0;exitDx=0;exitDy=0;exitPerimeter=0;entryPerimeter=0;" edge="1" parent="1">
          <mxGeometry width="50" height="50" relative="1" as="geometry">
            <mxPoint x="112.35999999999999" y="1277.6400000000003" as="sourcePoint" />
            <mxPoint x="207.35999999999999" y="1280.6400000000003" as="targetPoint" />
            <Array as="points">
              <mxPoint x="112.24999999999997" y="1258.15" />
              <mxPoint x="207.35999999999999" y="1258.14" />
            </Array>
          </mxGeometry>
        </mxCell>
        <mxCell id="EGNzemmNI1gHmbtGjuHe-321" value="privato" style="rounded=0;whiteSpace=wrap;html=1;" vertex="1" parent="1">
          <mxGeometry x="62.879999999999995" y="1276.88" width="93.72" height="40" as="geometry" />
        </mxCell>
        <mxCell id="EGNzemmNI1gHmbtGjuHe-322" value="Azienda" style="rounded=0;whiteSpace=wrap;html=1;" vertex="1" parent="1">
          <mxGeometry x="179.62999999999997" y="1276.88" width="93.72" height="40" as="geometry" />
        </mxCell>
        <mxCell id="EGNzemmNI1gHmbtGjuHe-323" value="(0,1)" style="text;html=1;align=center;verticalAlign=middle;whiteSpace=wrap;rounded=0;fillColor=#d5e8d4;strokeColor=#82b366;" vertex="1" parent="1">
          <mxGeometry x="453" y="1020" width="50" height="20" as="geometry" />
        </mxCell>
        <mxCell id="EGNzemmNI1gHmbtGjuHe-324" value="coco dice che un cliente non sempre esiste ( cliente in negozio anonimo )" style="text;html=1;align=center;verticalAlign=middle;whiteSpace=wrap;rounded=0;fillColor=#dae8fc;strokeColor=#6c8ebf;" vertex="1" parent="1">
          <mxGeometry x="126.31000000000002" y="939.38" width="205.7" height="30.62" as="geometry" />
        </mxCell>
        <mxCell id="EGNzemmNI1gHmbtGjuHe-326" style="edgeStyle=orthogonalEdgeStyle;rounded=0;orthogonalLoop=1;jettySize=auto;html=1;exitX=0.25;exitY=1;exitDx=0;exitDy=0;entryX=0.5;entryY=0;entryDx=0;entryDy=0;" edge="1" parent="1" source="EGNzemmNI1gHmbtGjuHe-325" target="EGNzemmNI1gHmbtGjuHe-20">
          <mxGeometry relative="1" as="geometry" />
        </mxCell>
        <mxCell id="EGNzemmNI1gHmbtGjuHe-325" value="metteremo blister di una sola espansione" style="text;html=1;align=center;verticalAlign=middle;whiteSpace=wrap;rounded=0;fillColor=#dae8fc;strokeColor=#6c8ebf;" vertex="1" parent="1">
          <mxGeometry x="-387.5" y="1067.49" width="85" height="61" as="geometry" />
        </mxCell>
        <mxCell id="EGNzemmNI1gHmbtGjuHe-327" value="" style="ellipse;whiteSpace=wrap;html=1;fillColor=#000000;" vertex="1" parent="1">
          <mxGeometry x="-316" y="1359.5" width="10" height="10" as="geometry" />
        </mxCell>
        <mxCell id="EGNzemmNI1gHmbtGjuHe-328" value="" style="endArrow=none;html=1;rounded=0;" edge="1" parent="1">
          <mxGeometry width="50" height="50" relative="1" as="geometry">
            <mxPoint x="-310.99" y="1347.5" as="sourcePoint" />
            <mxPoint x="-311" y="1367.5" as="targetPoint" />
          </mxGeometry>
        </mxCell>
        <mxCell id="EGNzemmNI1gHmbtGjuHe-329" value="" style="ellipse;whiteSpace=wrap;html=1;fillColor=#000000;" vertex="1" parent="1">
          <mxGeometry x="-220" y="1359.5" width="10" height="10" as="geometry" />
        </mxCell>
        <mxCell id="EGNzemmNI1gHmbtGjuHe-330" value="" style="endArrow=none;html=1;rounded=0;" edge="1" parent="1">
          <mxGeometry width="50" height="50" relative="1" as="geometry">
            <mxPoint x="-214.99" y="1347.5" as="sourcePoint" />
            <mxPoint x="-215" y="1367.5" as="targetPoint" />
          </mxGeometry>
        </mxCell>
        <mxCell id="EGNzemmNI1gHmbtGjuHe-332" value="" style="ellipse;whiteSpace=wrap;html=1;fillColor=#000000;" vertex="1" parent="1">
          <mxGeometry x="-287.5" y="1570.0000000000002" width="10" height="10" as="geometry" />
        </mxCell>
        <mxCell id="EGNzemmNI1gHmbtGjuHe-333" value="" style="endArrow=none;html=1;rounded=0;" edge="1" parent="1">
          <mxGeometry width="50" height="50" relative="1" as="geometry">
            <mxPoint x="-282.99" y="1552.8700000000001" as="sourcePoint" />
            <mxPoint x="-283" y="1573" as="targetPoint" />
          </mxGeometry>
        </mxCell>
        <mxCell id="EGNzemmNI1gHmbtGjuHe-334" value="nome" style="text;html=1;align=center;verticalAlign=middle;whiteSpace=wrap;rounded=0;" vertex="1" parent="1">
          <mxGeometry x="-298.69" y="1580" width="32.38" height="7.5" as="geometry" />
        </mxCell>
        <mxCell id="EGNzemmNI1gHmbtGjuHe-335" value="" style="endArrow=none;html=1;rounded=0;entryX=0;entryY=0.5;entryDx=0;entryDy=0;" edge="1" parent="1" target="EGNzemmNI1gHmbtGjuHe-60">
          <mxGeometry width="50" height="50" relative="1" as="geometry">
            <mxPoint x="-580" y="1245" as="sourcePoint" />
            <mxPoint x="-380" y="1240" as="targetPoint" />
          </mxGeometry>
        </mxCell>
        <mxCell id="EGNzemmNI1gHmbtGjuHe-337" value="promozione" style="rounded=0;whiteSpace=wrap;html=1;" vertex="1" parent="1">
          <mxGeometry x="-650" y="1227.5" width="71" height="40" as="geometry" />
        </mxCell>
        <mxCell id="EGNzemmNI1gHmbtGjuHe-338" value="titolo" style="text;html=1;align=center;verticalAlign=middle;whiteSpace=wrap;rounded=0;" vertex="1" parent="1">
          <mxGeometry x="-720" y="1227.5" width="50" height="11.26" as="geometry" />
        </mxCell>
        <mxCell id="EGNzemmNI1gHmbtGjuHe-339" value="percentuale" style="text;html=1;align=center;verticalAlign=middle;whiteSpace=wrap;rounded=0;" vertex="1" parent="1">
          <mxGeometry x="-730" y="1245.0000000000002" width="50" height="11.26" as="geometry" />
        </mxCell>
        <mxCell id="EGNzemmNI1gHmbtGjuHe-340" value="" style="endArrow=none;html=1;rounded=0;exitX=-0.001;exitY=0.293;exitDx=0;exitDy=0;exitPerimeter=0;" edge="1" parent="1" target="EGNzemmNI1gHmbtGjuHe-341">
          <mxGeometry width="50" height="50" relative="1" as="geometry">
            <mxPoint x="-649.3799999999999" y="1235.0162499999997" as="sourcePoint" />
            <mxPoint x="-630" y="1258.5" as="targetPoint" />
          </mxGeometry>
        </mxCell>
        <mxCell id="EGNzemmNI1gHmbtGjuHe-341" value="" style="ellipse;whiteSpace=wrap;html=1;aspect=fixed;fillColor=#000000;strokeColor=#000000;" vertex="1" parent="1">
          <mxGeometry x="-670" y="1230" width="10" height="10" as="geometry" />
        </mxCell>
        <mxCell id="EGNzemmNI1gHmbtGjuHe-342" value="" style="endArrow=none;html=1;rounded=0;exitX=-0.001;exitY=0.293;exitDx=0;exitDy=0;exitPerimeter=0;" edge="1" parent="1" target="EGNzemmNI1gHmbtGjuHe-343">
          <mxGeometry width="50" height="50" relative="1" as="geometry">
            <mxPoint x="-649.9999999999999" y="1250.0162499999997" as="sourcePoint" />
            <mxPoint x="-630.62" y="1273.5" as="targetPoint" />
          </mxGeometry>
        </mxCell>
        <mxCell id="EGNzemmNI1gHmbtGjuHe-343" value="" style="ellipse;whiteSpace=wrap;html=1;aspect=fixed;fillColor=#FFFFFF;strokeColor=#000000;" vertex="1" parent="1">
          <mxGeometry x="-670.62" y="1245" width="10" height="10" as="geometry" />
        </mxCell>
        <mxCell id="EGNzemmNI1gHmbtGjuHe-344" value="(0, N)" style="text;html=1;align=center;verticalAlign=middle;whiteSpace=wrap;rounded=0;" vertex="1" parent="1">
          <mxGeometry x="-580" y="1231.87" width="40" height="10" as="geometry" />
        </mxCell>
        <mxCell id="EGNzemmNI1gHmbtGjuHe-345" value="(0, N)" style="text;html=1;align=center;verticalAlign=middle;whiteSpace=wrap;rounded=0;" vertex="1" parent="1">
          <mxGeometry x="-370.5" y="1205" width="40" height="10" as="geometry" />
        </mxCell>
        <mxCell id="EGNzemmNI1gHmbtGjuHe-346" value="" style="endArrow=none;html=1;rounded=0;exitX=0.5;exitY=0;exitDx=0;exitDy=0;entryX=0.5;entryY=1;entryDx=0;entryDy=0;" edge="1" parent="1" source="EGNzemmNI1gHmbtGjuHe-10" target="EGNzemmNI1gHmbtGjuHe-347">
          <mxGeometry width="50" height="50" relative="1" as="geometry">
            <mxPoint x="-190" y="1460" as="sourcePoint" />
            <mxPoint x="-250" y="1440" as="targetPoint" />
          </mxGeometry>
        </mxCell>
        <mxCell id="EGNzemmNI1gHmbtGjuHe-347" value="compone" style="rhombus;whiteSpace=wrap;html=1;" vertex="1" parent="1">
          <mxGeometry x="-317" y="1392.5" width="90" height="40" as="geometry" />
        </mxCell>
        <mxCell id="EGNzemmNI1gHmbtGjuHe-351" value="" style="endArrow=none;html=1;rounded=0;exitX=0.5;exitY=0;exitDx=0;exitDy=0;entryX=0.668;entryY=1.009;entryDx=0;entryDy=0;entryPerimeter=0;" edge="1" parent="1" source="EGNzemmNI1gHmbtGjuHe-347" target="EGNzemmNI1gHmbtGjuHe-6">
          <mxGeometry width="50" height="50" relative="1" as="geometry">
            <mxPoint x="-272.17" y="1413.5" as="sourcePoint" />
            <mxPoint x="-272.17" y="1369.5" as="targetPoint" />
          </mxGeometry>
        </mxCell>
        <mxCell id="T1q8X6lidMjJ-HpQE-LU-1" value="ho messo qui perchè la promozione si applica a tutti i prodotti e questa relazione giustifica la generalizzazione di prodotto&amp;nbsp;" style="text;html=1;align=center;verticalAlign=middle;whiteSpace=wrap;rounded=0;fillColor=#dae8fc;strokeColor=#6c8ebf;" vertex="1" parent="1">
          <mxGeometry x="-890" y="1200" width="150" height="90" as="geometry" />
        </mxCell>
        <mxCell id="T1q8X6lidMjJ-HpQE-LU-3" value="(1, N)" style="text;html=1;align=center;verticalAlign=middle;whiteSpace=wrap;rounded=0;" vertex="1" parent="1">
          <mxGeometry x="-270" y="1482" width="47.01" height="18" as="geometry" />
        </mxCell>
        <mxCell id="T1q8X6lidMjJ-HpQE-LU-12" value="" style="endArrow=none;html=1;rounded=0;exitX=0.5;exitY=0;exitDx=0;exitDy=0;entryX=0.5;entryY=1;entryDx=0;entryDy=0;" edge="1" parent="1" target="T1q8X6lidMjJ-HpQE-LU-13">
          <mxGeometry width="50" height="50" relative="1" as="geometry">
            <mxPoint x="-550" y="1500" as="sourcePoint" />
            <mxPoint x="-528" y="1438" as="targetPoint" />
          </mxGeometry>
        </mxCell>
        <mxCell id="T1q8X6lidMjJ-HpQE-LU-13" value="appartenenza" style="rhombus;whiteSpace=wrap;html=1;" vertex="1" parent="1">
          <mxGeometry x="-595" y="1392.5" width="90" height="40" as="geometry" />
        </mxCell>
        <mxCell id="T1q8X6lidMjJ-HpQE-LU-14" value="" style="endArrow=none;html=1;rounded=0;exitX=0.5;exitY=0;exitDx=0;exitDy=0;entryX=0.668;entryY=1.009;entryDx=0;entryDy=0;entryPerimeter=0;" edge="1" parent="1" source="T1q8X6lidMjJ-HpQE-LU-13">
          <mxGeometry width="50" height="50" relative="1" as="geometry">
            <mxPoint x="-550.1700000000001" y="1411.5" as="sourcePoint" />
            <mxPoint x="-551" y="1346" as="targetPoint" />
          </mxGeometry>
        </mxCell>
        <mxCell id="T1q8X6lidMjJ-HpQE-LU-15" value="certificato" style="rounded=0;whiteSpace=wrap;html=1;" vertex="1" parent="1">
          <mxGeometry x="-595" y="1482" width="100" height="50" as="geometry" />
        </mxCell>
        <mxCell id="T1q8X6lidMjJ-HpQE-LU-16" value="" style="ellipse;whiteSpace=wrap;html=1;aspect=fixed;fillColor=#FFFFFF;strokeColor=#000000;" vertex="1" parent="1">
          <mxGeometry x="-630.72" y="1482" width="10" height="10" as="geometry" />
        </mxCell>
        <mxCell id="T1q8X6lidMjJ-HpQE-LU-17" value="" style="endArrow=none;html=1;rounded=0;" edge="1" parent="1">
          <mxGeometry width="50" height="50" relative="1" as="geometry">
            <mxPoint x="-595" y="1486.8" as="sourcePoint" />
            <mxPoint x="-621" y="1486.8" as="targetPoint" />
          </mxGeometry>
        </mxCell>
        <mxCell id="T1q8X6lidMjJ-HpQE-LU-18" value="" style="ellipse;whiteSpace=wrap;html=1;aspect=fixed;fillColor=#FFFFFF;strokeColor=#000000;" vertex="1" parent="1">
          <mxGeometry x="-515.72" y="1452" width="10" height="10" as="geometry" />
        </mxCell>
        <mxCell id="T1q8X6lidMjJ-HpQE-LU-19" value="" style="endArrow=none;html=1;rounded=0;entryX=0.5;entryY=1;entryDx=0;entryDy=0;exitX=0.71;exitY=0.007;exitDx=0;exitDy=0;exitPerimeter=0;" edge="1" parent="1">
          <mxGeometry width="50" height="50" relative="1" as="geometry">
            <mxPoint x="-509.36" y="1482.35" as="sourcePoint" />
            <mxPoint x="-510.36" y="1462" as="targetPoint" />
          </mxGeometry>
        </mxCell>
        <mxCell id="T1q8X6lidMjJ-HpQE-LU-22" value="" style="ellipse;whiteSpace=wrap;html=1;aspect=fixed;fillColor=#000000;strokeColor=#000000;" vertex="1" parent="1">
          <mxGeometry x="-580" y="1462" width="10" height="10" as="geometry" />
        </mxCell>
        <mxCell id="T1q8X6lidMjJ-HpQE-LU-23" value="" style="endArrow=none;html=1;rounded=0;entryX=1;entryY=0.5;entryDx=0;entryDy=0;" edge="1" parent="1" target="T1q8X6lidMjJ-HpQE-LU-22">
          <mxGeometry width="50" height="50" relative="1" as="geometry">
            <mxPoint x="-490" y="1467" as="sourcePoint" />
            <mxPoint x="-571.72" y="1464.8" as="targetPoint" />
          </mxGeometry>
        </mxCell>
        <mxCell id="T1q8X6lidMjJ-HpQE-LU-24" value="id&lt;div&gt;&lt;br&gt;&lt;/div&gt;" style="text;html=1;align=center;verticalAlign=middle;whiteSpace=wrap;rounded=0;" vertex="1" parent="1">
          <mxGeometry x="-520.72" y="1448.25" width="20" height="8" as="geometry" />
        </mxCell>
        <mxCell id="T1q8X6lidMjJ-HpQE-LU-25" value="(1,1)" style="text;html=1;align=center;verticalAlign=middle;whiteSpace=wrap;rounded=0;" vertex="1" parent="1">
          <mxGeometry x="-555" y="1448.25" width="25" height="17.5" as="geometry" />
        </mxCell>
        <mxCell id="T1q8X6lidMjJ-HpQE-LU-26" value="(1,1)" style="text;html=1;align=center;verticalAlign=middle;whiteSpace=wrap;rounded=0;" vertex="1" parent="1">
          <mxGeometry x="-550" y="1346.88" width="30" height="20" as="geometry" />
        </mxCell>
        <mxCell id="3gi4hEzWOtw5ceFVSSZn-3" value="" style="ellipse;whiteSpace=wrap;html=1;" vertex="1" parent="1">
          <mxGeometry x="-502.5" y="1116.25" width="10" height="10" as="geometry" />
        </mxCell>
        <mxCell id="3gi4hEzWOtw5ceFVSSZn-4" value="" style="endArrow=none;html=1;rounded=0;entryX=1;entryY=0.5;entryDx=0;entryDy=0;" edge="1" parent="1" target="3gi4hEzWOtw5ceFVSSZn-3">
          <mxGeometry width="50" height="50" relative="1" as="geometry">
            <mxPoint x="-460" y="1120" as="sourcePoint" />
            <mxPoint x="-510" y="1149" as="targetPoint" />
          </mxGeometry>
        </mxCell>
        <mxCell id="yAEd8W46qAEF-MFhc5Kq-1" value="" style="ellipse;whiteSpace=wrap;html=1;" vertex="1" parent="1">
          <mxGeometry x="-112.5" y="405" width="10" height="10" as="geometry" />
        </mxCell>
        <mxCell id="yAEd8W46qAEF-MFhc5Kq-2" value="" style="endArrow=none;html=1;rounded=0;exitX=0.008;exitY=0.409;exitDx=0;exitDy=0;entryX=1;entryY=0.5;entryDx=0;entryDy=0;exitPerimeter=0;" edge="1" parent="1" source="2PSIv375vWKUNVYXCOfY-9" target="yAEd8W46qAEF-MFhc5Kq-1">
          <mxGeometry width="50" height="50" relative="1" as="geometry">
            <mxPoint x="-152" y="457.5" as="sourcePoint" />
            <mxPoint x="-100" y="400" as="targetPoint" />
          </mxGeometry>
        </mxCell>
        <mxCell id="yAEd8W46qAEF-MFhc5Kq-4" value="corriere" style="text;html=1;align=center;verticalAlign=middle;whiteSpace=wrap;rounded=0;" vertex="1" parent="1">
          <mxGeometry x="-166" y="395" width="60" height="30" as="geometry" />
        </mxCell>
        <mxCell id="yAEd8W46qAEF-MFhc5Kq-5" value="" style="ellipse;whiteSpace=wrap;html=1;" vertex="1" parent="1">
          <mxGeometry x="367.01" y="446.25" width="10" height="10" as="geometry" />
        </mxCell>
        <mxCell id="yAEd8W46qAEF-MFhc5Kq-8" value="" style="ellipse;whiteSpace=wrap;html=1;" vertex="1" parent="1">
          <mxGeometry x="342.01" y="446.25" width="10" height="10" as="geometry" />
        </mxCell>
        <mxCell id="yAEd8W46qAEF-MFhc5Kq-9" value="" style="endArrow=none;html=1;rounded=0;exitX=0.5;exitY=0;exitDx=0;exitDy=0;entryX=0.064;entryY=1.017;entryDx=0;entryDy=0;entryPerimeter=0;" edge="1" parent="1" source="yAEd8W46qAEF-MFhc5Kq-8" target="f58gsHsqQCCzqT3UhdzD-186">
          <mxGeometry width="50" height="50" relative="1" as="geometry">
            <mxPoint x="298.89" y="477.5" as="sourcePoint" />
            <mxPoint x="348.89" y="427.5" as="targetPoint" />
          </mxGeometry>
        </mxCell>
        <mxCell id="yAEd8W46qAEF-MFhc5Kq-10" value="" style="endArrow=none;html=1;rounded=0;exitX=0.5;exitY=0;exitDx=0;exitDy=0;entryX=0.395;entryY=0.99;entryDx=0;entryDy=0;entryPerimeter=0;" edge="1" parent="1" source="yAEd8W46qAEF-MFhc5Kq-5" target="f58gsHsqQCCzqT3UhdzD-186">
          <mxGeometry width="50" height="50" relative="1" as="geometry">
            <mxPoint x="324.06" y="477.5" as="sourcePoint" />
            <mxPoint x="374.06" y="427.5" as="targetPoint" />
          </mxGeometry>
        </mxCell>
        <mxCell id="yAEd8W46qAEF-MFhc5Kq-11" value="P. IVA" style="text;html=1;align=center;verticalAlign=middle;whiteSpace=wrap;rounded=0;" vertex="1" parent="1">
          <mxGeometry x="313.52" y="452.51" width="60" height="30" as="geometry" />
        </mxCell>
        <mxCell id="yAEd8W46qAEF-MFhc5Kq-12" value="indirizzo" style="text;html=1;align=center;verticalAlign=middle;whiteSpace=wrap;rounded=0;" vertex="1" parent="1">
          <mxGeometry x="362.01" y="452.51" width="60" height="30" as="geometry" />
        </mxCell>
        <mxCell id="yAEd8W46qAEF-MFhc5Kq-13" value="" style="ellipse;whiteSpace=wrap;html=1;aspect=fixed;fillColor=#000000;" vertex="1" parent="1">
          <mxGeometry x="213.25000000000006" y="608.14" width="10" height="10" as="geometry" />
        </mxCell>
        <mxCell id="yAEd8W46qAEF-MFhc5Kq-15" value="" style="ellipse;whiteSpace=wrap;html=1;aspect=fixed;" vertex="1" parent="1">
          <mxGeometry x="301.51000000000005" y="728.74" width="10" height="10" as="geometry" />
        </mxCell>
        <mxCell id="yAEd8W46qAEF-MFhc5Kq-16" value="" style="endArrow=none;html=1;rounded=0;" edge="1" parent="1">
          <mxGeometry width="50" height="50" relative="1" as="geometry">
            <mxPoint x="306.49000000000007" y="728.74" as="sourcePoint" />
            <mxPoint x="306.38000000000005" y="702.5" as="targetPoint" />
          </mxGeometry>
        </mxCell>
        <mxCell id="yAEd8W46qAEF-MFhc5Kq-17" value="ID" style="text;html=1;align=center;verticalAlign=middle;whiteSpace=wrap;rounded=0;" vertex="1" parent="1">
          <mxGeometry x="204.3" y="618.14" width="25.36" height="20" as="geometry" />
        </mxCell>
        <mxCell id="yAEd8W46qAEF-MFhc5Kq-18" value="punti accumulati" style="text;html=1;align=center;verticalAlign=middle;whiteSpace=wrap;rounded=0;" vertex="1" parent="1">
          <mxGeometry x="297.01000000000005" y="732.5" width="60" height="30" as="geometry" />
        </mxCell>
        <mxCell id="yAEd8W46qAEF-MFhc5Kq-19" value="" style="endArrow=none;html=1;rounded=0;exitX=0.389;exitY=0.529;exitDx=0;exitDy=0;entryX=0;entryY=0.5;entryDx=0;entryDy=0;exitPerimeter=0;" edge="1" parent="1" source="yAEd8W46qAEF-MFhc5Kq-13" target="2PSIv375vWKUNVYXCOfY-38">
          <mxGeometry width="50" height="50" relative="1" as="geometry">
            <mxPoint x="195.35" y="661.26" as="sourcePoint" />
            <mxPoint x="245.35" y="611.26" as="targetPoint" />
          </mxGeometry>
        </mxCell>
        <mxCell id="yAEd8W46qAEF-MFhc5Kq-21" value="" style="ellipse;whiteSpace=wrap;html=1;" vertex="1" parent="1">
          <mxGeometry x="85.88999999999999" y="340" width="10" height="10" as="geometry" />
        </mxCell>
        <mxCell id="yAEd8W46qAEF-MFhc5Kq-22" value="" style="endArrow=none;html=1;rounded=0;exitX=0.999;exitY=0.88;exitDx=0;exitDy=0;entryX=0;entryY=0.5;entryDx=0;entryDy=0;exitPerimeter=0;" edge="1" parent="1" source="f58gsHsqQCCzqT3UhdzD-129" target="yAEd8W46qAEF-MFhc5Kq-21">
          <mxGeometry width="50" height="50" relative="1" as="geometry">
            <mxPoint x="34.88" y="395" as="sourcePoint" />
            <mxPoint x="84.88" y="345" as="targetPoint" />
          </mxGeometry>
        </mxCell>
        <mxCell id="yAEd8W46qAEF-MFhc5Kq-23" value="metodo di pagamento" style="text;html=1;align=center;verticalAlign=middle;whiteSpace=wrap;rounded=0;" vertex="1" parent="1">
          <mxGeometry x="90.89" y="347.5" width="60" height="30" as="geometry" />
        </mxCell>
        <mxCell id="yAEd8W46qAEF-MFhc5Kq-24" value="" style="endArrow=none;html=1;rounded=0;" edge="1" parent="1">
          <mxGeometry width="50" height="50" relative="1" as="geometry">
            <mxPoint x="93" y="410" as="sourcePoint" />
            <mxPoint x="110" y="410" as="targetPoint" />
          </mxGeometry>
        </mxCell>
        <mxCell id="yAEd8W46qAEF-MFhc5Kq-25" value="" style="ellipse;whiteSpace=wrap;html=1;" vertex="1" parent="1">
          <mxGeometry x="110" y="405" width="10" height="10" as="geometry" />
        </mxCell>
        <mxCell id="yAEd8W46qAEF-MFhc5Kq-26" value="punto vendita" style="text;html=1;align=center;verticalAlign=middle;whiteSpace=wrap;rounded=0;" vertex="1" parent="1">
          <mxGeometry x="96.89" y="412.51" width="60" height="30" as="geometry" />
        </mxCell>
        <mxCell id="lz1Btb8TUmcO2zdvs2zw-2" value="Prodotto" style="rounded=0;whiteSpace=wrap;html=1;" vertex="1" parent="1">
          <mxGeometry x="1560" y="507.4999999999998" width="115" height="50" as="geometry" />
        </mxCell>
        <mxCell id="lz1Btb8TUmcO2zdvs2zw-3" value="" style="shape=flexArrow;endArrow=classic;html=1;rounded=0;strokeColor=#000000;fillColor=#000000;endWidth=32.70321361058601;endSize=9.791304347826088;width=17.39130434782609;" edge="1" parent="1">
          <mxGeometry width="50" height="50" relative="1" as="geometry">
            <mxPoint x="1630.44" y="643.68" as="sourcePoint" />
            <mxPoint x="1630" y="556.55" as="targetPoint" />
          </mxGeometry>
        </mxCell>
        <mxCell id="lz1Btb8TUmcO2zdvs2zw-4" value="" style="endArrow=none;html=1;rounded=0;" edge="1" parent="1">
          <mxGeometry width="50" height="50" relative="1" as="geometry">
            <mxPoint x="1505" y="643.7499999999998" as="sourcePoint" />
            <mxPoint x="1785" y="642.7499999999998" as="targetPoint" />
          </mxGeometry>
        </mxCell>
        <mxCell id="lz1Btb8TUmcO2zdvs2zw-5" value="" style="endArrow=none;html=1;rounded=0;" edge="1" parent="1">
          <mxGeometry width="50" height="50" relative="1" as="geometry">
            <mxPoint x="1585" y="643.7499999999998" as="sourcePoint" />
            <mxPoint x="1585" y="662.4999999999998" as="targetPoint" />
          </mxGeometry>
        </mxCell>
        <mxCell id="lz1Btb8TUmcO2zdvs2zw-6" value="" style="endArrow=none;html=1;rounded=0;" edge="1" parent="1">
          <mxGeometry width="50" height="50" relative="1" as="geometry">
            <mxPoint x="1785" y="662.4999999999998" as="sourcePoint" />
            <mxPoint x="1785" y="642.4999999999998" as="targetPoint" />
          </mxGeometry>
        </mxCell>
        <mxCell id="lz1Btb8TUmcO2zdvs2zw-7" value="bustina" style="rounded=0;whiteSpace=wrap;html=1;" vertex="1" parent="1">
          <mxGeometry x="1555" y="662.4999999999998" width="78" height="51.25" as="geometry" />
        </mxCell>
        <mxCell id="lz1Btb8TUmcO2zdvs2zw-8" value="bundle ufficiale" style="rounded=0;whiteSpace=wrap;html=1;" vertex="1" parent="1">
          <mxGeometry x="1642.01" y="661.8799999999999" width="80.99" height="51.87" as="geometry" />
        </mxCell>
        <mxCell id="lz1Btb8TUmcO2zdvs2zw-9" value="" style="endArrow=none;html=1;rounded=0;startArrow=none;startFill=0;edgeStyle=orthogonalEdgeStyle;" edge="1" parent="1">
          <mxGeometry width="50" height="50" relative="1" as="geometry">
            <mxPoint x="1505" y="643.7499999999998" as="sourcePoint" />
            <mxPoint x="1505" y="662.7499999999998" as="targetPoint" />
          </mxGeometry>
        </mxCell>
        <mxCell id="lz1Btb8TUmcO2zdvs2zw-10" value="carta singola" style="rounded=0;whiteSpace=wrap;html=1;" vertex="1" parent="1">
          <mxGeometry x="1445" y="662.4999999999998" width="100" height="51.25" as="geometry" />
        </mxCell>
        <mxCell id="lz1Btb8TUmcO2zdvs2zw-11" value="blister&lt;div&gt;ufficiale&lt;/div&gt;" style="rounded=0;whiteSpace=wrap;html=1;" vertex="1" parent="1">
          <mxGeometry x="1733" y="661.8799999999999" width="80" height="51.87" as="geometry" />
        </mxCell>
        <mxCell id="lz1Btb8TUmcO2zdvs2zw-12" value="ID" style="text;html=1;align=center;verticalAlign=middle;whiteSpace=wrap;rounded=0;" vertex="1" parent="1">
          <mxGeometry x="1540" y="587.4999999999998" width="30" height="12.5" as="geometry" />
        </mxCell>
        <mxCell id="lz1Btb8TUmcO2zdvs2zw-13" value="" style="endArrow=none;html=1;rounded=0;exitX=-0.001;exitY=0.293;exitDx=0;exitDy=0;exitPerimeter=0;" edge="1" parent="1" target="lz1Btb8TUmcO2zdvs2zw-14">
          <mxGeometry width="50" height="50" relative="1" as="geometry">
            <mxPoint x="1444.9" y="668.1462499999996" as="sourcePoint" />
            <mxPoint x="1464.28" y="691.6299999999999" as="targetPoint" />
          </mxGeometry>
        </mxCell>
        <mxCell id="lz1Btb8TUmcO2zdvs2zw-14" value="" style="ellipse;whiteSpace=wrap;html=1;aspect=fixed;fillColor=#FFFFFF;strokeColor=#000000;" vertex="1" parent="1">
          <mxGeometry x="1404.28" y="663.1299999999999" width="10" height="10" as="geometry" />
        </mxCell>
        <mxCell id="lz1Btb8TUmcO2zdvs2zw-15" value="nome" style="text;html=1;align=center;verticalAlign=middle;whiteSpace=wrap;rounded=0;" vertex="1" parent="1">
          <mxGeometry x="1370" y="661.8799999999999" width="30" height="12.5" as="geometry" />
        </mxCell>
        <mxCell id="lz1Btb8TUmcO2zdvs2zw-16" value="" style="shape=flexArrow;endArrow=classic;html=1;rounded=0;entryX=0.5;entryY=1;entryDx=0;entryDy=0;strokeColor=#000000;fillColor=none;" edge="1" parent="1">
          <mxGeometry width="50" height="50" relative="1" as="geometry">
            <mxPoint x="1494.57" y="753.7499999999998" as="sourcePoint" />
            <mxPoint x="1494.38" y="712.4999999999998" as="targetPoint" />
          </mxGeometry>
        </mxCell>
        <mxCell id="lz1Btb8TUmcO2zdvs2zw-17" value="condizione" style="text;html=1;align=center;verticalAlign=middle;whiteSpace=wrap;rounded=0;" vertex="1" parent="1">
          <mxGeometry x="1360" y="701.25" width="30" height="12.5" as="geometry" />
        </mxCell>
        <mxCell id="lz1Btb8TUmcO2zdvs2zw-18" value="carta gradata" style="rounded=0;whiteSpace=wrap;html=1;" vertex="1" parent="1">
          <mxGeometry x="1445" y="753.7499999999998" width="100" height="50" as="geometry" />
        </mxCell>
        <mxCell id="lz1Btb8TUmcO2zdvs2zw-19" value="" style="endArrow=none;html=1;rounded=0;entryX=0;entryY=0.5;entryDx=0;entryDy=0;" edge="1" parent="1" target="lz1Btb8TUmcO2zdvs2zw-2">
          <mxGeometry width="50" height="50" relative="1" as="geometry">
            <mxPoint x="1495" y="532.4999999999998" as="sourcePoint" />
            <mxPoint x="1535" y="517.4999999999998" as="targetPoint" />
          </mxGeometry>
        </mxCell>
        <mxCell id="lz1Btb8TUmcO2zdvs2zw-20" value="appartiene" style="rhombus;whiteSpace=wrap;html=1;" vertex="1" parent="1">
          <mxGeometry x="1405" y="509.9999999999998" width="90" height="45" as="geometry" />
        </mxCell>
        <mxCell id="lz1Btb8TUmcO2zdvs2zw-21" value="(0,1)" style="text;html=1;align=center;verticalAlign=middle;whiteSpace=wrap;rounded=0;" vertex="1" parent="1">
          <mxGeometry x="1505" y="517.4999999999998" width="40" height="10" as="geometry" />
        </mxCell>
        <mxCell id="lz1Btb8TUmcO2zdvs2zw-22" value="" style="endArrow=none;html=1;rounded=0;" edge="1" parent="1">
          <mxGeometry width="50" height="50" relative="1" as="geometry">
            <mxPoint x="1449" y="477.4999999999998" as="sourcePoint" />
            <mxPoint x="1449.28" y="510" as="targetPoint" />
          </mxGeometry>
        </mxCell>
        <mxCell id="lz1Btb8TUmcO2zdvs2zw-23" value="espansione" style="rounded=0;whiteSpace=wrap;html=1;" vertex="1" parent="1">
          <mxGeometry x="1414" y="437.4999999999998" width="71" height="40" as="geometry" />
        </mxCell>
        <mxCell id="lz1Btb8TUmcO2zdvs2zw-24" value="(0, N)" style="text;html=1;align=center;verticalAlign=middle;whiteSpace=wrap;rounded=0;" vertex="1" parent="1">
          <mxGeometry x="1448" y="487.4999999999998" width="40" height="10" as="geometry" />
        </mxCell>
        <mxCell id="lz1Btb8TUmcO2zdvs2zw-25" value="promozione bustine" style="rounded=0;whiteSpace=wrap;html=1;" vertex="1" parent="1">
          <mxGeometry x="1695" y="753.7499999999998" width="86" height="50" as="geometry" />
        </mxCell>
        <mxCell id="lz1Btb8TUmcO2zdvs2zw-26" value="" style="endArrow=none;html=1;rounded=0;" edge="1" parent="1">
          <mxGeometry width="50" height="50" relative="1" as="geometry">
            <mxPoint x="1415" y="692.6300000000001" as="sourcePoint" />
            <mxPoint x="1445" y="692.3800000000001" as="targetPoint" />
          </mxGeometry>
        </mxCell>
        <mxCell id="lz1Btb8TUmcO2zdvs2zw-27" value="" style="ellipse;whiteSpace=wrap;html=1;" vertex="1" parent="1">
          <mxGeometry x="1405" y="687.51" width="10" height="10" as="geometry" />
        </mxCell>
        <mxCell id="lz1Btb8TUmcO2zdvs2zw-28" value="" style="endArrow=none;html=1;rounded=0;" edge="1" parent="1">
          <mxGeometry width="50" height="50" relative="1" as="geometry">
            <mxPoint x="1415" y="679.5" as="sourcePoint" />
            <mxPoint x="1445" y="679.25" as="targetPoint" />
          </mxGeometry>
        </mxCell>
        <mxCell id="lz1Btb8TUmcO2zdvs2zw-29" value="" style="ellipse;whiteSpace=wrap;html=1;" vertex="1" parent="1">
          <mxGeometry x="1405" y="674.3799999999999" width="10" height="10" as="geometry" />
        </mxCell>
        <mxCell id="lz1Btb8TUmcO2zdvs2zw-30" value="" style="endArrow=none;html=1;rounded=0;" edge="1" parent="1">
          <mxGeometry width="50" height="50" relative="1" as="geometry">
            <mxPoint x="1415" y="709.6199999999999" as="sourcePoint" />
            <mxPoint x="1445" y="709.3699999999999" as="targetPoint" />
          </mxGeometry>
        </mxCell>
        <mxCell id="lz1Btb8TUmcO2zdvs2zw-189" value="(0,1)" style="edgeLabel;html=1;align=center;verticalAlign=middle;resizable=0;points=[];" connectable="0" vertex="1" parent="lz1Btb8TUmcO2zdvs2zw-30">
          <mxGeometry x="-0.007" relative="1" as="geometry">
            <mxPoint as="offset" />
          </mxGeometry>
        </mxCell>
        <mxCell id="lz1Btb8TUmcO2zdvs2zw-31" value="" style="ellipse;whiteSpace=wrap;html=1;" vertex="1" parent="1">
          <mxGeometry x="1405" y="703.75" width="10" height="10" as="geometry" />
        </mxCell>
        <mxCell id="lz1Btb8TUmcO2zdvs2zw-32" value="numero" style="text;html=1;align=center;verticalAlign=middle;whiteSpace=wrap;rounded=0;" vertex="1" parent="1">
          <mxGeometry x="1350" y="663.1299999999999" width="60" height="30" as="geometry" />
        </mxCell>
        <mxCell id="lz1Btb8TUmcO2zdvs2zw-33" value="prezzo" style="text;html=1;align=center;verticalAlign=middle;whiteSpace=wrap;rounded=0;" vertex="1" parent="1">
          <mxGeometry x="1355" y="674.3799999999999" width="60" height="30" as="geometry" />
        </mxCell>
        <mxCell id="lz1Btb8TUmcO2zdvs2zw-34" value="ID" style="text;html=1;align=center;verticalAlign=middle;whiteSpace=wrap;rounded=0;" vertex="1" parent="1">
          <mxGeometry x="1473" y="389.9999999999998" width="10" height="10" as="geometry" />
        </mxCell>
        <mxCell id="lz1Btb8TUmcO2zdvs2zw-35" value="" style="ellipse;whiteSpace=wrap;html=1;" vertex="1" parent="1">
          <mxGeometry x="1443" y="407.4999999999998" width="10" height="10" as="geometry" />
        </mxCell>
        <mxCell id="lz1Btb8TUmcO2zdvs2zw-36" value="data uscita" style="text;html=1;align=center;verticalAlign=middle;whiteSpace=wrap;rounded=0;" vertex="1" parent="1">
          <mxGeometry x="1425" y="377.4999999999998" width="40" height="30" as="geometry" />
        </mxCell>
        <mxCell id="lz1Btb8TUmcO2zdvs2zw-38" value="" style="ellipse;whiteSpace=wrap;html=1;" vertex="1" parent="1">
          <mxGeometry x="1418" y="407.4999999999998" width="10" height="10" as="geometry" />
        </mxCell>
        <mxCell id="lz1Btb8TUmcO2zdvs2zw-39" value="regione" style="text;html=1;align=center;verticalAlign=middle;whiteSpace=wrap;rounded=0;" vertex="1" parent="1">
          <mxGeometry x="1385" y="389.9999999999998" width="30" height="10" as="geometry" />
        </mxCell>
        <mxCell id="lz1Btb8TUmcO2zdvs2zw-40" value="" style="ellipse;whiteSpace=wrap;html=1;" vertex="1" parent="1">
          <mxGeometry x="1445" y="823.7499999999998" width="10" height="10" as="geometry" />
        </mxCell>
        <mxCell id="lz1Btb8TUmcO2zdvs2zw-41" value="" style="ellipse;whiteSpace=wrap;html=1;" vertex="1" parent="1">
          <mxGeometry x="1485" y="823.7499999999998" width="10" height="10" as="geometry" />
        </mxCell>
        <mxCell id="lz1Btb8TUmcO2zdvs2zw-42" value="" style="ellipse;whiteSpace=wrap;html=1;" vertex="1" parent="1">
          <mxGeometry x="1525" y="823.7499999999998" width="10" height="10" as="geometry" />
        </mxCell>
        <mxCell id="lz1Btb8TUmcO2zdvs2zw-43" value="ente gradatore" style="text;html=1;align=center;verticalAlign=middle;whiteSpace=wrap;rounded=0;" vertex="1" parent="1">
          <mxGeometry x="1420" y="833.7499999999998" width="45" height="30" as="geometry" />
        </mxCell>
        <mxCell id="lz1Btb8TUmcO2zdvs2zw-44" value="voto" style="text;html=1;align=center;verticalAlign=middle;whiteSpace=wrap;rounded=0;" vertex="1" parent="1">
          <mxGeometry x="1460" y="823.7499999999998" width="60" height="30" as="geometry" />
        </mxCell>
        <mxCell id="lz1Btb8TUmcO2zdvs2zw-45" value="ID certificazione" style="text;html=1;align=center;verticalAlign=middle;whiteSpace=wrap;rounded=0;" vertex="1" parent="1">
          <mxGeometry x="1505" y="833.7499999999998" width="60" height="30" as="geometry" />
        </mxCell>
        <mxCell id="lz1Btb8TUmcO2zdvs2zw-46" value="" style="endArrow=none;html=1;rounded=0;exitX=0.5;exitY=0;exitDx=0;exitDy=0;" edge="1" parent="1" source="lz1Btb8TUmcO2zdvs2zw-40">
          <mxGeometry width="50" height="50" relative="1" as="geometry">
            <mxPoint x="1449.82" y="833.7499999999998" as="sourcePoint" />
            <mxPoint x="1449.82" y="803.7499999999998" as="targetPoint" />
          </mxGeometry>
        </mxCell>
        <mxCell id="lz1Btb8TUmcO2zdvs2zw-47" value="" style="endArrow=none;html=1;rounded=0;exitX=0.5;exitY=0;exitDx=0;exitDy=0;" edge="1" parent="1">
          <mxGeometry width="50" height="50" relative="1" as="geometry">
            <mxPoint x="1490" y="823.7499999999998" as="sourcePoint" />
            <mxPoint x="1489.82" y="803.7499999999998" as="targetPoint" />
          </mxGeometry>
        </mxCell>
        <mxCell id="lz1Btb8TUmcO2zdvs2zw-48" value="" style="endArrow=none;html=1;rounded=0;exitX=0.5;exitY=0;exitDx=0;exitDy=0;" edge="1" parent="1">
          <mxGeometry width="50" height="50" relative="1" as="geometry">
            <mxPoint x="1530.18" y="823.7499999999998" as="sourcePoint" />
            <mxPoint x="1530" y="803.7499999999998" as="targetPoint" />
          </mxGeometry>
        </mxCell>
        <mxCell id="lz1Btb8TUmcO2zdvs2zw-49" value="" style="ellipse;whiteSpace=wrap;html=1;" vertex="1" parent="1">
          <mxGeometry x="2021.8899999999999" y="653.1299999999998" width="10" height="10" as="geometry" />
        </mxCell>
        <mxCell id="lz1Btb8TUmcO2zdvs2zw-50" value="quantità" style="text;html=1;align=center;verticalAlign=middle;whiteSpace=wrap;rounded=0;" vertex="1" parent="1">
          <mxGeometry x="2029.1700000000003" y="641.2599999999998" width="60" height="30" as="geometry" />
        </mxCell>
        <mxCell id="lz1Btb8TUmcO2zdvs2zw-51" value="" style="ellipse;whiteSpace=wrap;html=1;aspect=fixed;" vertex="1" parent="1">
          <mxGeometry x="1801" y="763.7499999999998" width="10" height="10" as="geometry" />
        </mxCell>
        <mxCell id="lz1Btb8TUmcO2zdvs2zw-52" value="" style="endArrow=none;html=1;rounded=0;" edge="1" parent="1">
          <mxGeometry width="50" height="50" relative="1" as="geometry">
            <mxPoint x="1781" y="768.6399999999999" as="sourcePoint" />
            <mxPoint x="1801" y="768.6399999999999" as="targetPoint" />
          </mxGeometry>
        </mxCell>
        <mxCell id="lz1Btb8TUmcO2zdvs2zw-53" value="" style="ellipse;whiteSpace=wrap;html=1;aspect=fixed;" vertex="1" parent="1">
          <mxGeometry x="1801" y="783.7499999999998" width="10" height="10" as="geometry" />
        </mxCell>
        <mxCell id="lz1Btb8TUmcO2zdvs2zw-54" value="" style="endArrow=none;html=1;rounded=0;" edge="1" parent="1">
          <mxGeometry width="50" height="50" relative="1" as="geometry">
            <mxPoint x="1781" y="788.6399999999999" as="sourcePoint" />
            <mxPoint x="1801" y="788.6399999999999" as="targetPoint" />
          </mxGeometry>
        </mxCell>
        <mxCell id="lz1Btb8TUmcO2zdvs2zw-55" value="quantità" style="text;html=1;align=center;verticalAlign=middle;whiteSpace=wrap;rounded=0;" vertex="1" parent="1">
          <mxGeometry x="1811" y="753.7499999999998" width="60" height="30" as="geometry" />
        </mxCell>
        <mxCell id="lz1Btb8TUmcO2zdvs2zw-56" value="sconto percentuale" style="text;html=1;align=center;verticalAlign=middle;whiteSpace=wrap;rounded=0;" vertex="1" parent="1">
          <mxGeometry x="1811" y="783.7499999999998" width="60" height="30" as="geometry" />
        </mxCell>
        <mxCell id="lz1Btb8TUmcO2zdvs2zw-57" value="" style="endArrow=none;html=1;rounded=0;" edge="1" parent="1">
          <mxGeometry width="50" height="50" relative="1" as="geometry">
            <mxPoint x="1767.58" y="823.7499999999998" as="sourcePoint" />
            <mxPoint x="1767.58" y="803.7499999999998" as="targetPoint" />
          </mxGeometry>
        </mxCell>
        <mxCell id="lz1Btb8TUmcO2zdvs2zw-58" value="" style="ellipse;whiteSpace=wrap;html=1;aspect=fixed;fillColor=#000000;" vertex="1" parent="1">
          <mxGeometry x="1762.88" y="823.7499999999998" width="10" height="10" as="geometry" />
        </mxCell>
        <mxCell id="lz1Btb8TUmcO2zdvs2zw-59" value="ID promozione" style="text;html=1;align=center;verticalAlign=middle;whiteSpace=wrap;rounded=0;" vertex="1" parent="1">
          <mxGeometry x="1740.45" y="823.75" width="82.11" height="30" as="geometry" />
        </mxCell>
        <mxCell id="lz1Btb8TUmcO2zdvs2zw-60" value="" style="endArrow=none;html=1;rounded=0;entryX=0.5;entryY=1;entryDx=0;entryDy=0;exitX=0.5;exitY=0;exitDx=0;exitDy=0;" edge="1" parent="1" source="lz1Btb8TUmcO2zdvs2zw-61" target="lz1Btb8TUmcO2zdvs2zw-7">
          <mxGeometry width="50" height="50" relative="1" as="geometry">
            <mxPoint x="1595" y="753.7499999999998" as="sourcePoint" />
            <mxPoint x="1604" y="713.7499999999998" as="targetPoint" />
          </mxGeometry>
        </mxCell>
        <mxCell id="lz1Btb8TUmcO2zdvs2zw-61" value="applicazione" style="rhombus;whiteSpace=wrap;html=1;" vertex="1" parent="1">
          <mxGeometry x="1553" y="753.7499999999998" width="82" height="50" as="geometry" />
        </mxCell>
        <mxCell id="lz1Btb8TUmcO2zdvs2zw-62" value="" style="endArrow=none;html=1;rounded=0;" edge="1" parent="1">
          <mxGeometry width="50" height="50" relative="1" as="geometry">
            <mxPoint x="1635" y="778.4499999999998" as="sourcePoint" />
            <mxPoint x="1694.99" y="778.4499999999998" as="targetPoint" />
          </mxGeometry>
        </mxCell>
        <mxCell id="lz1Btb8TUmcO2zdvs2zw-63" value="(0, N)" style="text;html=1;align=center;verticalAlign=middle;whiteSpace=wrap;rounded=0;" vertex="1" parent="1">
          <mxGeometry x="1584" y="718.7499999999998" width="60" height="30" as="geometry" />
        </mxCell>
        <mxCell id="lz1Btb8TUmcO2zdvs2zw-64" value="(1, N)" style="text;html=1;align=center;verticalAlign=middle;whiteSpace=wrap;rounded=0;" vertex="1" parent="1">
          <mxGeometry x="1630" y="753.7499999999998" width="60" height="30" as="geometry" />
        </mxCell>
        <mxCell id="lz1Btb8TUmcO2zdvs2zw-65" value="Ordine" style="rounded=0;whiteSpace=wrap;html=1;" vertex="1" parent="1">
          <mxGeometry x="1860.8899999999999" y="349.9999999999998" width="96" height="40" as="geometry" />
        </mxCell>
        <mxCell id="lz1Btb8TUmcO2zdvs2zw-68" value="" style="endArrow=none;html=1;rounded=0;" edge="1" parent="1" target="lz1Btb8TUmcO2zdvs2zw-69">
          <mxGeometry width="50" height="50" relative="1" as="geometry">
            <mxPoint x="1937.87" y="349.9999999999998" as="sourcePoint" />
            <mxPoint x="1937.87" y="329.9999999999998" as="targetPoint" />
          </mxGeometry>
        </mxCell>
        <mxCell id="lz1Btb8TUmcO2zdvs2zw-69" value="" style="ellipse;whiteSpace=wrap;html=1;aspect=fixed;fillColor=#000000;" vertex="1" parent="1">
          <mxGeometry x="1932.88" y="319.9999999999998" width="10" height="10" as="geometry" />
        </mxCell>
        <mxCell id="lz1Btb8TUmcO2zdvs2zw-70" value="ID" style="text;html=1;align=center;verticalAlign=middle;whiteSpace=wrap;rounded=0;" vertex="1" parent="1">
          <mxGeometry x="1927.8899999999999" y="299.3799999999999" width="20" height="11.25" as="geometry" />
        </mxCell>
        <mxCell id="lz1Btb8TUmcO2zdvs2zw-71" value="" style="ellipse;whiteSpace=wrap;html=1;aspect=fixed;" vertex="1" parent="1">
          <mxGeometry x="1901.88" y="319.9999999999998" width="10" height="10" as="geometry" />
        </mxCell>
        <mxCell id="lz1Btb8TUmcO2zdvs2zw-72" value="" style="ellipse;whiteSpace=wrap;html=1;fillColor=#000000;" vertex="1" parent="1">
          <mxGeometry x="1560" y="577.4999999999998" width="10" height="10" as="geometry" />
        </mxCell>
        <mxCell id="lz1Btb8TUmcO2zdvs2zw-73" value="" style="ellipse;whiteSpace=wrap;html=1;aspect=fixed;fillColor=light-dark(#FFFFFF,#EDEDED);strokeColor=#000000;" vertex="1" parent="1">
          <mxGeometry x="1577.01" y="577.4999999999998" width="10" height="10" as="geometry" />
        </mxCell>
        <mxCell id="lz1Btb8TUmcO2zdvs2zw-74" value="prezzo unitario" style="text;html=1;align=center;verticalAlign=middle;whiteSpace=wrap;rounded=0;" vertex="1" parent="1">
          <mxGeometry x="1560" y="585.6199999999998" width="60" height="30" as="geometry" />
        </mxCell>
        <mxCell id="lz1Btb8TUmcO2zdvs2zw-75" value="" style="endArrow=none;html=1;rounded=0;" edge="1" parent="1">
          <mxGeometry width="50" height="50" relative="1" as="geometry">
            <mxPoint x="1581.73" y="557.4999999999998" as="sourcePoint" />
            <mxPoint x="1581.72" y="577.4999999999998" as="targetPoint" />
          </mxGeometry>
        </mxCell>
        <mxCell id="lz1Btb8TUmcO2zdvs2zw-76" value="" style="endArrow=none;html=1;rounded=0;" edge="1" parent="1">
          <mxGeometry width="50" height="50" relative="1" as="geometry">
            <mxPoint x="1565.01" y="557.4999999999998" as="sourcePoint" />
            <mxPoint x="1565" y="577.4999999999998" as="targetPoint" />
          </mxGeometry>
        </mxCell>
        <mxCell id="lz1Btb8TUmcO2zdvs2zw-77" value="data ordine" style="text;html=1;align=center;verticalAlign=middle;whiteSpace=wrap;rounded=0;" vertex="1" parent="1">
          <mxGeometry x="1874.88" y="290" width="60" height="30" as="geometry" />
        </mxCell>
        <mxCell id="lz1Btb8TUmcO2zdvs2zw-78" value="" style="endArrow=none;html=1;rounded=0;" edge="1" parent="1">
          <mxGeometry width="50" height="50" relative="1" as="geometry">
            <mxPoint x="1906.56" y="329.9999999999998" as="sourcePoint" />
            <mxPoint x="1906.55" y="349.9999999999998" as="targetPoint" />
          </mxGeometry>
        </mxCell>
        <mxCell id="lz1Btb8TUmcO2zdvs2zw-79" value="" style="endArrow=none;html=1;rounded=0;" edge="1" parent="1" target="lz1Btb8TUmcO2zdvs2zw-80">
          <mxGeometry width="50" height="50" relative="1" as="geometry">
            <mxPoint x="1871.87" y="349.9999999999998" as="sourcePoint" />
            <mxPoint x="1871.87" y="329.9999999999998" as="targetPoint" />
          </mxGeometry>
        </mxCell>
        <mxCell id="lz1Btb8TUmcO2zdvs2zw-80" value="" style="ellipse;whiteSpace=wrap;html=1;aspect=fixed;" vertex="1" parent="1">
          <mxGeometry x="1866.88" y="319.9999999999998" width="10" height="10" as="geometry" />
        </mxCell>
        <mxCell id="lz1Btb8TUmcO2zdvs2zw-81" value="stato" style="text;html=1;align=center;verticalAlign=middle;whiteSpace=wrap;rounded=0;" vertex="1" parent="1">
          <mxGeometry x="1839.88" y="290.00999999999976" width="60" height="30" as="geometry" />
        </mxCell>
        <mxCell id="lz1Btb8TUmcO2zdvs2zw-82" value="" style="endArrow=none;html=1;rounded=0;" edge="1" parent="1">
          <mxGeometry width="50" height="50" relative="1" as="geometry">
            <mxPoint x="1534.5" y="364.9999999999998" as="sourcePoint" />
            <mxPoint x="1556.51" y="364.9999999999998" as="targetPoint" />
          </mxGeometry>
        </mxCell>
        <mxCell id="lz1Btb8TUmcO2zdvs2zw-83" value="" style="ellipse;whiteSpace=wrap;html=1;" vertex="1" parent="1">
          <mxGeometry x="1526.5" y="359.9999999999998" width="10" height="10" as="geometry" />
        </mxCell>
        <mxCell id="lz1Btb8TUmcO2zdvs2zw-84" value="quantità" style="text;html=1;align=center;verticalAlign=middle;whiteSpace=wrap;rounded=0;" vertex="1" parent="1">
          <mxGeometry x="1469.5" y="349.9999999999998" width="60" height="30" as="geometry" />
        </mxCell>
        <mxCell id="lz1Btb8TUmcO2zdvs2zw-85" value="" style="endArrow=none;html=1;rounded=0;entryX=0;entryY=0.5;entryDx=0;entryDy=0;" edge="1" parent="1" target="lz1Btb8TUmcO2zdvs2zw-86">
          <mxGeometry width="50" height="50" relative="1" as="geometry">
            <mxPoint x="1956.8899999999999" y="369.5999999999997" as="sourcePoint" />
            <mxPoint x="2025.8899999999999" y="369.5899999999997" as="targetPoint" />
          </mxGeometry>
        </mxCell>
        <mxCell id="lz1Btb8TUmcO2zdvs2zw-196" value="(0, 1)" style="edgeLabel;html=1;align=center;verticalAlign=middle;resizable=0;points=[];" connectable="0" vertex="1" parent="lz1Btb8TUmcO2zdvs2zw-85">
          <mxGeometry x="-0.009" y="-1" relative="1" as="geometry">
            <mxPoint as="offset" />
          </mxGeometry>
        </mxCell>
        <mxCell id="lz1Btb8TUmcO2zdvs2zw-86" value="acquistato da" style="rhombus;whiteSpace=wrap;html=1;" vertex="1" parent="1">
          <mxGeometry x="2050.39" y="349.9999999999998" width="99" height="40" as="geometry" />
        </mxCell>
        <mxCell id="lz1Btb8TUmcO2zdvs2zw-87" value="" style="endArrow=none;html=1;rounded=0;entryX=0;entryY=0.5;entryDx=0;entryDy=0;exitX=1;exitY=0.5;exitDx=0;exitDy=0;" edge="1" parent="1" source="lz1Btb8TUmcO2zdvs2zw-86" target="lz1Btb8TUmcO2zdvs2zw-88">
          <mxGeometry width="50" height="50" relative="1" as="geometry">
            <mxPoint x="2156.89" y="370.00999999999976" as="sourcePoint" />
            <mxPoint x="2235.89" y="369.5799999999997" as="targetPoint" />
          </mxGeometry>
        </mxCell>
        <mxCell id="lz1Btb8TUmcO2zdvs2zw-197" value="(1, N)" style="edgeLabel;html=1;align=center;verticalAlign=middle;resizable=0;points=[];" connectable="0" vertex="1" parent="lz1Btb8TUmcO2zdvs2zw-87">
          <mxGeometry x="-0.0848" relative="1" as="geometry">
            <mxPoint as="offset" />
          </mxGeometry>
        </mxCell>
        <mxCell id="lz1Btb8TUmcO2zdvs2zw-88" value="Cliente" style="rounded=0;whiteSpace=wrap;html=1;" vertex="1" parent="1">
          <mxGeometry x="2229.01" y="349.9999999999998" width="103.99" height="40" as="geometry" />
        </mxCell>
        <mxCell id="lz1Btb8TUmcO2zdvs2zw-90" value="" style="shape=flexArrow;endArrow=classic;html=1;rounded=0;strokeColor=#000000;fillColor=#000000;endWidth=17.142857142857142;endSize=3.571428571428571;entryX=0.5;entryY=1;entryDx=0;entryDy=0;" edge="1" parent="1" target="lz1Btb8TUmcO2zdvs2zw-65">
          <mxGeometry width="50" height="50" relative="1" as="geometry">
            <mxPoint x="1909" y="417.4999999999998" as="sourcePoint" />
            <mxPoint x="1909" y="397.4999999999998" as="targetPoint" />
          </mxGeometry>
        </mxCell>
        <mxCell id="lz1Btb8TUmcO2zdvs2zw-91" value="Privato" style="rounded=0;whiteSpace=wrap;html=1;" vertex="1" parent="1">
          <mxGeometry x="2205.5" y="434.9999999999998" width="75" height="30" as="geometry" />
        </mxCell>
        <mxCell id="lz1Btb8TUmcO2zdvs2zw-93" value="" style="ellipse;whiteSpace=wrap;html=1;aspect=fixed;fillColor=#000000;" vertex="1" parent="1">
          <mxGeometry x="2360.2400000000002" y="364.9999999999998" width="10" height="10" as="geometry" />
        </mxCell>
        <mxCell id="lz1Btb8TUmcO2zdvs2zw-94" value="" style="endArrow=none;html=1;rounded=0;exitX=1;exitY=0.5;exitDx=0;exitDy=0;" edge="1" parent="1" source="lz1Btb8TUmcO2zdvs2zw-88">
          <mxGeometry width="50" height="50" relative="1" as="geometry">
            <mxPoint x="2365.12" y="394.9899999999998" as="sourcePoint" />
            <mxPoint x="2360" y="370" as="targetPoint" />
          </mxGeometry>
        </mxCell>
        <mxCell id="lz1Btb8TUmcO2zdvs2zw-95" value="ID" style="text;html=1;align=center;verticalAlign=middle;whiteSpace=wrap;rounded=0;" vertex="1" parent="1">
          <mxGeometry x="2335.24" y="340" width="60" height="30" as="geometry" />
        </mxCell>
        <mxCell id="lz1Btb8TUmcO2zdvs2zw-96" value="" style="endArrow=none;html=1;rounded=0;" edge="1" parent="1">
          <mxGeometry width="50" height="50" relative="1" as="geometry">
            <mxPoint x="2183.5" y="439.7999999999997" as="sourcePoint" />
            <mxPoint x="2205.5" y="439.7999999999997" as="targetPoint" />
          </mxGeometry>
        </mxCell>
        <mxCell id="lz1Btb8TUmcO2zdvs2zw-97" value="" style="ellipse;whiteSpace=wrap;html=1;" vertex="1" parent="1">
          <mxGeometry x="2173.3799999999997" y="434.9999999999998" width="10" height="10" as="geometry" />
        </mxCell>
        <mxCell id="lz1Btb8TUmcO2zdvs2zw-100" value="nome" style="text;html=1;align=center;verticalAlign=middle;whiteSpace=wrap;rounded=0;" vertex="1" parent="1">
          <mxGeometry x="2123.8799999999997" y="424.9999999999998" width="60" height="30" as="geometry" />
        </mxCell>
        <mxCell id="lz1Btb8TUmcO2zdvs2zw-101" value="" style="endArrow=none;html=1;rounded=0;exitX=1;exitY=1;exitDx=0;exitDy=0;" edge="1" parent="1">
          <mxGeometry width="50" height="50" relative="1" as="geometry">
            <mxPoint x="2183.3799999999997" y="454.99999999999955" as="sourcePoint" />
            <mxPoint x="2205.3799999999997" y="455.00999999999976" as="targetPoint" />
          </mxGeometry>
        </mxCell>
        <mxCell id="lz1Btb8TUmcO2zdvs2zw-102" value="" style="ellipse;whiteSpace=wrap;html=1;" vertex="1" parent="1">
          <mxGeometry x="2173.8799999999997" y="450.00999999999976" width="10" height="10" as="geometry" />
        </mxCell>
        <mxCell id="lz1Btb8TUmcO2zdvs2zw-103" value="e-mail" style="text;html=1;align=center;verticalAlign=middle;whiteSpace=wrap;rounded=0;" vertex="1" parent="1">
          <mxGeometry x="2122.12" y="440.00999999999976" width="60" height="30" as="geometry" />
        </mxCell>
        <mxCell id="lz1Btb8TUmcO2zdvs2zw-104" value="" style="ellipse;whiteSpace=wrap;html=1;fontStyle=1" vertex="1" parent="1">
          <mxGeometry x="2206.55" y="402.4999999999998" width="10" height="10" as="geometry" />
        </mxCell>
        <mxCell id="lz1Btb8TUmcO2zdvs2zw-105" value="" style="ellipse;whiteSpace=wrap;html=1;" vertex="1" parent="1">
          <mxGeometry x="1787.5" y="457.4899999999998" width="10" height="10" as="geometry" />
        </mxCell>
        <mxCell id="lz1Btb8TUmcO2zdvs2zw-106" value="" style="endArrow=none;html=1;rounded=0;fontStyle=1;entryX=0.5;entryY=1;entryDx=0;entryDy=0;exitX=0;exitY=1;exitDx=0;exitDy=0;" edge="1" parent="1" target="lz1Btb8TUmcO2zdvs2zw-104">
          <mxGeometry width="50" height="50" relative="1" as="geometry">
            <mxPoint x="2211.38" y="434.9999999999998" as="sourcePoint" />
            <mxPoint x="2210.2999999999997" y="424.9999999999998" as="targetPoint" />
          </mxGeometry>
        </mxCell>
        <mxCell id="lz1Btb8TUmcO2zdvs2zw-188" value="(0,1)" style="edgeLabel;html=1;align=center;verticalAlign=middle;resizable=0;points=[];" connectable="0" vertex="1" parent="lz1Btb8TUmcO2zdvs2zw-106">
          <mxGeometry x="0.3969" y="-1" relative="1" as="geometry">
            <mxPoint as="offset" />
          </mxGeometry>
        </mxCell>
        <mxCell id="lz1Btb8TUmcO2zdvs2zw-107" value="telefono" style="text;html=1;align=center;verticalAlign=middle;whiteSpace=wrap;rounded=0;" vertex="1" parent="1">
          <mxGeometry x="2161.89" y="397.5" width="43.61" height="20" as="geometry" />
        </mxCell>
        <mxCell id="lz1Btb8TUmcO2zdvs2zw-108" value="&lt;div style=&quot;line-height: 100%;&quot;&gt;indirizzo spedizione&lt;/div&gt;" style="text;html=1;align=center;verticalAlign=middle;whiteSpace=wrap;rounded=0;" vertex="1" parent="1">
          <mxGeometry x="1722.62" y="457.4799999999998" width="78.38" height="30.02" as="geometry" />
        </mxCell>
        <mxCell id="lz1Btb8TUmcO2zdvs2zw-109" value="" style="endArrow=none;html=1;rounded=0;exitX=1;exitY=0.5;exitDx=0;exitDy=0;entryX=0.033;entryY=0.643;entryDx=0;entryDy=0;entryPerimeter=0;" edge="1" parent="1" source="lz1Btb8TUmcO2zdvs2zw-105">
          <mxGeometry width="50" height="50" relative="1" as="geometry">
            <mxPoint x="1792.5" y="452.4999999999998" as="sourcePoint" />
            <mxPoint x="1833" y="461.77999999999963" as="targetPoint" />
          </mxGeometry>
        </mxCell>
        <mxCell id="lz1Btb8TUmcO2zdvs2zw-111" value="" style="endArrow=none;html=1;rounded=0;exitX=0.53;exitY=-0.005;exitDx=0;exitDy=0;exitPerimeter=0;" edge="1" parent="1" source="lz1Btb8TUmcO2zdvs2zw-8">
          <mxGeometry width="50" height="50" relative="1" as="geometry">
            <mxPoint x="1635" y="693.1299999999999" as="sourcePoint" />
            <mxPoint x="1685" y="643.1299999999999" as="targetPoint" />
          </mxGeometry>
        </mxCell>
        <mxCell id="lz1Btb8TUmcO2zdvs2zw-112" value="" style="endArrow=none;html=1;rounded=0;exitX=0.443;exitY=-0.018;exitDx=0;exitDy=0;exitPerimeter=0;" edge="1" parent="1" source="lz1Btb8TUmcO2zdvs2zw-2">
          <mxGeometry width="50" height="50" relative="1" as="geometry">
            <mxPoint x="1810.8899999999999" y="414.9799999999998" as="sourcePoint" />
            <mxPoint x="1860.8899999999999" y="364.9799999999998" as="targetPoint" />
            <Array as="points">
              <mxPoint x="1613" y="364.4999999999998" />
            </Array>
          </mxGeometry>
        </mxCell>
        <mxCell id="lz1Btb8TUmcO2zdvs2zw-212" value="(1, N)" style="edgeLabel;html=1;align=center;verticalAlign=middle;resizable=0;points=[];" connectable="0" vertex="1" parent="lz1Btb8TUmcO2zdvs2zw-112">
          <mxGeometry x="0.5185" relative="1" as="geometry">
            <mxPoint as="offset" />
          </mxGeometry>
        </mxCell>
        <mxCell id="lz1Btb8TUmcO2zdvs2zw-213" value="(0, N)" style="edgeLabel;html=1;align=center;verticalAlign=middle;resizable=0;points=[];" connectable="0" vertex="1" parent="lz1Btb8TUmcO2zdvs2zw-112">
          <mxGeometry x="-0.7097" relative="1" as="geometry">
            <mxPoint as="offset" />
          </mxGeometry>
        </mxCell>
        <mxCell id="lz1Btb8TUmcO2zdvs2zw-113" value="contiene" style="rhombus;whiteSpace=wrap;html=1;" vertex="1" parent="1">
          <mxGeometry x="1555" y="339.9999999999998" width="118" height="50" as="geometry" />
        </mxCell>
        <mxCell id="lz1Btb8TUmcO2zdvs2zw-114" value="" style="endArrow=none;html=1;rounded=0;" edge="1" parent="1">
          <mxGeometry width="50" height="50" relative="1" as="geometry">
            <mxPoint x="1869" y="437.4899999999998" as="sourcePoint" />
            <mxPoint x="1952.88" y="437.4899999999998" as="targetPoint" />
            <Array as="points">
              <mxPoint x="1869" y="417.4899999999998" />
              <mxPoint x="1953" y="417.4899999999998" />
            </Array>
          </mxGeometry>
        </mxCell>
        <mxCell id="lz1Btb8TUmcO2zdvs2zw-115" value="online" style="rounded=0;whiteSpace=wrap;html=1;" vertex="1" parent="1">
          <mxGeometry x="1833" y="437.4999999999998" width="70" height="30" as="geometry" />
        </mxCell>
        <mxCell id="lz1Btb8TUmcO2zdvs2zw-116" value="in negozio" style="rounded=0;whiteSpace=wrap;html=1;" vertex="1" parent="1">
          <mxGeometry x="1923" y="437.4999999999998" width="70" height="30" as="geometry" />
        </mxCell>
        <mxCell id="lz1Btb8TUmcO2zdvs2zw-117" value="" style="endArrow=none;html=1;rounded=0;entryX=-0.004;entryY=0.878;entryDx=0;entryDy=0;entryPerimeter=0;" edge="1" parent="1" target="lz1Btb8TUmcO2zdvs2zw-65">
          <mxGeometry width="50" height="50" relative="1" as="geometry">
            <mxPoint x="1843" y="385.2499999999998" as="sourcePoint" />
            <mxPoint x="1860" y="385" as="targetPoint" />
          </mxGeometry>
        </mxCell>
        <mxCell id="lz1Btb8TUmcO2zdvs2zw-118" value="" style="ellipse;whiteSpace=wrap;html=1;" vertex="1" parent="1">
          <mxGeometry x="1833" y="379.9999999999998" width="10" height="10" as="geometry" />
        </mxCell>
        <mxCell id="lz1Btb8TUmcO2zdvs2zw-119" value="totale" style="text;html=1;align=center;verticalAlign=middle;whiteSpace=wrap;rounded=0;" vertex="1" parent="1">
          <mxGeometry x="1783" y="369.9999999999998" width="60" height="30" as="geometry" />
        </mxCell>
        <mxCell id="lz1Btb8TUmcO2zdvs2zw-120" value="" style="shape=flexArrow;endArrow=classic;html=1;rounded=0;strokeColor=#000000;fillColor=none;endWidth=17.142857142857142;endSize=3.571428571428571;exitX=0.596;exitY=-0.032;exitDx=0;exitDy=0;exitPerimeter=0;" edge="1" parent="1">
          <mxGeometry width="50" height="50" relative="1" as="geometry">
            <mxPoint x="2250.2000000000003" y="434.99999999999983" as="sourcePoint" />
            <mxPoint x="2250" y="390" as="targetPoint" />
          </mxGeometry>
        </mxCell>
        <mxCell id="lz1Btb8TUmcO2zdvs2zw-122" value="" style="endArrow=none;html=1;rounded=0;exitX=1;exitY=0.5;exitDx=0;exitDy=0;" edge="1" parent="1">
          <mxGeometry width="50" height="50" relative="1" as="geometry">
            <mxPoint x="1675" y="517.4999999999998" as="sourcePoint" />
            <mxPoint x="1833" y="517.4999999999998" as="targetPoint" />
          </mxGeometry>
        </mxCell>
        <mxCell id="lz1Btb8TUmcO2zdvs2zw-200" value="(0, N)" style="edgeLabel;html=1;align=center;verticalAlign=middle;resizable=0;points=[];" connectable="0" vertex="1" parent="lz1Btb8TUmcO2zdvs2zw-122">
          <mxGeometry x="-0.2959" y="-1" relative="1" as="geometry">
            <mxPoint as="offset" />
          </mxGeometry>
        </mxCell>
        <mxCell id="lz1Btb8TUmcO2zdvs2zw-123" value="fornitura" style="rhombus;whiteSpace=wrap;html=1;" vertex="1" parent="1">
          <mxGeometry x="1793" y="497.4999999999998" width="100" height="40" as="geometry" />
        </mxCell>
        <mxCell id="lz1Btb8TUmcO2zdvs2zw-124" value="" style="endArrow=none;html=1;rounded=0;entryX=1;entryY=0.5;entryDx=0;entryDy=0;exitX=0;exitY=0.5;exitDx=0;exitDy=0;" edge="1" parent="1" source="lz1Btb8TUmcO2zdvs2zw-49" target="lz1Btb8TUmcO2zdvs2zw-131">
          <mxGeometry width="50" height="50" relative="1" as="geometry">
            <mxPoint x="1931.61" y="686.7499999999998" as="sourcePoint" />
            <mxPoint x="1908.2" y="661.2499999999995" as="targetPoint" />
          </mxGeometry>
        </mxCell>
        <mxCell id="lz1Btb8TUmcO2zdvs2zw-125" value="(0, N)" style="endArrow=none;html=1;rounded=0;exitX=1;exitY=0.5;exitDx=0;exitDy=0;" edge="1" parent="1" source="lz1Btb8TUmcO2zdvs2zw-123">
          <mxGeometry width="50" height="50" relative="1" as="geometry">
            <mxPoint x="1893" y="517.4999999999998" as="sourcePoint" />
            <mxPoint x="2053" y="517.4999999999998" as="targetPoint" />
          </mxGeometry>
        </mxCell>
        <mxCell id="lz1Btb8TUmcO2zdvs2zw-126" value="Azienda" style="rounded=0;whiteSpace=wrap;html=1;" vertex="1" parent="1">
          <mxGeometry x="2053.0299999999997" y="497.4999999999998" width="93.72" height="40" as="geometry" />
        </mxCell>
        <mxCell id="lz1Btb8TUmcO2zdvs2zw-129" value="" style="endArrow=none;html=1;rounded=0;" edge="1" parent="1">
          <mxGeometry width="50" height="50" relative="1" as="geometry">
            <mxPoint x="1953.6899999999998" y="664.4999999999998" as="sourcePoint" />
            <mxPoint x="1952.3" y="720.7499999999998" as="targetPoint" />
            <Array as="points">
              <mxPoint x="1952.3" y="663.7499999999998" />
            </Array>
          </mxGeometry>
        </mxCell>
        <mxCell id="lz1Btb8TUmcO2zdvs2zw-130" value="" style="endArrow=none;html=1;rounded=0;" edge="1" parent="1" target="lz1Btb8TUmcO2zdvs2zw-131">
          <mxGeometry width="50" height="50" relative="1" as="geometry">
            <mxPoint x="1670" y="558" as="sourcePoint" />
            <mxPoint x="1973" y="607.4999999999998" as="targetPoint" />
            <Array as="points">
              <mxPoint x="1670" y="600" />
              <mxPoint x="1953" y="600" />
            </Array>
          </mxGeometry>
        </mxCell>
        <mxCell id="lz1Btb8TUmcO2zdvs2zw-198" value="(0, N)" style="edgeLabel;html=1;align=center;verticalAlign=middle;resizable=0;points=[];" connectable="0" vertex="1" parent="lz1Btb8TUmcO2zdvs2zw-130">
          <mxGeometry x="0.0335" y="-3" relative="1" as="geometry">
            <mxPoint as="offset" />
          </mxGeometry>
        </mxCell>
        <mxCell id="lz1Btb8TUmcO2zdvs2zw-131" value="situato" style="rhombus;whiteSpace=wrap;html=1;" vertex="1" parent="1">
          <mxGeometry x="1906.4999999999998" y="633.7499999999998" width="93" height="47.5" as="geometry" />
        </mxCell>
        <mxCell id="lz1Btb8TUmcO2zdvs2zw-132" value="Magazzino" style="rounded=0;whiteSpace=wrap;html=1;" vertex="1" parent="1">
          <mxGeometry x="1903" y="713.75" width="107" height="46.25" as="geometry" />
        </mxCell>
        <mxCell id="lz1Btb8TUmcO2zdvs2zw-134" value="(0, N)" style="text;html=1;align=center;verticalAlign=middle;whiteSpace=wrap;rounded=0;" vertex="1" parent="1">
          <mxGeometry x="1939.4999999999998" y="683.7499999999998" width="60" height="30" as="geometry" />
        </mxCell>
        <mxCell id="lz1Btb8TUmcO2zdvs2zw-137" value="" style="endArrow=none;html=1;rounded=0;exitX=0.5;exitY=0;exitDx=0;exitDy=0;" edge="1" parent="1" source="lz1Btb8TUmcO2zdvs2zw-138">
          <mxGeometry width="50" height="50" relative="1" as="geometry">
            <mxPoint x="2216.89" y="587.4999999999998" as="sourcePoint" />
            <mxPoint x="2320" y="390" as="targetPoint" />
            <Array as="points">
              <mxPoint x="2270" y="550" />
              <mxPoint x="2320" y="550" />
            </Array>
          </mxGeometry>
        </mxCell>
        <mxCell id="lz1Btb8TUmcO2zdvs2zw-194" value="(0, 1)" style="edgeLabel;html=1;align=center;verticalAlign=middle;resizable=0;points=[];" connectable="0" vertex="1" parent="lz1Btb8TUmcO2zdvs2zw-137">
          <mxGeometry x="0.6818" y="-2" relative="1" as="geometry">
            <mxPoint as="offset" />
          </mxGeometry>
        </mxCell>
        <mxCell id="lz1Btb8TUmcO2zdvs2zw-138" value="registrato" style="rhombus;whiteSpace=wrap;html=1;" vertex="1" parent="1">
          <mxGeometry x="2212.34" y="571.2499999999998" width="115.9" height="40" as="geometry" />
        </mxCell>
        <mxCell id="lz1Btb8TUmcO2zdvs2zw-139" value="Registrazione" style="rounded=0;whiteSpace=wrap;html=1;" vertex="1" parent="1">
          <mxGeometry x="2230.29" y="641.2599999999998" width="80" height="26.24" as="geometry" />
        </mxCell>
        <mxCell id="lz1Btb8TUmcO2zdvs2zw-140" value="" style="ellipse;whiteSpace=wrap;html=1;fillColor=#000000;" vertex="1" parent="1">
          <mxGeometry x="1468" y="407.4999999999998" width="10.5" height="10" as="geometry" />
        </mxCell>
        <mxCell id="lz1Btb8TUmcO2zdvs2zw-141" value="" style="endArrow=none;html=1;rounded=0;entryX=0.5;entryY=1;entryDx=0;entryDy=0;" edge="1" parent="1" target="lz1Btb8TUmcO2zdvs2zw-38">
          <mxGeometry width="50" height="50" relative="1" as="geometry">
            <mxPoint x="1423" y="437.4999999999998" as="sourcePoint" />
            <mxPoint x="1493" y="387.4999999999998" as="targetPoint" />
          </mxGeometry>
        </mxCell>
        <mxCell id="lz1Btb8TUmcO2zdvs2zw-142" value="" style="endArrow=none;html=1;rounded=0;entryX=0.5;entryY=1;entryDx=0;entryDy=0;exitX=0.482;exitY=-0.008;exitDx=0;exitDy=0;exitPerimeter=0;" edge="1" parent="1" source="lz1Btb8TUmcO2zdvs2zw-23" target="lz1Btb8TUmcO2zdvs2zw-35">
          <mxGeometry width="50" height="50" relative="1" as="geometry">
            <mxPoint x="1443" y="437.4999999999998" as="sourcePoint" />
            <mxPoint x="1493" y="387.4999999999998" as="targetPoint" />
          </mxGeometry>
        </mxCell>
        <mxCell id="lz1Btb8TUmcO2zdvs2zw-143" value="" style="endArrow=none;html=1;rounded=0;exitX=0.829;exitY=0.003;exitDx=0;exitDy=0;exitPerimeter=0;" edge="1" parent="1" source="lz1Btb8TUmcO2zdvs2zw-23">
          <mxGeometry width="50" height="50" relative="1" as="geometry">
            <mxPoint x="1423" y="467.4999999999998" as="sourcePoint" />
            <mxPoint x="1473" y="417.4999999999998" as="targetPoint" />
          </mxGeometry>
        </mxCell>
        <mxCell id="lz1Btb8TUmcO2zdvs2zw-144" value="" style="endArrow=none;html=1;rounded=0;exitX=0.5;exitY=0;exitDx=0;exitDy=0;" edge="1" parent="1" source="lz1Btb8TUmcO2zdvs2zw-139">
          <mxGeometry width="50" height="50" relative="1" as="geometry">
            <mxPoint x="2220.12" y="661.2499999999998" as="sourcePoint" />
            <mxPoint x="2270.12" y="611.2499999999998" as="targetPoint" />
          </mxGeometry>
        </mxCell>
        <mxCell id="lz1Btb8TUmcO2zdvs2zw-214" value="(1, 1)" style="edgeLabel;html=1;align=center;verticalAlign=middle;resizable=0;points=[];" connectable="0" vertex="1" parent="lz1Btb8TUmcO2zdvs2zw-144">
          <mxGeometry x="0.0169" relative="1" as="geometry">
            <mxPoint as="offset" />
          </mxGeometry>
        </mxCell>
        <mxCell id="lz1Btb8TUmcO2zdvs2zw-145" value="" style="ellipse;whiteSpace=wrap;html=1;aspect=fixed;" vertex="1" parent="1">
          <mxGeometry x="2186.62" y="768.7499999999998" width="10" height="10" as="geometry" />
        </mxCell>
        <mxCell id="lz1Btb8TUmcO2zdvs2zw-146" value="" style="endArrow=none;html=1;rounded=0;" edge="1" parent="1">
          <mxGeometry width="50" height="50" relative="1" as="geometry">
            <mxPoint x="2191.6" y="768.7499999999998" as="sourcePoint" />
            <mxPoint x="2191.49" y="742.5099999999998" as="targetPoint" />
          </mxGeometry>
        </mxCell>
        <mxCell id="lz1Btb8TUmcO2zdvs2zw-147" value="password" style="text;html=1;align=center;verticalAlign=middle;whiteSpace=wrap;rounded=0;" vertex="1" parent="1">
          <mxGeometry x="2182.12" y="773.7499999999998" width="60" height="30" as="geometry" />
        </mxCell>
        <mxCell id="lz1Btb8TUmcO2zdvs2zw-148" value="" style="shape=flexArrow;endArrow=classic;html=1;rounded=0;strokeColor=#000000;fillColor=#000000;endWidth=17.142857142857142;endSize=3.571428571428571;entryX=0.5;entryY=1;entryDx=0;entryDy=0;" edge="1" parent="1">
          <mxGeometry width="50" height="50" relative="1" as="geometry">
            <mxPoint x="2270.29" y="694.4999999999998" as="sourcePoint" />
            <mxPoint x="2270.29" y="667.4999999999998" as="targetPoint" />
          </mxGeometry>
        </mxCell>
        <mxCell id="lz1Btb8TUmcO2zdvs2zw-149" value="" style="endArrow=none;html=1;rounded=0;" edge="1" parent="1">
          <mxGeometry width="50" height="50" relative="1" as="geometry">
            <mxPoint x="2230.29" y="714.4899999999998" as="sourcePoint" />
            <mxPoint x="2314.17" y="714.4899999999998" as="targetPoint" />
            <Array as="points">
              <mxPoint x="2230.29" y="694.4899999999998" />
              <mxPoint x="2314.29" y="694.4899999999998" />
            </Array>
          </mxGeometry>
        </mxCell>
        <mxCell id="lz1Btb8TUmcO2zdvs2zw-150" value="online" style="rounded=0;whiteSpace=wrap;html=1;" vertex="1" parent="1">
          <mxGeometry x="2184.2400000000002" y="713.7499999999998" width="80" height="30" as="geometry" />
        </mxCell>
        <mxCell id="lz1Btb8TUmcO2zdvs2zw-151" value="carta fedeltà" style="rounded=0;whiteSpace=wrap;html=1;" vertex="1" parent="1">
          <mxGeometry x="2283.2400000000002" y="713.7499999999998" width="80" height="30" as="geometry" />
        </mxCell>
        <mxCell id="lz1Btb8TUmcO2zdvs2zw-155" value="" style="endArrow=none;html=1;rounded=0;" edge="1" parent="1">
          <mxGeometry width="50" height="50" relative="1" as="geometry">
            <mxPoint x="2310.29" y="654.2099999999998" as="sourcePoint" />
            <mxPoint x="2326.23" y="654.2099999999998" as="targetPoint" />
          </mxGeometry>
        </mxCell>
        <mxCell id="lz1Btb8TUmcO2zdvs2zw-156" value="" style="ellipse;whiteSpace=wrap;html=1;" vertex="1" parent="1">
          <mxGeometry x="2324.25" y="649.3799999999998" width="10.99" height="10" as="geometry" />
        </mxCell>
        <mxCell id="lz1Btb8TUmcO2zdvs2zw-157" value="data registrazione" style="text;html=1;align=center;verticalAlign=middle;whiteSpace=wrap;rounded=0;" vertex="1" parent="1">
          <mxGeometry x="2333.29" y="649.3899999999998" width="105.94" height="7.48" as="geometry" />
        </mxCell>
        <mxCell id="lz1Btb8TUmcO2zdvs2zw-158" value="" style="ellipse;whiteSpace=wrap;html=1;" vertex="1" parent="1">
          <mxGeometry x="1787.5" y="444.9999999999998" width="10" height="10" as="geometry" />
        </mxCell>
        <mxCell id="lz1Btb8TUmcO2zdvs2zw-159" value="" style="endArrow=none;html=1;rounded=0;exitX=0.008;exitY=0.409;exitDx=0;exitDy=0;entryX=1;entryY=0.5;entryDx=0;entryDy=0;exitPerimeter=0;" edge="1" parent="1" source="lz1Btb8TUmcO2zdvs2zw-115" target="lz1Btb8TUmcO2zdvs2zw-158">
          <mxGeometry width="50" height="50" relative="1" as="geometry">
            <mxPoint x="1748" y="497.4999999999998" as="sourcePoint" />
            <mxPoint x="1800" y="439.9999999999998" as="targetPoint" />
          </mxGeometry>
        </mxCell>
        <mxCell id="lz1Btb8TUmcO2zdvs2zw-242" value="(0,1)" style="edgeLabel;html=1;align=center;verticalAlign=middle;resizable=0;points=[];" connectable="0" vertex="1" parent="lz1Btb8TUmcO2zdvs2zw-159">
          <mxGeometry x="0.0225" relative="1" as="geometry">
            <mxPoint as="offset" />
          </mxGeometry>
        </mxCell>
        <mxCell id="lz1Btb8TUmcO2zdvs2zw-160" value="data consegna" style="text;html=1;align=center;verticalAlign=middle;whiteSpace=wrap;rounded=0;" vertex="1" parent="1">
          <mxGeometry x="1693" y="441.25" width="104" height="15" as="geometry" />
        </mxCell>
        <mxCell id="lz1Btb8TUmcO2zdvs2zw-161" value="" style="ellipse;whiteSpace=wrap;html=1;" vertex="1" parent="1">
          <mxGeometry x="2106.8900000000003" y="556.5499999999997" width="10" height="10" as="geometry" />
        </mxCell>
        <mxCell id="lz1Btb8TUmcO2zdvs2zw-162" value="" style="ellipse;whiteSpace=wrap;html=1;fillColor=#000000;" vertex="1" parent="1">
          <mxGeometry x="2081.8900000000003" y="556.5499999999997" width="10" height="10" as="geometry" />
        </mxCell>
        <mxCell id="lz1Btb8TUmcO2zdvs2zw-163" value="" style="endArrow=none;html=1;rounded=0;exitX=0.5;exitY=0;exitDx=0;exitDy=0;entryX=0.064;entryY=1.017;entryDx=0;entryDy=0;entryPerimeter=0;" edge="1" parent="1" source="lz1Btb8TUmcO2zdvs2zw-162">
          <mxGeometry width="50" height="50" relative="1" as="geometry">
            <mxPoint x="2038.77" y="587.7999999999997" as="sourcePoint" />
            <mxPoint x="2086.6900000000005" y="538.3099999999997" as="targetPoint" />
          </mxGeometry>
        </mxCell>
        <mxCell id="lz1Btb8TUmcO2zdvs2zw-164" value="" style="endArrow=none;html=1;rounded=0;exitX=0.5;exitY=0;exitDx=0;exitDy=0;entryX=0.395;entryY=0.99;entryDx=0;entryDy=0;entryPerimeter=0;" edge="1" parent="1" source="lz1Btb8TUmcO2zdvs2zw-161">
          <mxGeometry width="50" height="50" relative="1" as="geometry">
            <mxPoint x="2063.94" y="587.7999999999997" as="sourcePoint" />
            <mxPoint x="2111.5150000000003" y="537.4999999999995" as="targetPoint" />
          </mxGeometry>
        </mxCell>
        <mxCell id="lz1Btb8TUmcO2zdvs2zw-165" value="P. IVA" style="text;html=1;align=center;verticalAlign=middle;whiteSpace=wrap;rounded=0;" vertex="1" parent="1">
          <mxGeometry x="2051.5299999999997" y="559.9999999999998" width="60" height="30" as="geometry" />
        </mxCell>
        <mxCell id="lz1Btb8TUmcO2zdvs2zw-166" value="indirizzo" style="text;html=1;align=center;verticalAlign=middle;whiteSpace=wrap;rounded=0;" vertex="1" parent="1">
          <mxGeometry x="2091.8900000000003" y="559.9999999999998" width="60" height="30" as="geometry" />
        </mxCell>
        <mxCell id="lz1Btb8TUmcO2zdvs2zw-167" value="" style="ellipse;whiteSpace=wrap;html=1;aspect=fixed;fillColor=#000000;" vertex="1" parent="1">
          <mxGeometry x="2199.48" y="649.3899999999998" width="10" height="10" as="geometry" />
        </mxCell>
        <mxCell id="lz1Btb8TUmcO2zdvs2zw-168" value="" style="ellipse;whiteSpace=wrap;html=1;aspect=fixed;" vertex="1" parent="1">
          <mxGeometry x="2287.7400000000002" y="769.9899999999998" width="10" height="10" as="geometry" />
        </mxCell>
        <mxCell id="lz1Btb8TUmcO2zdvs2zw-169" value="" style="endArrow=none;html=1;rounded=0;" edge="1" parent="1">
          <mxGeometry width="50" height="50" relative="1" as="geometry">
            <mxPoint x="2292.7200000000003" y="769.9899999999998" as="sourcePoint" />
            <mxPoint x="2292.61" y="743.7499999999998" as="targetPoint" />
          </mxGeometry>
        </mxCell>
        <mxCell id="lz1Btb8TUmcO2zdvs2zw-170" value="ID" style="text;html=1;align=center;verticalAlign=middle;whiteSpace=wrap;rounded=0;" vertex="1" parent="1">
          <mxGeometry x="2190.53" y="659.3899999999998" width="25.36" height="20" as="geometry" />
        </mxCell>
        <mxCell id="lz1Btb8TUmcO2zdvs2zw-171" value="punti accumulati" style="text;html=1;align=center;verticalAlign=middle;whiteSpace=wrap;rounded=0;" vertex="1" parent="1">
          <mxGeometry x="2283.2400000000002" y="773.7499999999998" width="60" height="30" as="geometry" />
        </mxCell>
        <mxCell id="lz1Btb8TUmcO2zdvs2zw-172" value="" style="endArrow=none;html=1;rounded=0;exitX=0.389;exitY=0.529;exitDx=0;exitDy=0;entryX=0;entryY=0.5;entryDx=0;entryDy=0;exitPerimeter=0;" edge="1" parent="1" source="lz1Btb8TUmcO2zdvs2zw-167" target="lz1Btb8TUmcO2zdvs2zw-139">
          <mxGeometry width="50" height="50" relative="1" as="geometry">
            <mxPoint x="2181.58" y="702.5099999999998" as="sourcePoint" />
            <mxPoint x="2231.58" y="652.5099999999998" as="targetPoint" />
          </mxGeometry>
        </mxCell>
        <mxCell id="lz1Btb8TUmcO2zdvs2zw-173" value="" style="ellipse;whiteSpace=wrap;html=1;" vertex="1" parent="1">
          <mxGeometry x="1985.8899999999999" y="379.9999999999998" width="10" height="10" as="geometry" />
        </mxCell>
        <mxCell id="lz1Btb8TUmcO2zdvs2zw-174" value="" style="endArrow=none;html=1;rounded=0;exitX=0.999;exitY=0.88;exitDx=0;exitDy=0;entryX=0;entryY=0.5;entryDx=0;entryDy=0;exitPerimeter=0;" edge="1" parent="1" source="lz1Btb8TUmcO2zdvs2zw-65" target="lz1Btb8TUmcO2zdvs2zw-173">
          <mxGeometry width="50" height="50" relative="1" as="geometry">
            <mxPoint x="1934.88" y="434.9999999999998" as="sourcePoint" />
            <mxPoint x="1984.88" y="384.9999999999998" as="targetPoint" />
          </mxGeometry>
        </mxCell>
        <mxCell id="lz1Btb8TUmcO2zdvs2zw-175" value="metodo di pagamento" style="text;html=1;align=center;verticalAlign=middle;whiteSpace=wrap;rounded=0;" vertex="1" parent="1">
          <mxGeometry x="1990.89" y="387.4999999999998" width="60" height="30" as="geometry" />
        </mxCell>
        <mxCell id="lz1Btb8TUmcO2zdvs2zw-176" value="" style="endArrow=none;html=1;rounded=0;" edge="1" parent="1">
          <mxGeometry width="50" height="50" relative="1" as="geometry">
            <mxPoint x="1993" y="449.9999999999998" as="sourcePoint" />
            <mxPoint x="2010" y="449.9999999999998" as="targetPoint" />
          </mxGeometry>
        </mxCell>
        <mxCell id="lz1Btb8TUmcO2zdvs2zw-177" value="" style="ellipse;whiteSpace=wrap;html=1;" vertex="1" parent="1">
          <mxGeometry x="2010" y="444.9999999999998" width="10" height="10" as="geometry" />
        </mxCell>
        <mxCell id="lz1Btb8TUmcO2zdvs2zw-178" value="punto vendita" style="text;html=1;align=center;verticalAlign=middle;whiteSpace=wrap;rounded=0;" vertex="1" parent="1">
          <mxGeometry x="1996.89" y="452.50999999999976" width="60" height="30" as="geometry" />
        </mxCell>
        <mxCell id="lz1Btb8TUmcO2zdvs2zw-179" value="" style="ellipse;whiteSpace=wrap;html=1;" vertex="1" parent="1">
          <mxGeometry x="1787.5" y="432.51" width="10" height="10" as="geometry" />
        </mxCell>
        <mxCell id="lz1Btb8TUmcO2zdvs2zw-180" value="" style="endArrow=none;html=1;rounded=0;exitX=1;exitY=0.5;exitDx=0;exitDy=0;entryX=0;entryY=0;entryDx=0;entryDy=0;" edge="1" parent="1" source="lz1Btb8TUmcO2zdvs2zw-179" target="lz1Btb8TUmcO2zdvs2zw-115">
          <mxGeometry width="50" height="50" relative="1" as="geometry">
            <mxPoint x="1783" y="487.5" as="sourcePoint" />
            <mxPoint x="1833" y="437.5" as="targetPoint" />
          </mxGeometry>
        </mxCell>
        <mxCell id="lz1Btb8TUmcO2zdvs2zw-181" value="data spedizione" style="text;html=1;align=center;verticalAlign=middle;whiteSpace=wrap;rounded=0;" vertex="1" parent="1">
          <mxGeometry x="1693" y="422.5" width="100" height="30" as="geometry" />
        </mxCell>
        <mxCell id="lz1Btb8TUmcO2zdvs2zw-182" value="corriere" style="text;html=1;align=center;verticalAlign=middle;whiteSpace=wrap;rounded=0;" vertex="1" parent="1">
          <mxGeometry x="1854.88" y="477.5" width="100" height="10" as="geometry" />
        </mxCell>
        <mxCell id="lz1Btb8TUmcO2zdvs2zw-183" value="" style="ellipse;whiteSpace=wrap;html=1;" vertex="1" parent="1">
          <mxGeometry x="1866.88" y="477.5" width="10" height="10" as="geometry" />
        </mxCell>
        <mxCell id="lz1Btb8TUmcO2zdvs2zw-184" value="" style="endArrow=none;html=1;rounded=0;exitX=0.5;exitY=0;exitDx=0;exitDy=0;entryX=0.555;entryY=0.991;entryDx=0;entryDy=0;entryPerimeter=0;" edge="1" parent="1" source="lz1Btb8TUmcO2zdvs2zw-183" target="lz1Btb8TUmcO2zdvs2zw-115">
          <mxGeometry width="50" height="50" relative="1" as="geometry">
            <mxPoint x="1821" y="517.5" as="sourcePoint" />
            <mxPoint x="1872" y="470" as="targetPoint" />
          </mxGeometry>
        </mxCell>
        <mxCell id="lz1Btb8TUmcO2zdvs2zw-190" value="" style="endArrow=none;html=1;rounded=0;exitX=1;exitY=0.5;exitDx=0;exitDy=0;" edge="1" parent="1" source="lz1Btb8TUmcO2zdvs2zw-191">
          <mxGeometry width="50" height="50" relative="1" as="geometry">
            <mxPoint x="2260" y="520" as="sourcePoint" />
            <mxPoint x="2300" y="390" as="targetPoint" />
            <Array as="points">
              <mxPoint x="2300" y="516" />
            </Array>
          </mxGeometry>
        </mxCell>
        <mxCell id="lz1Btb8TUmcO2zdvs2zw-193" value="(0, 1)" style="edgeLabel;html=1;align=center;verticalAlign=middle;resizable=0;points=[];" connectable="0" vertex="1" parent="lz1Btb8TUmcO2zdvs2zw-190">
          <mxGeometry x="-0.084" y="-2" relative="1" as="geometry">
            <mxPoint as="offset" />
          </mxGeometry>
        </mxCell>
        <mxCell id="lz1Btb8TUmcO2zdvs2zw-191" value="&lt;font style=&quot;font-size: 10px;&quot;&gt;cliente azienda&lt;/font&gt;" style="rhombus;whiteSpace=wrap;html=1;" vertex="1" parent="1">
          <mxGeometry x="2190.53" y="497.5" width="99.48" height="37.5" as="geometry" />
        </mxCell>
        <mxCell id="lz1Btb8TUmcO2zdvs2zw-192" value="" style="endArrow=none;html=1;rounded=0;exitX=0.999;exitY=0.461;exitDx=0;exitDy=0;entryX=0;entryY=0.5;entryDx=0;entryDy=0;exitPerimeter=0;" edge="1" parent="1" source="lz1Btb8TUmcO2zdvs2zw-126" target="lz1Btb8TUmcO2zdvs2zw-191">
          <mxGeometry width="50" height="50" relative="1" as="geometry">
            <mxPoint x="2130" y="570" as="sourcePoint" />
            <mxPoint x="2180" y="520" as="targetPoint" />
          </mxGeometry>
        </mxCell>
        <mxCell id="lz1Btb8TUmcO2zdvs2zw-241" value="(0, 1)" style="edgeLabel;html=1;align=center;verticalAlign=middle;resizable=0;points=[];" connectable="0" vertex="1" parent="lz1Btb8TUmcO2zdvs2zw-192">
          <mxGeometry x="-0.0678" y="1" relative="1" as="geometry">
            <mxPoint as="offset" />
          </mxGeometry>
        </mxCell>
        <mxCell id="lz1Btb8TUmcO2zdvs2zw-201" value="quantità minima ordinabile" style="text;html=1;align=center;verticalAlign=middle;whiteSpace=wrap;rounded=0;" vertex="1" parent="1">
          <mxGeometry x="1705.44" y="546.55" width="117.12" height="30" as="geometry" />
        </mxCell>
        <mxCell id="lz1Btb8TUmcO2zdvs2zw-202" value="prezzo fornitura" style="text;html=1;align=center;verticalAlign=middle;whiteSpace=wrap;rounded=0;" vertex="1" parent="1">
          <mxGeometry x="1813" y="555" width="60" height="30" as="geometry" />
        </mxCell>
        <mxCell id="lz1Btb8TUmcO2zdvs2zw-204" value="tempo stimato consegna" style="text;html=1;align=center;verticalAlign=middle;whiteSpace=wrap;rounded=0;" vertex="1" parent="1">
          <mxGeometry x="1868" y="547.5" width="100" height="30" as="geometry" />
        </mxCell>
        <mxCell id="lz1Btb8TUmcO2zdvs2zw-205" value="" style="ellipse;whiteSpace=wrap;html=1;" vertex="1" parent="1">
          <mxGeometry x="1838" y="547.5" width="10" height="10" as="geometry" />
        </mxCell>
        <mxCell id="lz1Btb8TUmcO2zdvs2zw-206" value="" style="ellipse;whiteSpace=wrap;html=1;" vertex="1" parent="1">
          <mxGeometry x="1762.88" y="540" width="10" height="10" as="geometry" />
        </mxCell>
        <mxCell id="lz1Btb8TUmcO2zdvs2zw-208" value="" style="ellipse;whiteSpace=wrap;html=1;" vertex="1" parent="1">
          <mxGeometry x="1906.5" y="540" width="10" height="10" as="geometry" />
        </mxCell>
        <mxCell id="lz1Btb8TUmcO2zdvs2zw-209" value="" style="endArrow=none;html=1;rounded=0;exitX=1;exitY=0;exitDx=0;exitDy=0;entryX=0.192;entryY=0.698;entryDx=0;entryDy=0;entryPerimeter=0;" edge="1" parent="1" source="lz1Btb8TUmcO2zdvs2zw-206" target="lz1Btb8TUmcO2zdvs2zw-123">
          <mxGeometry width="50" height="50" relative="1" as="geometry">
            <mxPoint x="1762.88" y="575" as="sourcePoint" />
            <mxPoint x="1812.88" y="525" as="targetPoint" />
          </mxGeometry>
        </mxCell>
        <mxCell id="lz1Btb8TUmcO2zdvs2zw-210" value="" style="endArrow=none;html=1;rounded=0;exitX=0;exitY=0;exitDx=0;exitDy=0;entryX=0.828;entryY=0.678;entryDx=0;entryDy=0;entryPerimeter=0;" edge="1" parent="1" source="lz1Btb8TUmcO2zdvs2zw-208" target="lz1Btb8TUmcO2zdvs2zw-123">
          <mxGeometry width="50" height="50" relative="1" as="geometry">
            <mxPoint x="1826.88" y="575" as="sourcePoint" />
            <mxPoint x="1876.88" y="525" as="targetPoint" />
          </mxGeometry>
        </mxCell>
        <mxCell id="lz1Btb8TUmcO2zdvs2zw-211" value="" style="endArrow=none;html=1;rounded=0;exitX=0.5;exitY=0;exitDx=0;exitDy=0;entryX=0.5;entryY=1;entryDx=0;entryDy=0;" edge="1" parent="1" source="lz1Btb8TUmcO2zdvs2zw-205" target="lz1Btb8TUmcO2zdvs2zw-123">
          <mxGeometry width="50" height="50" relative="1" as="geometry">
            <mxPoint x="1794" y="586.88" as="sourcePoint" />
            <mxPoint x="1844" y="536.88" as="targetPoint" />
          </mxGeometry>
        </mxCell>
        <mxCell id="lz1Btb8TUmcO2zdvs2zw-215" value="reso" style="rhombus;whiteSpace=wrap;html=1;" vertex="1" parent="1">
          <mxGeometry x="2054.1699999999996" y="302.5" width="93.11" height="35.01" as="geometry" />
        </mxCell>
        <mxCell id="lz1Btb8TUmcO2zdvs2zw-217" value="" style="ellipse;whiteSpace=wrap;html=1;" vertex="1" parent="1">
          <mxGeometry x="2051.5299999999997" y="286.89" width="10" height="10" as="geometry" />
        </mxCell>
        <mxCell id="lz1Btb8TUmcO2zdvs2zw-218" value="" style="ellipse;whiteSpace=wrap;html=1;" vertex="1" parent="1">
          <mxGeometry x="2137.2799999999997" y="286.89" width="10" height="10" as="geometry" />
        </mxCell>
        <mxCell id="lz1Btb8TUmcO2zdvs2zw-221" value="data reso" style="text;html=1;align=center;verticalAlign=middle;whiteSpace=wrap;rounded=0;" vertex="1" parent="1">
          <mxGeometry x="1992.0300000000002" y="276.89" width="60" height="30" as="geometry" />
        </mxCell>
        <mxCell id="lz1Btb8TUmcO2zdvs2zw-222" value="stato rimborso" style="text;html=1;align=center;verticalAlign=middle;whiteSpace=wrap;rounded=0;" vertex="1" parent="1">
          <mxGeometry x="2147.89" y="272.5" width="83.86" height="30" as="geometry" />
        </mxCell>
        <mxCell id="lz1Btb8TUmcO2zdvs2zw-223" value="" style="endArrow=none;html=1;rounded=0;exitX=0.223;exitY=0.263;exitDx=0;exitDy=0;exitPerimeter=0;entryX=1;entryY=1;entryDx=0;entryDy=0;" edge="1" parent="1" source="lz1Btb8TUmcO2zdvs2zw-215" target="lz1Btb8TUmcO2zdvs2zw-217">
          <mxGeometry width="50" height="50" relative="1" as="geometry">
            <mxPoint x="2011.14" y="346.89" as="sourcePoint" />
            <mxPoint x="2061.14" y="297.51" as="targetPoint" />
          </mxGeometry>
        </mxCell>
        <mxCell id="lz1Btb8TUmcO2zdvs2zw-224" value="" style="endArrow=none;html=1;rounded=0;exitX=1;exitY=0;exitDx=0;exitDy=0;entryX=0;entryY=1;entryDx=0;entryDy=0;" edge="1" parent="1" source="lz1Btb8TUmcO2zdvs2zw-215" target="lz1Btb8TUmcO2zdvs2zw-218">
          <mxGeometry width="50" height="50" relative="1" as="geometry">
            <mxPoint x="2088.0299999999997" y="345.01" as="sourcePoint" />
            <mxPoint x="2138.0299999999997" y="295.01" as="targetPoint" />
          </mxGeometry>
        </mxCell>
        <mxCell id="lz1Btb8TUmcO2zdvs2zw-225" value="" style="endArrow=none;html=1;rounded=0;exitX=1.001;exitY=0.1;exitDx=0;exitDy=0;exitPerimeter=0;entryX=0;entryY=0.5;entryDx=0;entryDy=0;" edge="1" parent="1" source="lz1Btb8TUmcO2zdvs2zw-65" target="lz1Btb8TUmcO2zdvs2zw-215">
          <mxGeometry width="50" height="50" relative="1" as="geometry">
            <mxPoint x="1985.89" y="365" as="sourcePoint" />
            <mxPoint x="2050" y="320" as="targetPoint" />
            <Array as="points">
              <mxPoint x="2040" y="354" />
              <mxPoint x="2040" y="320" />
            </Array>
          </mxGeometry>
        </mxCell>
        <mxCell id="lz1Btb8TUmcO2zdvs2zw-226" value="(0, 1)" style="edgeLabel;html=1;align=center;verticalAlign=middle;resizable=0;points=[];" connectable="0" vertex="1" parent="lz1Btb8TUmcO2zdvs2zw-225">
          <mxGeometry x="-0.0946" y="1" relative="1" as="geometry">
            <mxPoint x="-5" as="offset" />
          </mxGeometry>
        </mxCell>
        <mxCell id="lz1Btb8TUmcO2zdvs2zw-227" value="" style="endArrow=none;html=1;rounded=0;entryX=0.467;entryY=0.014;entryDx=0;entryDy=0;exitX=1;exitY=0.5;exitDx=0;exitDy=0;entryPerimeter=0;" edge="1" parent="1" source="lz1Btb8TUmcO2zdvs2zw-215" target="lz1Btb8TUmcO2zdvs2zw-88">
          <mxGeometry width="50" height="50" relative="1" as="geometry">
            <mxPoint x="2178.21" y="355" as="sourcePoint" />
            <mxPoint x="2228.21" y="305" as="targetPoint" />
            <Array as="points">
              <mxPoint x="2278" y="320" />
            </Array>
          </mxGeometry>
        </mxCell>
        <mxCell id="lz1Btb8TUmcO2zdvs2zw-228" value="(0, N)" style="edgeLabel;html=1;align=center;verticalAlign=middle;resizable=0;points=[];" connectable="0" vertex="1" parent="lz1Btb8TUmcO2zdvs2zw-227">
          <mxGeometry x="0.065" y="1" relative="1" as="geometry">
            <mxPoint x="-17" y="1" as="offset" />
          </mxGeometry>
        </mxCell>
        <mxCell id="lz1Btb8TUmcO2zdvs2zw-229" value="telefono" style="text;html=1;align=center;verticalAlign=middle;whiteSpace=wrap;rounded=0;" vertex="1" parent="1">
          <mxGeometry x="2006.89" y="560" width="60" height="30" as="geometry" />
        </mxCell>
        <mxCell id="lz1Btb8TUmcO2zdvs2zw-230" value="indirizzo" style="text;html=1;align=center;verticalAlign=middle;whiteSpace=wrap;rounded=0;" vertex="1" parent="1">
          <mxGeometry x="2041.8899999999999" y="713.75" width="60" height="30" as="geometry" />
        </mxCell>
        <mxCell id="lz1Btb8TUmcO2zdvs2zw-235" value="" style="ellipse;whiteSpace=wrap;html=1;" vertex="1" parent="1">
          <mxGeometry x="2054.17" y="555.74" width="10" height="10" as="geometry" />
        </mxCell>
        <mxCell id="lz1Btb8TUmcO2zdvs2zw-236" value="" style="endArrow=none;html=1;rounded=0;exitX=0.5;exitY=0;exitDx=0;exitDy=0;entryX=0.064;entryY=1.017;entryDx=0;entryDy=0;entryPerimeter=0;" edge="1" parent="1" source="lz1Btb8TUmcO2zdvs2zw-235">
          <mxGeometry width="50" height="50" relative="1" as="geometry">
            <mxPoint x="2011.0499999999997" y="586.99" as="sourcePoint" />
            <mxPoint x="2058.9700000000003" y="537.5" as="targetPoint" />
          </mxGeometry>
        </mxCell>
        <mxCell id="lz1Btb8TUmcO2zdvs2zw-237" value="e-mail" style="text;html=1;align=center;verticalAlign=middle;whiteSpace=wrap;rounded=0;" vertex="1" parent="1">
          <mxGeometry x="1981.89" y="525" width="60" height="10" as="geometry" />
        </mxCell>
        <mxCell id="lz1Btb8TUmcO2zdvs2zw-238" value="" style="ellipse;whiteSpace=wrap;html=1;" vertex="1" parent="1">
          <mxGeometry x="2031.89" y="525" width="10" height="10" as="geometry" />
        </mxCell>
        <mxCell id="lz1Btb8TUmcO2zdvs2zw-239" value="" style="endArrow=none;html=1;rounded=0;exitX=1;exitY=0.5;exitDx=0;exitDy=0;entryX=-0.006;entryY=0.815;entryDx=0;entryDy=0;entryPerimeter=0;" edge="1" parent="1" source="lz1Btb8TUmcO2zdvs2zw-238" target="lz1Btb8TUmcO2zdvs2zw-126">
          <mxGeometry width="50" height="50" relative="1" as="geometry">
            <mxPoint x="2003.03" y="577.5" as="sourcePoint" />
            <mxPoint x="2053.03" y="527.5" as="targetPoint" />
          </mxGeometry>
        </mxCell>
        <mxCell id="lz1Btb8TUmcO2zdvs2zw-244" value="" style="ellipse;whiteSpace=wrap;html=1;fillColor=#000000;" vertex="1" parent="1">
          <mxGeometry x="2031.89" y="723.75" width="10" height="10" as="geometry" />
        </mxCell>
        <mxCell id="lz1Btb8TUmcO2zdvs2zw-245" value="" style="endArrow=none;html=1;rounded=0;entryX=0;entryY=0.5;entryDx=0;entryDy=0;exitX=1.002;exitY=0.329;exitDx=0;exitDy=0;exitPerimeter=0;" edge="1" parent="1" source="lz1Btb8TUmcO2zdvs2zw-132" target="lz1Btb8TUmcO2zdvs2zw-244">
          <mxGeometry width="50" height="50" relative="1" as="geometry">
            <mxPoint x="1979.17" y="777.5" as="sourcePoint" />
            <mxPoint x="2029.17" y="727.5" as="targetPoint" />
          </mxGeometry>
        </mxCell>
        <mxCell id="lz1Btb8TUmcO2zdvs2zw-250" value="" style="ellipse;whiteSpace=wrap;html=1;" vertex="1" parent="1">
          <mxGeometry x="2137.28" y="556.5500000000002" width="10" height="10" as="geometry" />
        </mxCell>
        <mxCell id="lz1Btb8TUmcO2zdvs2zw-251" value="" style="endArrow=none;html=1;rounded=0;exitX=0.5;exitY=0;exitDx=0;exitDy=0;entryX=0.395;entryY=0.99;entryDx=0;entryDy=0;entryPerimeter=0;" edge="1" parent="1" source="lz1Btb8TUmcO2zdvs2zw-250">
          <mxGeometry width="50" height="50" relative="1" as="geometry">
            <mxPoint x="2094.33" y="587.8000000000002" as="sourcePoint" />
            <mxPoint x="2141.905" y="537.5" as="targetPoint" />
          </mxGeometry>
        </mxCell>
        <mxCell id="lz1Btb8TUmcO2zdvs2zw-252" value="nome" style="text;html=1;align=center;verticalAlign=middle;whiteSpace=wrap;rounded=0;" vertex="1" parent="1">
          <mxGeometry x="2130.53" y="557.5" width="60" height="30" as="geometry" />
        </mxCell>
        <mxCell id="lz1Btb8TUmcO2zdvs2zw-253" value="" style="ellipse;whiteSpace=wrap;html=1;aspect=fixed;fillColor=light-dark(#FFFFFF,#EDEDED);strokeColor=#000000;" vertex="1" parent="1">
          <mxGeometry x="1529.5" y="550" width="10" height="10" as="geometry" />
        </mxCell>
        <mxCell id="lz1Btb8TUmcO2zdvs2zw-254" value="" style="endArrow=none;html=1;rounded=0;exitX=-0.005;exitY=0.945;exitDx=0;exitDy=0;exitPerimeter=0;entryX=1;entryY=0.5;entryDx=0;entryDy=0;" edge="1" parent="1" source="lz1Btb8TUmcO2zdvs2zw-2" target="lz1Btb8TUmcO2zdvs2zw-253">
          <mxGeometry width="50" height="50" relative="1" as="geometry">
            <mxPoint x="1519.72" y="565" as="sourcePoint" />
            <mxPoint x="1519.71" y="585" as="targetPoint" />
          </mxGeometry>
        </mxCell>
        <mxCell id="lz1Btb8TUmcO2zdvs2zw-255" value="lingua" style="text;html=1;align=center;verticalAlign=middle;whiteSpace=wrap;rounded=0;" vertex="1" parent="1">
          <mxGeometry x="1476.5" y="540" width="60" height="30" as="geometry" />
        </mxCell>
        <mxCell id="QaxPc9GKh5Z9wvIhXgID-2" value="" style="endArrow=none;html=1;rounded=0;exitX=0.424;exitY=-0.042;exitDx=0;exitDy=0;exitPerimeter=0;entryX=0.5;entryY=1;entryDx=0;entryDy=0;" edge="1" parent="1" source="EGNzemmNI1gHmbtGjuHe-131" target="EGNzemmNI1gHmbtGjuHe-130">
          <mxGeometry width="50" height="50" relative="1" as="geometry">
            <mxPoint x="140" y="1240" as="sourcePoint" />
            <mxPoint x="190" y="1190" as="targetPoint" />
          </mxGeometry>
        </mxCell>
      </root>
    </mxGraphModel>
  </diagram>
  <diagram id="kDEeC3IGkg6ieotrZHA_" name="Pagina-2">
    <mxGraphModel grid="1" page="1" gridSize="10" guides="1" tooltips="1" connect="1" arrows="1" fold="1" pageScale="1" pageWidth="827" pageHeight="1169" math="0" shadow="0">
      <root>
        <mxCell id="0" />
        <mxCell id="1" parent="0" />
      </root>
    </mxGraphModel>
  </diagram>
</mxfile>
